<?xml version="1.0" encoding="utf-8" standalone="no"?>
<!DOCTYPE svg PUBLIC "-//W3C//DTD SVG 1.1//EN"
  "http://www.w3.org/Graphics/SVG/1.1/DTD/svg11.dtd">
<svg xmlns:xlink="http://www.w3.org/1999/xlink" width="864pt" height="864pt" viewBox="0 0 864 864" xmlns="http://www.w3.org/2000/svg" version="1.1">
 <metadata>
  <rdf:RDF xmlns:dc="http://purl.org/dc/elements/1.1/" xmlns:cc="http://creativecommons.org/ns#" xmlns:rdf="http://www.w3.org/1999/02/22-rdf-syntax-ns#">
   <cc:Work>
    <dc:type rdf:resource="http://purl.org/dc/dcmitype/StillImage"/>
    <dc:date>2025-09-09T19:44:19.899695</dc:date>
    <dc:format>image/svg+xml</dc:format>
    <dc:creator>
     <cc:Agent>
      <dc:title>Matplotlib v3.10.1, https://matplotlib.org/</dc:title>
     </cc:Agent>
    </dc:creator>
   </cc:Work>
  </rdf:RDF>
 </metadata>
 <defs>
  <style type="text/css">*{stroke-linejoin: round; stroke-linecap: butt}</style>
 </defs>
 <g id="figure_1">
  <g id="patch_1">
   <path d="M 0 864 
L 864 864 
L 864 0 
L 0 0 
z
" style="fill: #ffffff"/>
  </g>
  <g id="axes_1">
   <g id="patch_2">
    <path d="M 108 609.581803 
L 777.6 609.581803 
L 777.6 263.058197 
L 108 263.058197 
z
" style="fill: #f8f9fa"/>
   </g>
   <g id="patch_3">
    <path d="M 240.204503 510.567571 
L 239.715593 509.398318 
L 239.235762 508.229065 
L 238.764938 507.059812 
L 238.303049 505.890559 
L 237.850024 504.721306 
L 237.405797 503.552053 
L 236.970302 502.382799 
L 236.543476 501.213546 
L 236.125257 500.044293 
L 235.715585 498.87504 
L 235.314403 497.705787 
L 234.921653 496.536534 
L 234.537281 495.367281 
L 234.161233 494.198028 
L 233.79346 493.028775 
L 233.433909 491.859522 
L 233.082534 490.690269 
L 232.739287 489.521015 
L 232.404122 488.351762 
L 232.076995 487.182509 
L 231.757864 486.013256 
L 231.446686 484.844003 
L 231.143423 483.67475 
L 230.848035 482.505497 
L 230.560484 481.336244 
L 230.280734 480.166991 
L 230.00875 478.997738 
L 229.744498 477.828485 
L 229.487945 476.659232 
L 229.239059 475.489978 
L 228.99781 474.320725 
L 228.764168 473.151472 
L 228.538105 471.982219 
L 228.319594 470.812966 
L 228.108607 469.643713 
L 227.905121 468.47446 
L 227.70911 467.305207 
L 227.520551 466.135954 
L 227.339422 464.966701 
L 227.165701 463.797448 
L 226.999369 462.628194 
L 226.840405 461.458941 
L 226.688791 460.289688 
L 226.54451 459.120435 
L 226.407544 457.951182 
L 226.277878 456.781929 
L 226.155497 455.612676 
L 226.040387 454.443423 
L 225.932535 453.27417 
L 225.831928 452.104917 
L 225.738555 450.935664 
L 225.652405 449.766411 
L 225.573468 448.597157 
L 225.501736 447.427904 
L 225.4372 446.258651 
L 225.379853 445.089398 
L 225.329688 443.920145 
L 225.286701 442.750892 
L 225.250885 441.581639 
L 225.222237 440.412386 
L 225.200754 439.243133 
L 225.186434 438.07388 
L 225.179274 436.904627 
L 225.179274 435.735373 
L 225.186434 434.56612 
L 225.200754 433.396867 
L 225.222237 432.227614 
L 225.250885 431.058361 
L 225.286701 429.889108 
L 225.329688 428.719855 
L 225.379853 427.550602 
L 225.4372 426.381349 
L 225.501736 425.212096 
L 225.573468 424.042843 
L 225.652405 422.873589 
L 225.738555 421.704336 
L 225.831928 420.535083 
L 225.932535 419.36583 
L 226.040387 418.196577 
L 226.155497 417.027324 
L 226.277878 415.858071 
L 226.407544 414.688818 
L 226.54451 413.519565 
L 226.688791 412.350312 
L 226.840405 411.181059 
L 226.999369 410.011806 
L 227.165701 408.842552 
L 227.339422 407.673299 
L 227.520551 406.504046 
L 227.70911 405.334793 
L 227.905121 404.16554 
L 228.108607 402.996287 
L 228.319594 401.827034 
L 228.538105 400.657781 
L 228.764168 399.488528 
L 228.99781 398.319275 
L 229.239059 397.150022 
L 229.487945 395.980768 
L 229.744498 394.811515 
L 230.00875 393.642262 
L 230.280734 392.473009 
L 230.560484 391.303756 
L 230.848035 390.134503 
L 231.143423 388.96525 
L 231.446686 387.795997 
L 231.757864 386.626744 
L 232.076995 385.457491 
L 232.404122 384.288238 
L 232.739287 383.118985 
L 233.082534 381.949731 
L 233.433909 380.780478 
L 233.79346 379.611225 
L 234.161233 378.441972 
L 234.537281 377.272719 
L 234.921653 376.103466 
L 235.314403 374.934213 
L 235.715585 373.76496 
L 236.125257 372.595707 
L 236.543476 371.426454 
L 236.970302 370.257201 
L 237.405797 369.087947 
L 237.850024 367.918694 
L 238.303049 366.749441 
L 238.764938 365.580188 
L 239.235762 364.410935 
L 239.715593 363.241682 
L 240.204503 362.072429 
L 252.81043 362.072429 
L 252.81043 366.938231 
L 252.830331 368.030857 
L 252.849916 369.123484 
L 252.869186 370.21611 
L 252.888139 371.308736 
L 252.906776 372.401362 
L 252.925097 373.493989 
L 252.943102 374.586615 
L 252.960792 375.679241 
L 252.978165 376.771868 
L 252.995223 377.864494 
L 253.011964 378.95712 
L 253.028389 380.049746 
L 253.044499 381.142373 
L 253.060293 382.234999 
L 253.07577 383.327625 
L 253.090932 384.420252 
L 253.105778 385.512878 
L 253.120308 386.605504 
L 253.134522 387.69813 
L 253.14842 388.790757 
L 253.162002 389.883383 
L 253.175268 390.976009 
L 253.188218 392.068636 
L 253.200853 393.161262 
L 253.213171 394.253888 
L 253.225174 395.346514 
L 253.236861 396.439141 
L 253.248231 397.531767 
L 253.259286 398.624393 
L 253.270025 399.71702 
L 253.280449 400.809646 
L 253.290556 401.902272 
L 253.300347 402.994898 
L 253.309823 404.087525 
L 253.318982 405.180151 
L 253.327826 406.272777 
L 253.336354 407.365404 
L 253.344566 408.45803 
L 253.352462 409.550656 
L 253.360043 410.643282 
L 253.367307 411.735909 
L 253.374256 412.828535 
L 253.380889 413.921161 
L 253.387205 415.013787 
L 253.393206 416.106414 
L 253.398892 417.19904 
L 253.404261 418.291666 
L 253.409314 419.384293 
L 253.414052 420.476919 
L 253.418474 421.569545 
L 253.42258 422.662171 
L 253.42637 423.754798 
L 253.429844 424.847424 
L 253.433003 425.94005 
L 253.435845 427.032677 
L 253.438372 428.125303 
L 253.440583 429.217929 
L 253.442478 430.310555 
L 253.444057 431.403182 
L 253.44532 432.495808 
L 253.446268 433.588434 
L 253.4469 434.681061 
L 253.447215 435.773687 
L 253.447215 436.866313 
L 253.4469 437.958939 
L 253.446268 439.051566 
L 253.44532 440.144192 
L 253.444057 441.236818 
L 253.442478 442.329445 
L 253.440583 443.422071 
L 253.438372 444.514697 
L 253.435845 445.607323 
L 253.433003 446.69995 
L 253.429844 447.792576 
L 253.42637 448.885202 
L 253.42258 449.977829 
L 253.418474 451.070455 
L 253.414052 452.163081 
L 253.409314 453.255707 
L 253.404261 454.348334 
L 253.398892 455.44096 
L 253.393206 456.533586 
L 253.387205 457.626213 
L 253.380889 458.718839 
L 253.374256 459.811465 
L 253.367307 460.904091 
L 253.360043 461.996718 
L 253.352462 463.089344 
L 253.344566 464.18197 
L 253.336354 465.274596 
L 253.327826 466.367223 
L 253.318982 467.459849 
L 253.309823 468.552475 
L 253.300347 469.645102 
L 253.290556 470.737728 
L 253.280449 471.830354 
L 253.270025 472.92298 
L 253.259286 474.015607 
L 253.248231 475.108233 
L 253.236861 476.200859 
L 253.225174 477.293486 
L 253.213171 478.386112 
L 253.200853 479.478738 
L 253.188218 480.571364 
L 253.175268 481.663991 
L 253.162002 482.756617 
L 253.14842 483.849243 
L 253.134522 484.94187 
L 253.120308 486.034496 
L 253.105778 487.127122 
L 253.090932 488.219748 
L 253.07577 489.312375 
L 253.060293 490.405001 
L 253.044499 491.497627 
L 253.028389 492.590254 
L 253.011964 493.68288 
L 252.995223 494.775506 
L 252.978165 495.868132 
L 252.960792 496.960759 
L 252.943102 498.053385 
L 252.925097 499.146011 
L 252.906776 500.238638 
L 252.888139 501.331264 
L 252.869186 502.42389 
L 252.849916 503.516516 
L 252.830331 504.609143 
L 252.81043 505.701769 
L 252.81043 510.567571 
z
" clip-path="url(#pfe191e6248)" style="fill: #cccccc; fill-opacity: 0.6; stroke: #808080; stroke-linejoin: miter"/>
   </g>
   <g id="patch_4">
    <path d="M 302.438488 470.85117 
L 302.536742 470.307372 
L 302.633387 469.763574 
L 302.728425 469.219776 
L 302.821858 468.675978 
L 302.913689 468.132181 
L 303.003921 467.588383 
L 303.092555 467.044585 
L 303.179594 466.500787 
L 303.265041 465.956989 
L 303.348896 465.413191 
L 303.431162 464.869393 
L 303.511842 464.325595 
L 303.590937 463.781797 
L 303.668449 463.237999 
L 303.744381 462.694201 
L 303.818734 462.150403 
L 303.891509 461.606605 
L 303.96271 461.062807 
L 304.032337 460.519009 
L 304.100392 459.975211 
L 304.166877 459.431413 
L 304.231793 458.887615 
L 304.295143 458.343817 
L 304.356927 457.800019 
L 304.417148 457.256221 
L 304.475806 456.712423 
L 304.532903 456.168625 
L 304.588441 455.624827 
L 304.642421 455.08103 
L 304.694844 454.537232 
L 304.745711 453.993434 
L 304.795024 453.449636 
L 304.842784 452.905838 
L 304.888992 452.36204 
L 304.933649 451.818242 
L 304.976757 451.274444 
L 305.018315 450.730646 
L 305.058326 450.186848 
L 305.096791 449.64305 
L 305.133709 449.099252 
L 305.169082 448.555454 
L 305.202912 448.011656 
L 305.235198 447.467858 
L 305.265942 446.92406 
L 305.295144 446.380262 
L 305.322805 445.836464 
L 305.348925 445.292666 
L 305.373506 444.748868 
L 305.396548 444.20507 
L 305.418051 443.661272 
L 305.438016 443.117474 
L 305.456443 442.573677 
L 305.473334 442.029879 
L 305.488687 441.486081 
L 305.502504 440.942283 
L 305.514785 440.398485 
L 305.52553 439.854687 
L 305.53474 439.310889 
L 305.542414 438.767091 
L 305.548554 438.223293 
L 305.553158 437.679495 
L 305.556228 437.135697 
L 305.557762 436.591899 
L 305.557762 436.048101 
L 305.556228 435.504303 
L 305.553158 434.960505 
L 305.548554 434.416707 
L 305.542414 433.872909 
L 305.53474 433.329111 
L 305.52553 432.785313 
L 305.514785 432.241515 
L 305.502504 431.697717 
L 305.488687 431.153919 
L 305.473334 430.610121 
L 305.456443 430.066323 
L 305.438016 429.522526 
L 305.418051 428.978728 
L 305.396548 428.43493 
L 305.373506 427.891132 
L 305.348925 427.347334 
L 305.322805 426.803536 
L 305.295144 426.259738 
L 305.265942 425.71594 
L 305.235198 425.172142 
L 305.202912 424.628344 
L 305.169082 424.084546 
L 305.133709 423.540748 
L 305.096791 422.99695 
L 305.058326 422.453152 
L 305.018315 421.909354 
L 304.976757 421.365556 
L 304.933649 420.821758 
L 304.888992 420.27796 
L 304.842784 419.734162 
L 304.795024 419.190364 
L 304.745711 418.646566 
L 304.694844 418.102768 
L 304.642421 417.55897 
L 304.588441 417.015173 
L 304.532903 416.471375 
L 304.475806 415.927577 
L 304.417148 415.383779 
L 304.356927 414.839981 
L 304.295143 414.296183 
L 304.231793 413.752385 
L 304.166877 413.208587 
L 304.100392 412.664789 
L 304.032337 412.120991 
L 303.96271 411.577193 
L 303.891509 411.033395 
L 303.818734 410.489597 
L 303.744381 409.945799 
L 303.668449 409.402001 
L 303.590937 408.858203 
L 303.511842 408.314405 
L 303.431162 407.770607 
L 303.348896 407.226809 
L 303.265041 406.683011 
L 303.179594 406.139213 
L 303.092555 405.595415 
L 303.003921 405.051617 
L 302.913689 404.507819 
L 302.821858 403.964022 
L 302.728425 403.420224 
L 302.633387 402.876426 
L 302.536742 402.332628 
L 302.438488 401.78883 
L 317.441633 401.78883 
L 317.441633 402.859141 
L 317.340433 403.386083 
L 317.240897 403.913026 
L 317.143023 404.439969 
L 317.046807 404.966911 
L 316.952246 405.493854 
L 316.859339 406.020797 
L 316.768082 406.547739 
L 316.678473 407.074682 
L 316.590508 407.601625 
L 316.504187 408.128567 
L 316.419506 408.65551 
L 316.336462 409.182453 
L 316.255054 409.709395 
L 316.17528 410.236338 
L 316.097136 410.763281 
L 316.020621 411.290223 
L 315.945732 411.817166 
L 315.872469 412.344109 
L 315.800827 412.871051 
L 315.730806 413.397994 
L 315.662404 413.924937 
L 315.595618 414.451879 
L 315.530447 414.978822 
L 315.466889 415.505765 
L 315.404942 416.032707 
L 315.344604 416.55965 
L 315.285875 417.086593 
L 315.228751 417.613535 
L 315.173233 418.140478 
L 315.119317 418.667421 
L 315.067003 419.194363 
L 315.016289 419.721306 
L 314.967174 420.248249 
L 314.919656 420.775191 
L 314.873735 421.302134 
L 314.829408 421.829077 
L 314.786676 422.356019 
L 314.745535 422.882962 
L 314.705986 423.409905 
L 314.668028 423.936847 
L 314.631659 424.46379 
L 314.596878 424.990733 
L 314.563684 425.517675 
L 314.532077 426.044618 
L 314.502056 426.571561 
L 314.473619 427.098503 
L 314.446766 427.625446 
L 314.421497 428.152389 
L 314.39781 428.679331 
L 314.375706 429.206274 
L 314.355182 429.733217 
L 314.33624 430.260159 
L 314.318878 430.787102 
L 314.303095 431.314045 
L 314.288893 431.840987 
L 314.276269 432.36793 
L 314.265224 432.894873 
L 314.255757 433.421815 
L 314.247869 433.948758 
L 314.241558 434.475701 
L 314.236825 435.002643 
L 314.23367 435.529586 
L 314.232093 436.056529 
L 314.232093 436.583471 
L 314.23367 437.110414 
L 314.236825 437.637357 
L 314.241558 438.164299 
L 314.247869 438.691242 
L 314.255757 439.218185 
L 314.265224 439.745127 
L 314.276269 440.27207 
L 314.288893 440.799013 
L 314.303095 441.325955 
L 314.318878 441.852898 
L 314.33624 442.379841 
L 314.355182 442.906783 
L 314.375706 443.433726 
L 314.39781 443.960669 
L 314.421497 444.487611 
L 314.446766 445.014554 
L 314.473619 445.541497 
L 314.502056 446.068439 
L 314.532077 446.595382 
L 314.563684 447.122325 
L 314.596878 447.649267 
L 314.631659 448.17621 
L 314.668028 448.703153 
L 314.705986 449.230095 
L 314.745535 449.757038 
L 314.786676 450.283981 
L 314.829408 450.810923 
L 314.873735 451.337866 
L 314.919656 451.864809 
L 314.967174 452.391751 
L 315.016289 452.918694 
L 315.067003 453.445637 
L 315.119317 453.972579 
L 315.173233 454.499522 
L 315.228751 455.026465 
L 315.285875 455.553407 
L 315.344604 456.08035 
L 315.404942 456.607293 
L 315.466889 457.134235 
L 315.530447 457.661178 
L 315.595618 458.188121 
L 315.662404 458.715063 
L 315.730806 459.242006 
L 315.800827 459.768949 
L 315.872469 460.295891 
L 315.945732 460.822834 
L 316.020621 461.349777 
L 316.097136 461.876719 
L 316.17528 462.403662 
L 316.255054 462.930605 
L 316.336462 463.457547 
L 316.419506 463.98449 
L 316.504187 464.511433 
L 316.590508 465.038375 
L 316.678473 465.565318 
L 316.768082 466.092261 
L 316.859339 466.619203 
L 316.952246 467.146146 
L 317.046807 467.673089 
L 317.143023 468.200031 
L 317.240897 468.726974 
L 317.340433 469.253917 
L 317.441633 469.780859 
L 317.441633 470.85117 
z
" clip-path="url(#pfe191e6248)" style="fill: #cccccc; fill-opacity: 0.6; stroke: #808080; stroke-linejoin: miter"/>
   </g>
   <g id="patch_5">
    <path d="M 358.037368 499.380942 
L 358.037368 496.208983 
L 357.955991 495.26585 
L 357.875916 494.322716 
L 357.797141 493.379582 
L 357.719666 492.436449 
L 357.643491 491.493315 
L 357.568616 490.550182 
L 357.495039 489.607048 
L 357.422761 488.663915 
L 357.35178 487.720781 
L 357.282098 486.777647 
L 357.213713 485.834514 
L 357.146624 484.89138 
L 357.080832 483.948247 
L 357.016336 483.005113 
L 356.953136 482.061979 
L 356.891232 481.118846 
L 356.830622 480.175712 
L 356.771308 479.232579 
L 356.713287 478.289445 
L 356.656561 477.346311 
L 356.601128 476.403178 
L 356.546989 475.460044 
L 356.494143 474.516911 
L 356.44259 473.573777 
L 356.392329 472.630643 
L 356.343361 471.68751 
L 356.295684 470.744376 
L 356.249299 469.801243 
L 356.204206 468.858109 
L 356.160404 467.914975 
L 356.117893 466.971842 
L 356.076672 466.028708 
L 356.036742 465.085575 
L 355.998103 464.142441 
L 355.960753 463.199307 
L 355.924693 462.256174 
L 355.889923 461.31304 
L 355.856442 460.369907 
L 355.824251 459.426773 
L 355.793349 458.483639 
L 355.763735 457.540506 
L 355.73541 456.597372 
L 355.708374 455.654239 
L 355.682626 454.711105 
L 355.658167 453.767972 
L 355.634995 452.824838 
L 355.613112 451.881704 
L 355.592517 450.938571 
L 355.573209 449.995437 
L 355.555189 449.052304 
L 355.538456 448.10917 
L 355.523011 447.166036 
L 355.508854 446.222903 
L 355.495984 445.279769 
L 355.4844 444.336636 
L 355.474105 443.393502 
L 355.465096 442.450368 
L 355.457374 441.507235 
L 355.450939 440.564101 
L 355.445792 439.620968 
L 355.441931 438.677834 
L 355.439357 437.7347 
L 355.43807 436.791567 
L 355.43807 435.848433 
L 355.439357 434.9053 
L 355.441931 433.962166 
L 355.445792 433.019032 
L 355.450939 432.075899 
L 355.457374 431.132765 
L 355.465096 430.189632 
L 355.474105 429.246498 
L 355.4844 428.303364 
L 355.495984 427.360231 
L 355.508854 426.417097 
L 355.523011 425.473964 
L 355.538456 424.53083 
L 355.555189 423.587696 
L 355.573209 422.644563 
L 355.592517 421.701429 
L 355.613112 420.758296 
L 355.634995 419.815162 
L 355.658167 418.872028 
L 355.682626 417.928895 
L 355.708374 416.985761 
L 355.73541 416.042628 
L 355.763735 415.099494 
L 355.793349 414.156361 
L 355.824251 413.213227 
L 355.856442 412.270093 
L 355.889923 411.32696 
L 355.924693 410.383826 
L 355.960753 409.440693 
L 355.998103 408.497559 
L 356.036742 407.554425 
L 356.076672 406.611292 
L 356.117893 405.668158 
L 356.160404 404.725025 
L 356.204206 403.781891 
L 356.249299 402.838757 
L 356.295684 401.895624 
L 356.343361 400.95249 
L 356.392329 400.009357 
L 356.44259 399.066223 
L 356.494143 398.123089 
L 356.546989 397.179956 
L 356.601128 396.236822 
L 356.656561 395.293689 
L 356.713287 394.350555 
L 356.771308 393.407421 
L 356.830622 392.464288 
L 356.891232 391.521154 
L 356.953136 390.578021 
L 357.016336 389.634887 
L 357.080832 388.691753 
L 357.146624 387.74862 
L 357.213713 386.805486 
L 357.282098 385.862353 
L 357.35178 384.919219 
L 357.422761 383.976085 
L 357.495039 383.032952 
L 357.568616 382.089818 
L 357.643491 381.146685 
L 357.719666 380.203551 
L 357.797141 379.260418 
L 357.875916 378.317284 
L 357.955991 377.37415 
L 358.037368 376.431017 
L 358.037368 373.259058 
L 368.055089 373.259058 
L 368.478368 374.252144 
L 368.893742 375.24523 
L 369.301278 376.238315 
L 369.70104 377.231401 
L 370.09309 378.224487 
L 370.47749 379.217572 
L 370.854298 380.210658 
L 371.223573 381.203744 
L 371.585369 382.19683 
L 371.93974 383.189915 
L 372.286739 384.183001 
L 372.626417 385.176087 
L 372.958823 386.169172 
L 373.284005 387.162258 
L 373.602008 388.155344 
L 373.912878 389.148429 
L 374.216659 390.141515 
L 374.513393 391.134601 
L 374.80312 392.127687 
L 375.08588 393.120772 
L 375.361712 394.113858 
L 375.630652 395.106944 
L 375.892738 396.100029 
L 376.148003 397.093115 
L 376.396482 398.086201 
L 376.638206 399.079286 
L 376.873208 400.072372 
L 377.101519 401.065458 
L 377.323166 402.058543 
L 377.538179 403.051629 
L 377.746586 404.044715 
L 377.948412 405.037801 
L 378.143683 406.030886 
L 378.332423 407.023972 
L 378.514657 408.017058 
L 378.690406 409.010143 
L 378.859692 410.003229 
L 379.022537 410.996315 
L 379.17896 411.9894 
L 379.32898 412.982486 
L 379.472615 413.975572 
L 379.609884 414.968658 
L 379.740802 415.961743 
L 379.865385 416.954829 
L 379.983648 417.947915 
L 380.095606 418.941 
L 380.201271 419.934086 
L 380.300656 420.927172 
L 380.393774 421.920257 
L 380.480634 422.913343 
L 380.561248 423.906429 
L 380.635624 424.899514 
L 380.703772 425.8926 
L 380.765699 426.885686 
L 380.821413 427.878772 
L 380.87092 428.871857 
L 380.914226 429.864943 
L 380.951336 430.858029 
L 380.982255 431.851114 
L 381.006985 432.8442 
L 381.02553 433.837286 
L 381.037893 434.830371 
L 381.044074 435.823457 
L 381.044074 436.816543 
L 381.037893 437.809629 
L 381.02553 438.802714 
L 381.006985 439.7958 
L 380.982255 440.788886 
L 380.951336 441.781971 
L 380.914226 442.775057 
L 380.87092 443.768143 
L 380.821413 444.761228 
L 380.765699 445.754314 
L 380.703772 446.7474 
L 380.635624 447.740486 
L 380.561248 448.733571 
L 380.480634 449.726657 
L 380.393774 450.719743 
L 380.300656 451.712828 
L 380.201271 452.705914 
L 380.095606 453.699 
L 379.983648 454.692085 
L 379.865385 455.685171 
L 379.740802 456.678257 
L 379.609884 457.671342 
L 379.472615 458.664428 
L 379.32898 459.657514 
L 379.17896 460.6506 
L 379.022537 461.643685 
L 378.859692 462.636771 
L 378.690406 463.629857 
L 378.514657 464.622942 
L 378.332423 465.616028 
L 378.143683 466.609114 
L 377.948412 467.602199 
L 377.746586 468.595285 
L 377.538179 469.588371 
L 377.323166 470.581457 
L 377.101519 471.574542 
L 376.873208 472.567628 
L 376.638206 473.560714 
L 376.396482 474.553799 
L 376.148003 475.546885 
L 375.892738 476.539971 
L 375.630652 477.533056 
L 375.361712 478.526142 
L 375.08588 479.519228 
L 374.80312 480.512313 
L 374.513393 481.505399 
L 374.216659 482.498485 
L 373.912878 483.491571 
L 373.602008 484.484656 
L 373.284005 485.477742 
L 372.958823 486.470828 
L 372.626417 487.463913 
L 372.286739 488.456999 
L 371.93974 489.450085 
L 371.585369 490.44317 
L 371.223573 491.436256 
L 370.854298 492.429342 
L 370.47749 493.422428 
L 370.09309 494.415513 
L 369.70104 495.408599 
L 369.301278 496.401685 
L 368.893742 497.39477 
L 368.478368 498.387856 
L 368.055089 499.380942 
z
" clip-path="url(#pfe191e6248)" style="fill: #cccccc; fill-opacity: 0.6; stroke: #808080; stroke-linejoin: miter"/>
   </g>
   <g id="matplotlib.axis_1">
    <g id="xtick_1">
     <g id="line2d_1">
      <path d="M 138.436364 609.581803 
L 138.436364 263.058197 
" clip-path="url(#pfe191e6248)" style="fill: none; stroke: #b0b0b0; stroke-opacity: 0.25; stroke-width: 0.8; stroke-linecap: square"/>
     </g>
     <g id="line2d_2">
      <defs>
       <path id="m375c827ded" d="M 0 0 
L 0 3.5 
" style="stroke: #000000; stroke-width: 0.8"/>
      </defs>
      <g>
       <use xlink:href="#m375c827ded" x="138.436364" y="609.581803" style="stroke: #000000; stroke-width: 0.8"/>
      </g>
     </g>
     <g id="text_1">
      <!-- −10 -->
      <g transform="translate(127.88402 624.18024) scale(0.1 -0.1)">
       <defs>
        <path id="DejaVuSans-2212" d="M 678 2272 
L 4684 2272 
L 4684 1741 
L 678 1741 
L 678 2272 
z
" transform="scale(0.015625)"/>
        <path id="DejaVuSans-31" d="M 794 531 
L 1825 531 
L 1825 4091 
L 703 3866 
L 703 4441 
L 1819 4666 
L 2450 4666 
L 2450 531 
L 3481 531 
L 3481 0 
L 794 0 
L 794 531 
z
" transform="scale(0.015625)"/>
        <path id="DejaVuSans-30" d="M 2034 4250 
Q 1547 4250 1301 3770 
Q 1056 3291 1056 2328 
Q 1056 1369 1301 889 
Q 1547 409 2034 409 
Q 2525 409 2770 889 
Q 3016 1369 3016 2328 
Q 3016 3291 2770 3770 
Q 2525 4250 2034 4250 
z
M 2034 4750 
Q 2819 4750 3233 4129 
Q 3647 3509 3647 2328 
Q 3647 1150 3233 529 
Q 2819 -91 2034 -91 
Q 1250 -91 836 529 
Q 422 1150 422 2328 
Q 422 3509 836 4129 
Q 1250 4750 2034 4750 
z
" transform="scale(0.015625)"/>
       </defs>
       <use xlink:href="#DejaVuSans-2212"/>
       <use xlink:href="#DejaVuSans-31" transform="translate(83.789062 0)"/>
       <use xlink:href="#DejaVuSans-30" transform="translate(147.412109 0)"/>
      </g>
     </g>
    </g>
    <g id="xtick_2">
     <g id="line2d_3">
      <path d="M 225.178379 609.581803 
L 225.178379 263.058197 
" clip-path="url(#pfe191e6248)" style="fill: none; stroke: #b0b0b0; stroke-opacity: 0.25; stroke-width: 0.8; stroke-linecap: square"/>
     </g>
     <g id="line2d_4">
      <g>
       <use xlink:href="#m375c827ded" x="225.178379" y="609.581803" style="stroke: #000000; stroke-width: 0.8"/>
      </g>
     </g>
     <g id="text_2">
      <!-- 0 -->
      <g transform="translate(221.997129 624.18024) scale(0.1 -0.1)">
       <use xlink:href="#DejaVuSans-30"/>
      </g>
     </g>
    </g>
    <g id="xtick_3">
     <g id="line2d_5">
      <path d="M 311.920394 609.581803 
L 311.920394 263.058197 
" clip-path="url(#pfe191e6248)" style="fill: none; stroke: #b0b0b0; stroke-opacity: 0.25; stroke-width: 0.8; stroke-linecap: square"/>
     </g>
     <g id="line2d_6">
      <g>
       <use xlink:href="#m375c827ded" x="311.920394" y="609.581803" style="stroke: #000000; stroke-width: 0.8"/>
      </g>
     </g>
     <g id="text_3">
      <!-- 10 -->
      <g transform="translate(305.557894 624.18024) scale(0.1 -0.1)">
       <use xlink:href="#DejaVuSans-31"/>
       <use xlink:href="#DejaVuSans-30" transform="translate(63.623047 0)"/>
      </g>
     </g>
    </g>
    <g id="xtick_4">
     <g id="line2d_7">
      <path d="M 398.66241 609.581803 
L 398.66241 263.058197 
" clip-path="url(#pfe191e6248)" style="fill: none; stroke: #b0b0b0; stroke-opacity: 0.25; stroke-width: 0.8; stroke-linecap: square"/>
     </g>
     <g id="line2d_8">
      <g>
       <use xlink:href="#m375c827ded" x="398.66241" y="609.581803" style="stroke: #000000; stroke-width: 0.8"/>
      </g>
     </g>
     <g id="text_4">
      <!-- 20 -->
      <g transform="translate(392.29991 624.18024) scale(0.1 -0.1)">
       <defs>
        <path id="DejaVuSans-32" d="M 1228 531 
L 3431 531 
L 3431 0 
L 469 0 
L 469 531 
Q 828 903 1448 1529 
Q 2069 2156 2228 2338 
Q 2531 2678 2651 2914 
Q 2772 3150 2772 3378 
Q 2772 3750 2511 3984 
Q 2250 4219 1831 4219 
Q 1534 4219 1204 4116 
Q 875 4013 500 3803 
L 500 4441 
Q 881 4594 1212 4672 
Q 1544 4750 1819 4750 
Q 2544 4750 2975 4387 
Q 3406 4025 3406 3419 
Q 3406 3131 3298 2873 
Q 3191 2616 2906 2266 
Q 2828 2175 2409 1742 
Q 1991 1309 1228 531 
z
" transform="scale(0.015625)"/>
       </defs>
       <use xlink:href="#DejaVuSans-32"/>
       <use xlink:href="#DejaVuSans-30" transform="translate(63.623047 0)"/>
      </g>
     </g>
    </g>
    <g id="xtick_5">
     <g id="line2d_9">
      <path d="M 485.404425 609.581803 
L 485.404425 263.058197 
" clip-path="url(#pfe191e6248)" style="fill: none; stroke: #b0b0b0; stroke-opacity: 0.25; stroke-width: 0.8; stroke-linecap: square"/>
     </g>
     <g id="line2d_10">
      <g>
       <use xlink:href="#m375c827ded" x="485.404425" y="609.581803" style="stroke: #000000; stroke-width: 0.8"/>
      </g>
     </g>
     <g id="text_5">
      <!-- 30 -->
      <g transform="translate(479.041925 624.18024) scale(0.1 -0.1)">
       <defs>
        <path id="DejaVuSans-33" d="M 2597 2516 
Q 3050 2419 3304 2112 
Q 3559 1806 3559 1356 
Q 3559 666 3084 287 
Q 2609 -91 1734 -91 
Q 1441 -91 1130 -33 
Q 819 25 488 141 
L 488 750 
Q 750 597 1062 519 
Q 1375 441 1716 441 
Q 2309 441 2620 675 
Q 2931 909 2931 1356 
Q 2931 1769 2642 2001 
Q 2353 2234 1838 2234 
L 1294 2234 
L 1294 2753 
L 1863 2753 
Q 2328 2753 2575 2939 
Q 2822 3125 2822 3475 
Q 2822 3834 2567 4026 
Q 2313 4219 1838 4219 
Q 1578 4219 1281 4162 
Q 984 4106 628 3988 
L 628 4550 
Q 988 4650 1302 4700 
Q 1616 4750 1894 4750 
Q 2613 4750 3031 4423 
Q 3450 4097 3450 3541 
Q 3450 3153 3228 2886 
Q 3006 2619 2597 2516 
z
" transform="scale(0.015625)"/>
       </defs>
       <use xlink:href="#DejaVuSans-33"/>
       <use xlink:href="#DejaVuSans-30" transform="translate(63.623047 0)"/>
      </g>
     </g>
    </g>
    <g id="xtick_6">
     <g id="line2d_11">
      <path d="M 572.14644 609.581803 
L 572.14644 263.058197 
" clip-path="url(#pfe191e6248)" style="fill: none; stroke: #b0b0b0; stroke-opacity: 0.25; stroke-width: 0.8; stroke-linecap: square"/>
     </g>
     <g id="line2d_12">
      <g>
       <use xlink:href="#m375c827ded" x="572.14644" y="609.581803" style="stroke: #000000; stroke-width: 0.8"/>
      </g>
     </g>
     <g id="text_6">
      <!-- 40 -->
      <g transform="translate(565.78394 624.18024) scale(0.1 -0.1)">
       <defs>
        <path id="DejaVuSans-34" d="M 2419 4116 
L 825 1625 
L 2419 1625 
L 2419 4116 
z
M 2253 4666 
L 3047 4666 
L 3047 1625 
L 3713 1625 
L 3713 1100 
L 3047 1100 
L 3047 0 
L 2419 0 
L 2419 1100 
L 313 1100 
L 313 1709 
L 2253 4666 
z
" transform="scale(0.015625)"/>
       </defs>
       <use xlink:href="#DejaVuSans-34"/>
       <use xlink:href="#DejaVuSans-30" transform="translate(63.623047 0)"/>
      </g>
     </g>
    </g>
    <g id="xtick_7">
     <g id="line2d_13">
      <path d="M 658.888456 609.581803 
L 658.888456 263.058197 
" clip-path="url(#pfe191e6248)" style="fill: none; stroke: #b0b0b0; stroke-opacity: 0.25; stroke-width: 0.8; stroke-linecap: square"/>
     </g>
     <g id="line2d_14">
      <g>
       <use xlink:href="#m375c827ded" x="658.888456" y="609.581803" style="stroke: #000000; stroke-width: 0.8"/>
      </g>
     </g>
     <g id="text_7">
      <!-- 50 -->
      <g transform="translate(652.525956 624.18024) scale(0.1 -0.1)">
       <defs>
        <path id="DejaVuSans-35" d="M 691 4666 
L 3169 4666 
L 3169 4134 
L 1269 4134 
L 1269 2991 
Q 1406 3038 1543 3061 
Q 1681 3084 1819 3084 
Q 2600 3084 3056 2656 
Q 3513 2228 3513 1497 
Q 3513 744 3044 326 
Q 2575 -91 1722 -91 
Q 1428 -91 1123 -41 
Q 819 9 494 109 
L 494 744 
Q 775 591 1075 516 
Q 1375 441 1709 441 
Q 2250 441 2565 725 
Q 2881 1009 2881 1497 
Q 2881 1984 2565 2268 
Q 2250 2553 1709 2553 
Q 1456 2553 1204 2497 
Q 953 2441 691 2322 
L 691 4666 
z
" transform="scale(0.015625)"/>
       </defs>
       <use xlink:href="#DejaVuSans-35"/>
       <use xlink:href="#DejaVuSans-30" transform="translate(63.623047 0)"/>
      </g>
     </g>
    </g>
    <g id="xtick_8">
     <g id="line2d_15">
      <path d="M 745.630471 609.581803 
L 745.630471 263.058197 
" clip-path="url(#pfe191e6248)" style="fill: none; stroke: #b0b0b0; stroke-opacity: 0.25; stroke-width: 0.8; stroke-linecap: square"/>
     </g>
     <g id="line2d_16">
      <g>
       <use xlink:href="#m375c827ded" x="745.630471" y="609.581803" style="stroke: #000000; stroke-width: 0.8"/>
      </g>
     </g>
     <g id="text_8">
      <!-- 60 -->
      <g transform="translate(739.267971 624.18024) scale(0.1 -0.1)">
       <defs>
        <path id="DejaVuSans-36" d="M 2113 2584 
Q 1688 2584 1439 2293 
Q 1191 2003 1191 1497 
Q 1191 994 1439 701 
Q 1688 409 2113 409 
Q 2538 409 2786 701 
Q 3034 994 3034 1497 
Q 3034 2003 2786 2293 
Q 2538 2584 2113 2584 
z
M 3366 4563 
L 3366 3988 
Q 3128 4100 2886 4159 
Q 2644 4219 2406 4219 
Q 1781 4219 1451 3797 
Q 1122 3375 1075 2522 
Q 1259 2794 1537 2939 
Q 1816 3084 2150 3084 
Q 2853 3084 3261 2657 
Q 3669 2231 3669 1497 
Q 3669 778 3244 343 
Q 2819 -91 2113 -91 
Q 1303 -91 875 529 
Q 447 1150 447 2328 
Q 447 3434 972 4092 
Q 1497 4750 2381 4750 
Q 2619 4750 2861 4703 
Q 3103 4656 3366 4563 
z
" transform="scale(0.015625)"/>
       </defs>
       <use xlink:href="#DejaVuSans-36"/>
       <use xlink:href="#DejaVuSans-30" transform="translate(63.623047 0)"/>
      </g>
     </g>
    </g>
    <g id="text_9">
     <!-- Z [mm] -->
     <g transform="translate(424.14375 637.858365) scale(0.1 -0.1)">
      <defs>
       <path id="DejaVuSans-5a" d="M 359 4666 
L 4025 4666 
L 4025 4184 
L 1075 531 
L 4097 531 
L 4097 0 
L 288 0 
L 288 481 
L 3238 4134 
L 359 4134 
L 359 4666 
z
" transform="scale(0.015625)"/>
       <path id="DejaVuSans-20" transform="scale(0.015625)"/>
       <path id="DejaVuSans-5b" d="M 550 4863 
L 1875 4863 
L 1875 4416 
L 1125 4416 
L 1125 -397 
L 1875 -397 
L 1875 -844 
L 550 -844 
L 550 4863 
z
" transform="scale(0.015625)"/>
       <path id="DejaVuSans-6d" d="M 3328 2828 
Q 3544 3216 3844 3400 
Q 4144 3584 4550 3584 
Q 5097 3584 5394 3201 
Q 5691 2819 5691 2113 
L 5691 0 
L 5113 0 
L 5113 2094 
Q 5113 2597 4934 2840 
Q 4756 3084 4391 3084 
Q 3944 3084 3684 2787 
Q 3425 2491 3425 1978 
L 3425 0 
L 2847 0 
L 2847 2094 
Q 2847 2600 2669 2842 
Q 2491 3084 2119 3084 
Q 1678 3084 1418 2786 
Q 1159 2488 1159 1978 
L 1159 0 
L 581 0 
L 581 3500 
L 1159 3500 
L 1159 2956 
Q 1356 3278 1631 3431 
Q 1906 3584 2284 3584 
Q 2666 3584 2933 3390 
Q 3200 3197 3328 2828 
z
" transform="scale(0.015625)"/>
       <path id="DejaVuSans-5d" d="M 1947 4863 
L 1947 -844 
L 622 -844 
L 622 -397 
L 1369 -397 
L 1369 4416 
L 622 4416 
L 622 4863 
L 1947 4863 
z
" transform="scale(0.015625)"/>
      </defs>
      <use xlink:href="#DejaVuSans-5a"/>
      <use xlink:href="#DejaVuSans-20" transform="translate(68.505859 0)"/>
      <use xlink:href="#DejaVuSans-5b" transform="translate(100.292969 0)"/>
      <use xlink:href="#DejaVuSans-6d" transform="translate(139.306641 0)"/>
      <use xlink:href="#DejaVuSans-6d" transform="translate(236.71875 0)"/>
      <use xlink:href="#DejaVuSans-5d" transform="translate(334.130859 0)"/>
     </g>
    </g>
   </g>
   <g id="matplotlib.axis_2">
    <g id="ytick_1">
     <g id="line2d_17">
      <path d="M 108 566.433023 
L 777.6 566.433023 
" clip-path="url(#pfe191e6248)" style="fill: none; stroke: #b0b0b0; stroke-opacity: 0.25; stroke-width: 0.8; stroke-linecap: square"/>
     </g>
     <g id="line2d_18">
      <defs>
       <path id="m4ed83737cb" d="M 0 0 
L -3.5 0 
" style="stroke: #000000; stroke-width: 0.8"/>
      </defs>
      <g>
       <use xlink:href="#m4ed83737cb" x="108" y="566.433023" style="stroke: #000000; stroke-width: 0.8"/>
      </g>
     </g>
     <g id="text_10">
      <!-- −15 -->
      <g transform="translate(79.895313 570.232242) scale(0.1 -0.1)">
       <use xlink:href="#DejaVuSans-2212"/>
       <use xlink:href="#DejaVuSans-31" transform="translate(83.789062 0)"/>
       <use xlink:href="#DejaVuSans-35" transform="translate(147.412109 0)"/>
      </g>
     </g>
    </g>
    <g id="ytick_2">
     <g id="line2d_19">
      <path d="M 108 523.062015 
L 777.6 523.062015 
" clip-path="url(#pfe191e6248)" style="fill: none; stroke: #b0b0b0; stroke-opacity: 0.25; stroke-width: 0.8; stroke-linecap: square"/>
     </g>
     <g id="line2d_20">
      <g>
       <use xlink:href="#m4ed83737cb" x="108" y="523.062015" style="stroke: #000000; stroke-width: 0.8"/>
      </g>
     </g>
     <g id="text_11">
      <!-- −10 -->
      <g transform="translate(79.895313 526.861234) scale(0.1 -0.1)">
       <use xlink:href="#DejaVuSans-2212"/>
       <use xlink:href="#DejaVuSans-31" transform="translate(83.789062 0)"/>
       <use xlink:href="#DejaVuSans-30" transform="translate(147.412109 0)"/>
      </g>
     </g>
    </g>
    <g id="ytick_3">
     <g id="line2d_21">
      <path d="M 108 479.691008 
L 777.6 479.691008 
" clip-path="url(#pfe191e6248)" style="fill: none; stroke: #b0b0b0; stroke-opacity: 0.25; stroke-width: 0.8; stroke-linecap: square"/>
     </g>
     <g id="line2d_22">
      <g>
       <use xlink:href="#m4ed83737cb" x="108" y="479.691008" style="stroke: #000000; stroke-width: 0.8"/>
      </g>
     </g>
     <g id="text_12">
      <!-- −5 -->
      <g transform="translate(86.257812 483.490226) scale(0.1 -0.1)">
       <use xlink:href="#DejaVuSans-2212"/>
       <use xlink:href="#DejaVuSans-35" transform="translate(83.789062 0)"/>
      </g>
     </g>
    </g>
    <g id="ytick_4">
     <g id="line2d_23">
      <path d="M 108 436.32 
L 777.6 436.32 
" clip-path="url(#pfe191e6248)" style="fill: none; stroke: #b0b0b0; stroke-opacity: 0.25; stroke-width: 0.8; stroke-linecap: square"/>
     </g>
     <g id="line2d_24">
      <g>
       <use xlink:href="#m4ed83737cb" x="108" y="436.32" style="stroke: #000000; stroke-width: 0.8"/>
      </g>
     </g>
     <g id="text_13">
      <!-- 0 -->
      <g transform="translate(94.6375 440.119219) scale(0.1 -0.1)">
       <use xlink:href="#DejaVuSans-30"/>
      </g>
     </g>
    </g>
    <g id="ytick_5">
     <g id="line2d_25">
      <path d="M 108 392.948992 
L 777.6 392.948992 
" clip-path="url(#pfe191e6248)" style="fill: none; stroke: #b0b0b0; stroke-opacity: 0.25; stroke-width: 0.8; stroke-linecap: square"/>
     </g>
     <g id="line2d_26">
      <g>
       <use xlink:href="#m4ed83737cb" x="108" y="392.948992" style="stroke: #000000; stroke-width: 0.8"/>
      </g>
     </g>
     <g id="text_14">
      <!-- 5 -->
      <g transform="translate(94.6375 396.748211) scale(0.1 -0.1)">
       <use xlink:href="#DejaVuSans-35"/>
      </g>
     </g>
    </g>
    <g id="ytick_6">
     <g id="line2d_27">
      <path d="M 108 349.577985 
L 777.6 349.577985 
" clip-path="url(#pfe191e6248)" style="fill: none; stroke: #b0b0b0; stroke-opacity: 0.25; stroke-width: 0.8; stroke-linecap: square"/>
     </g>
     <g id="line2d_28">
      <g>
       <use xlink:href="#m4ed83737cb" x="108" y="349.577985" style="stroke: #000000; stroke-width: 0.8"/>
      </g>
     </g>
     <g id="text_15">
      <!-- 10 -->
      <g transform="translate(88.275 353.377203) scale(0.1 -0.1)">
       <use xlink:href="#DejaVuSans-31"/>
       <use xlink:href="#DejaVuSans-30" transform="translate(63.623047 0)"/>
      </g>
     </g>
    </g>
    <g id="ytick_7">
     <g id="line2d_29">
      <path d="M 108 306.206977 
L 777.6 306.206977 
" clip-path="url(#pfe191e6248)" style="fill: none; stroke: #b0b0b0; stroke-opacity: 0.25; stroke-width: 0.8; stroke-linecap: square"/>
     </g>
     <g id="line2d_30">
      <g>
       <use xlink:href="#m4ed83737cb" x="108" y="306.206977" style="stroke: #000000; stroke-width: 0.8"/>
      </g>
     </g>
     <g id="text_16">
      <!-- 15 -->
      <g transform="translate(88.275 310.006196) scale(0.1 -0.1)">
       <use xlink:href="#DejaVuSans-31"/>
       <use xlink:href="#DejaVuSans-35" transform="translate(63.623047 0)"/>
      </g>
     </g>
    </g>
    <g id="text_17">
     <!-- Y [mm] -->
     <g transform="translate(73.815625 454.605156) rotate(-90) scale(0.1 -0.1)">
      <defs>
       <path id="DejaVuSans-59" d="M -13 4666 
L 666 4666 
L 1959 2747 
L 3244 4666 
L 3922 4666 
L 2272 2222 
L 2272 0 
L 1638 0 
L 1638 2222 
L -13 4666 
z
" transform="scale(0.015625)"/>
      </defs>
      <use xlink:href="#DejaVuSans-59"/>
      <use xlink:href="#DejaVuSans-20" transform="translate(61.083984 0)"/>
      <use xlink:href="#DejaVuSans-5b" transform="translate(92.871094 0)"/>
      <use xlink:href="#DejaVuSans-6d" transform="translate(131.884766 0)"/>
      <use xlink:href="#DejaVuSans-6d" transform="translate(229.296875 0)"/>
      <use xlink:href="#DejaVuSans-5d" transform="translate(326.708984 0)"/>
     </g>
    </g>
   </g>
   <g id="line2d_31">
    <path d="M 138.436364 479.691008 
L 230.169079 479.691008 
L 253.22139 477.641095 
L 302.569448 470.124356 
L 317.441633 469.780859 
L 356.415103 473.061008 
L 376.606944 473.690725 
L 747.163636 436.283606 
" clip-path="url(#pfe191e6248)" style="fill: none; stroke: #1f77b4; stroke-linecap: square"/>
   </g>
   <g id="line2d_32">
    <path d="M 138.436364 436.32 
L 225.178379 436.32 
L 253.447255 436.32 
L 305.557954 436.32 
L 314.231896 436.32 
L 355.437909 436.32 
L 381.044846 436.32 
L 747.163636 436.32 
" clip-path="url(#pfe191e6248)" style="fill: none; stroke: #1f77b4; stroke-linecap: square"/>
   </g>
   <g id="line2d_33">
    <path d="M 138.436364 392.948992 
L 230.169079 392.948992 
L 253.22139 394.998905 
L 302.569448 402.515644 
L 317.441633 402.859141 
L 356.415103 399.578992 
L 376.606944 398.949275 
L 747.163636 436.356394 
" clip-path="url(#pfe191e6248)" style="fill: none; stroke: #1f77b4; stroke-linecap: square"/>
   </g>
   <g id="line2d_34">
    <path d="M 138.436364 526.215812 
L 236.723661 501.710037 
L 252.960854 496.956889 
L 302.438488 470.85117 
L 317.057999 467.734852 
L 355.800333 458.700271 
L 379.950853 454.972848 
L 747.163636 328.803425 
" clip-path="url(#pfe191e6248)" style="fill: none; stroke: #ff7f0e; stroke-linecap: square"/>
   </g>
   <g id="line2d_35">
    <path d="M 138.436364 482.844805 
L 226.757157 460.823958 
L 253.398962 455.42712 
L 305.554472 437.478403 
L 314.232901 435.725135 
L 355.595225 421.573977 
L 379.853024 416.853995 
L 747.163636 328.588198 
" clip-path="url(#pfe191e6248)" style="fill: none; stroke: #ff7f0e; stroke-linecap: square"/>
   </g>
   <g id="line2d_36">
    <path d="M 138.436364 439.473797 
L 226.096471 417.617678 
L 253.384816 414.594072 
L 303.117471 405.750066 
L 317.354525 403.312182 
L 357.300075 385.617354 
L 371.655196 382.390881 
L 747.163636 328.234699 
" clip-path="url(#pfe191e6248)" style="fill: none; stroke: #ff7f0e; stroke-linecap: square"/>
   </g>
   <g id="line2d_37">
    <path d="M 138.436364 547.608145 
L 240.204503 510.567571 
L 252.81043 505.701769 
L 302.865837 468.416733 
L 316.469953 464.299633 
L 355.549691 448.750286 
L 380.9206 442.615651 
L 747.163636 279.152363 
" clip-path="url(#pfe191e6248)" style="fill: none; stroke: #2ca02c; stroke-linecap: square"/>
   </g>
   <g id="line2d_38">
    <path d="M 138.436364 504.237137 
L 228.44285 471.477455 
L 253.344746 464.157515 
L 305.557026 436.918096 
L 314.242927 434.34935 
L 355.85496 412.312701 
L 378.131483 405.967855 
L 747.163636 279.004456 
" clip-path="url(#pfe191e6248)" style="fill: none; stroke: #2ca02c; stroke-linecap: square"/>
   </g>
   <g id="line2d_39">
    <path d="M 138.436364 460.866129 
L 225.309423 429.246922 
L 253.425953 423.630006 
L 303.318585 407.029052 
L 317.346309 403.355248 
L 358.037368 376.431017 
L 368.055089 373.259058 
L 747.163636 278.80927 
" clip-path="url(#pfe191e6248)" style="fill: none; stroke: #2ca02c; stroke-linecap: square"/>
   </g>
   <g id="line2d_40">
    <path d="M 747.163636 593.83073 
L 747.163636 278.80927 
L 747.163636 278.80927 
" clip-path="url(#pfe191e6248)" style="fill: none; stroke: #808080; stroke-width: 1.5; stroke-linecap: square"/>
   </g>
   <g id="patch_6">
    <path d="M 108 609.581803 
L 108 263.058197 
" style="fill: none; stroke: #000000; stroke-width: 0.8; stroke-linejoin: miter; stroke-linecap: square"/>
   </g>
   <g id="patch_7">
    <path d="M 777.6 609.581803 
L 777.6 263.058197 
" style="fill: none; stroke: #000000; stroke-width: 0.8; stroke-linejoin: miter; stroke-linecap: square"/>
   </g>
   <g id="patch_8">
    <path d="M 108 609.581803 
L 777.6 609.581803 
" style="fill: none; stroke: #000000; stroke-width: 0.8; stroke-linejoin: miter; stroke-linecap: square"/>
   </g>
   <g id="patch_9">
    <path d="M 108 263.058197 
L 777.6 263.058197 
" style="fill: none; stroke: #000000; stroke-width: 0.8; stroke-linejoin: miter; stroke-linecap: square"/>
   </g>
  </g>
 </g>
 <defs>
  <clipPath id="pfe191e6248">
   <rect x="108" y="263.058197" width="669.6" height="346.523605"/>
  </clipPath>
 </defs>
</svg>
