<?xml version="1.0" encoding="utf-8" standalone="no"?>
<!DOCTYPE svg PUBLIC "-//W3C//DTD SVG 1.1//EN"
  "http://www.w3.org/Graphics/SVG/1.1/DTD/svg11.dtd">
<svg xmlns:xlink="http://www.w3.org/1999/xlink" width="720pt" height="288pt" viewBox="0 0 720 288" xmlns="http://www.w3.org/2000/svg" version="1.1">
 <metadata>
  <rdf:RDF xmlns:dc="http://purl.org/dc/elements/1.1/" xmlns:cc="http://creativecommons.org/ns#" xmlns:rdf="http://www.w3.org/1999/02/22-rdf-syntax-ns#">
   <cc:Work>
    <dc:type rdf:resource="http://purl.org/dc/dcmitype/StillImage"/>
    <dc:date>2025-09-09T17:39:26.329432</dc:date>
    <dc:format>image/svg+xml</dc:format>
    <dc:creator>
     <cc:Agent>
      <dc:title>Matplotlib v3.10.1, https://matplotlib.org/</dc:title>
     </cc:Agent>
    </dc:creator>
   </cc:Work>
  </rdf:RDF>
 </metadata>
 <defs>
  <style type="text/css">*{stroke-linejoin: round; stroke-linecap: butt}</style>
 </defs>
 <g id="figure_1">
  <g id="patch_1">
   <path d="M 0 288 
L 720 288 
L 720 0 
L 0 0 
z
" style="fill: #ffffff"/>
  </g>
  <g id="axes_1">
   <g id="patch_2">
    <path d="M 154.742596 256.32 
L 583.257404 256.32 
L 583.257404 34.56 
L 154.742596 34.56 
z
" style="fill: #f8f9fa"/>
   </g>
   <g id="patch_3">
    <path d="M 239.347714 192.955209 
L 239.034833 192.206938 
L 238.727763 191.458667 
L 238.426456 190.710396 
L 238.130866 189.962125 
L 237.84095 189.213854 
L 237.556665 188.465583 
L 237.277967 187.717312 
L 237.004817 186.969041 
L 236.737175 186.22077 
L 236.475003 185.472499 
L 236.218263 184.724228 
L 235.96692 183.975957 
L 235.720939 183.227686 
L 235.480285 182.479415 
L 235.244926 181.731144 
L 235.01483 180.982873 
L 234.789965 180.234602 
L 234.570301 179.486331 
L 234.35581 178.73806 
L 234.146464 177.989789 
L 233.942233 177.241518 
L 233.743094 176.493247 
L 233.549018 175.744976 
L 233.359983 174.996705 
L 233.175963 174.248434 
L 232.996935 173.500163 
L 232.822877 172.751892 
L 232.653767 172.003621 
L 232.489584 171.25535 
L 232.330308 170.507079 
L 232.17592 169.758808 
L 232.026399 169.010537 
L 231.881729 168.262266 
L 231.741891 167.513995 
L 231.606869 166.765724 
L 231.476646 166.017453 
L 231.351207 165.269182 
L 231.230538 164.520911 
L 231.114623 163.77264 
L 231.00345 163.024369 
L 230.897004 162.276098 
L 230.795274 161.527827 
L 230.698248 160.779556 
L 230.605914 160.031285 
L 230.518262 159.283014 
L 230.435282 158.534743 
L 230.356963 157.786472 
L 230.283298 157.038201 
L 230.214277 156.28993 
L 230.149893 155.541659 
L 230.090138 154.793388 
L 230.035006 154.045117 
L 229.98449 153.296846 
L 229.938584 152.548575 
L 229.897284 151.800304 
L 229.860585 151.052033 
L 229.828481 150.303762 
L 229.800971 149.555491 
L 229.778051 148.80722 
L 229.759718 148.058949 
L 229.745969 147.310678 
L 229.736805 146.562407 
L 229.732223 145.814136 
L 229.732223 145.065864 
L 229.736805 144.317593 
L 229.745969 143.569322 
L 229.759718 142.821051 
L 229.778051 142.07278 
L 229.800971 141.324509 
L 229.828481 140.576238 
L 229.860585 139.827967 
L 229.897284 139.079696 
L 229.938584 138.331425 
L 229.98449 137.583154 
L 230.035006 136.834883 
L 230.090138 136.086612 
L 230.149893 135.338341 
L 230.214277 134.59007 
L 230.283298 133.841799 
L 230.356963 133.093528 
L 230.435282 132.345257 
L 230.518262 131.596986 
L 230.605914 130.848715 
L 230.698248 130.100444 
L 230.795274 129.352173 
L 230.897004 128.603902 
L 231.00345 127.855631 
L 231.114623 127.10736 
L 231.230538 126.359089 
L 231.351207 125.610818 
L 231.476646 124.862547 
L 231.606869 124.114276 
L 231.741891 123.366005 
L 231.881729 122.617734 
L 232.026399 121.869463 
L 232.17592 121.121192 
L 232.330308 120.372921 
L 232.489584 119.62465 
L 232.653767 118.876379 
L 232.822877 118.128108 
L 232.996935 117.379837 
L 233.175963 116.631566 
L 233.359983 115.883295 
L 233.549018 115.135024 
L 233.743094 114.386753 
L 233.942233 113.638482 
L 234.146464 112.890211 
L 234.35581 112.14194 
L 234.570301 111.393669 
L 234.789965 110.645398 
L 235.01483 109.897127 
L 235.244926 109.148856 
L 235.480285 108.400585 
L 235.720939 107.652314 
L 235.96692 106.904043 
L 236.218263 106.155772 
L 236.475003 105.407501 
L 236.737175 104.65923 
L 237.004817 103.910959 
L 237.277967 103.162688 
L 237.556665 102.414417 
L 237.84095 101.666146 
L 238.130866 100.917875 
L 238.426456 100.169604 
L 238.727763 99.421333 
L 239.034833 98.673062 
L 239.347714 97.924791 
L 247.414958 97.924791 
L 247.414958 101.038693 
L 247.427694 101.737926 
L 247.440228 102.437159 
L 247.452559 103.136392 
L 247.464688 103.835625 
L 247.476615 104.534859 
L 247.48834 105.234092 
L 247.499863 105.933325 
L 247.511183 106.632558 
L 247.522301 107.331791 
L 247.533217 108.031025 
L 247.543931 108.730258 
L 247.554443 109.429491 
L 247.564752 110.128724 
L 247.574859 110.827957 
L 247.584764 111.52719 
L 247.594467 112.226424 
L 247.603968 112.925657 
L 247.613266 113.62489 
L 247.622363 114.324123 
L 247.631257 115.023356 
L 247.639949 115.72259 
L 247.648439 116.421823 
L 247.656726 117.121056 
L 247.664812 117.820289 
L 247.672695 118.519522 
L 247.680376 119.218756 
L 247.687855 119.917989 
L 247.695132 120.617222 
L 247.702207 121.316455 
L 247.709079 122.015688 
L 247.71575 122.714921 
L 247.722218 123.414155 
L 247.728484 124.113388 
L 247.734548 124.812621 
L 247.74041 125.511854 
L 247.746069 126.211087 
L 247.751527 126.910321 
L 247.756782 127.609554 
L 247.761835 128.308787 
L 247.766686 129.00802 
L 247.771335 129.707253 
L 247.775782 130.406487 
L 247.780027 131.10572 
L 247.784069 131.804953 
L 247.78791 132.504186 
L 247.791548 133.203419 
L 247.794984 133.902652 
L 247.798218 134.601886 
L 247.80125 135.301119 
L 247.80408 136.000352 
L 247.806707 136.699585 
L 247.809133 137.398818 
L 247.811356 138.098052 
L 247.813377 138.797285 
L 247.815197 139.496518 
L 247.816814 140.195751 
L 247.818228 140.894984 
L 247.819441 141.594217 
L 247.820452 142.293451 
L 247.82126 142.992684 
L 247.821867 143.691917 
L 247.822271 144.39115 
L 247.822473 145.090383 
L 247.822473 145.789617 
L 247.822271 146.48885 
L 247.821867 147.188083 
L 247.82126 147.887316 
L 247.820452 148.586549 
L 247.819441 149.285783 
L 247.818228 149.985016 
L 247.816814 150.684249 
L 247.815197 151.383482 
L 247.813377 152.082715 
L 247.811356 152.781948 
L 247.809133 153.481182 
L 247.806707 154.180415 
L 247.80408 154.879648 
L 247.80125 155.578881 
L 247.798218 156.278114 
L 247.794984 156.977348 
L 247.791548 157.676581 
L 247.78791 158.375814 
L 247.784069 159.075047 
L 247.780027 159.77428 
L 247.775782 160.473513 
L 247.771335 161.172747 
L 247.766686 161.87198 
L 247.761835 162.571213 
L 247.756782 163.270446 
L 247.751527 163.969679 
L 247.746069 164.668913 
L 247.74041 165.368146 
L 247.734548 166.067379 
L 247.728484 166.766612 
L 247.722218 167.465845 
L 247.71575 168.165079 
L 247.709079 168.864312 
L 247.702207 169.563545 
L 247.695132 170.262778 
L 247.687855 170.962011 
L 247.680376 171.661244 
L 247.672695 172.360478 
L 247.664812 173.059711 
L 247.656726 173.758944 
L 247.648439 174.458177 
L 247.639949 175.15741 
L 247.631257 175.856644 
L 247.622363 176.555877 
L 247.613266 177.25511 
L 247.603968 177.954343 
L 247.594467 178.653576 
L 247.584764 179.35281 
L 247.574859 180.052043 
L 247.564752 180.751276 
L 247.554443 181.450509 
L 247.543931 182.149742 
L 247.533217 182.848975 
L 247.522301 183.548209 
L 247.511183 184.247442 
L 247.499863 184.946675 
L 247.48834 185.645908 
L 247.476615 186.345141 
L 247.464688 187.044375 
L 247.452559 187.743608 
L 247.440228 188.442841 
L 247.427694 189.142074 
L 247.414958 189.841307 
L 247.414958 192.955209 
z
" clip-path="url(#pf8a8bc3a06)" style="fill: #cccccc; fill-opacity: 0.6; stroke: #808080; stroke-linejoin: miter"/>
   </g>
   <g id="patch_4">
    <path d="M 279.174752 167.538444 
L 279.23763 167.190437 
L 279.299478 166.84243 
L 279.360298 166.494423 
L 279.420092 166.146416 
L 279.47886 165.798409 
L 279.536604 165.450402 
L 279.593326 165.102395 
L 279.649027 164.754388 
L 279.703709 164.406381 
L 279.757373 164.058374 
L 279.81002 163.710367 
L 279.861651 163.36236 
L 279.912269 163.014353 
L 279.961873 162.666346 
L 280.010466 162.318339 
L 280.058049 161.970332 
L 280.104622 161.622325 
L 280.150187 161.274318 
L 280.194745 160.926311 
L 280.238298 160.578304 
L 280.280845 160.230297 
L 280.322389 159.88229 
L 280.36293 159.534283 
L 280.402469 159.186276 
L 280.441008 158.838269 
L 280.478546 158.490262 
L 280.515086 158.142255 
L 280.550628 157.794248 
L 280.585173 157.446241 
L 280.618721 157.098234 
L 280.651274 156.750227 
L 280.682832 156.40222 
L 280.713396 156.054213 
L 280.742967 155.706206 
L 280.771546 155.358199 
L 280.799133 155.010192 
L 280.825729 154.662185 
L 280.851334 154.314178 
L 280.875949 153.966171 
L 280.899576 153.618164 
L 280.922213 153.270157 
L 280.943862 152.92215 
L 280.964524 152.574143 
L 280.984199 152.226136 
L 281.002887 151.878129 
L 281.020589 151.530122 
L 281.037305 151.182115 
L 281.053035 150.834108 
L 281.067781 150.486101 
L 281.081542 150.138094 
L 281.094319 149.790087 
L 281.106111 149.44208 
L 281.11692 149.094073 
L 281.126746 148.746066 
L 281.135588 148.398059 
L 281.143448 148.050052 
L 281.150324 147.702045 
L 281.156218 147.354038 
L 281.161129 147.006031 
L 281.165058 146.658024 
L 281.168005 146.310017 
L 281.169969 145.96201 
L 281.170951 145.614003 
L 281.170951 145.265997 
L 281.169969 144.91799 
L 281.168005 144.569983 
L 281.165058 144.221976 
L 281.161129 143.873969 
L 281.156218 143.525962 
L 281.150324 143.177955 
L 281.143448 142.829948 
L 281.135588 142.481941 
L 281.126746 142.133934 
L 281.11692 141.785927 
L 281.106111 141.43792 
L 281.094319 141.089913 
L 281.081542 140.741906 
L 281.067781 140.393899 
L 281.053035 140.045892 
L 281.037305 139.697885 
L 281.020589 139.349878 
L 281.002887 139.001871 
L 280.984199 138.653864 
L 280.964524 138.305857 
L 280.943862 137.95785 
L 280.922213 137.609843 
L 280.899576 137.261836 
L 280.875949 136.913829 
L 280.851334 136.565822 
L 280.825729 136.217815 
L 280.799133 135.869808 
L 280.771546 135.521801 
L 280.742967 135.173794 
L 280.713396 134.825787 
L 280.682832 134.47778 
L 280.651274 134.129773 
L 280.618721 133.781766 
L 280.585173 133.433759 
L 280.550628 133.085752 
L 280.515086 132.737745 
L 280.478546 132.389738 
L 280.441008 132.041731 
L 280.402469 131.693724 
L 280.36293 131.345717 
L 280.322389 130.99771 
L 280.280845 130.649703 
L 280.238298 130.301696 
L 280.194745 129.953689 
L 280.150187 129.605682 
L 280.104622 129.257675 
L 280.058049 128.909668 
L 280.010466 128.561661 
L 279.961873 128.213654 
L 279.912269 127.865647 
L 279.861651 127.51764 
L 279.81002 127.169633 
L 279.757373 126.821626 
L 279.703709 126.473619 
L 279.649027 126.125612 
L 279.593326 125.777605 
L 279.536604 125.429598 
L 279.47886 125.081591 
L 279.420092 124.733584 
L 279.360298 124.385577 
L 279.299478 124.03757 
L 279.23763 123.689563 
L 279.174752 123.341556 
L 288.77611 123.341556 
L 288.77611 124.026509 
L 288.711347 124.363729 
L 288.647648 124.700949 
L 288.585013 125.03817 
L 288.523439 125.37539 
L 288.462924 125.71261 
L 288.403467 126.049831 
L 288.345067 126.387051 
L 288.287721 126.724271 
L 288.231428 127.061492 
L 288.176186 127.398712 
L 288.121993 127.735932 
L 288.068849 128.073153 
L 288.016752 128.410373 
L 287.965699 128.747593 
L 287.915691 129.084814 
L 287.866725 129.422034 
L 287.818799 129.759254 
L 287.771913 130.096475 
L 287.726066 130.433695 
L 287.681256 130.770915 
L 287.637481 131.108136 
L 287.594741 131.445356 
L 287.553034 131.782576 
L 287.51236 132.119797 
L 287.472717 132.457017 
L 287.434103 132.794237 
L 287.396519 133.131458 
L 287.359963 133.468678 
L 287.324433 133.805898 
L 287.289929 134.143119 
L 287.256451 134.480339 
L 287.223996 134.817559 
L 287.192564 135.15478 
L 287.162155 135.492 
L 287.132768 135.82922 
L 287.1044 136.166441 
L 287.077053 136.503661 
L 287.050725 136.840881 
L 287.025416 137.178102 
L 287.001124 137.515322 
L 286.977849 137.852542 
L 286.955591 138.189763 
L 286.934348 138.526983 
L 286.914121 138.864203 
L 286.894909 139.201424 
L 286.876711 139.538644 
L 286.859526 139.875864 
L 286.843355 140.213085 
L 286.828196 140.550305 
L 286.81405 140.887525 
L 286.800916 141.224746 
L 286.788794 141.561966 
L 286.777683 141.899186 
L 286.767583 142.236407 
L 286.758494 142.573627 
L 286.750415 142.910847 
L 286.743347 143.248068 
L 286.737289 143.585288 
L 286.73224 143.922508 
L 286.728202 144.259729 
L 286.725173 144.596949 
L 286.723154 144.934169 
L 286.722145 145.27139 
L 286.722145 145.60861 
L 286.723154 145.945831 
L 286.725173 146.283051 
L 286.728202 146.620271 
L 286.73224 146.957492 
L 286.737289 147.294712 
L 286.743347 147.631932 
L 286.750415 147.969153 
L 286.758494 148.306373 
L 286.767583 148.643593 
L 286.777683 148.980814 
L 286.788794 149.318034 
L 286.800916 149.655254 
L 286.81405 149.992475 
L 286.828196 150.329695 
L 286.843355 150.666915 
L 286.859526 151.004136 
L 286.876711 151.341356 
L 286.894909 151.678576 
L 286.914121 152.015797 
L 286.934348 152.353017 
L 286.955591 152.690237 
L 286.977849 153.027458 
L 287.001124 153.364678 
L 287.025416 153.701898 
L 287.050725 154.039119 
L 287.077053 154.376339 
L 287.1044 154.713559 
L 287.132768 155.05078 
L 287.162155 155.388 
L 287.192564 155.72522 
L 287.223996 156.062441 
L 287.256451 156.399661 
L 287.289929 156.736881 
L 287.324433 157.074102 
L 287.359963 157.411322 
L 287.396519 157.748542 
L 287.434103 158.085763 
L 287.472717 158.422983 
L 287.51236 158.760203 
L 287.553034 159.097424 
L 287.594741 159.434644 
L 287.637481 159.771864 
L 287.681256 160.109085 
L 287.726066 160.446305 
L 287.771913 160.783525 
L 287.818799 161.120746 
L 287.866725 161.457966 
L 287.915691 161.795186 
L 287.965699 162.132407 
L 288.016752 162.469627 
L 288.068849 162.806847 
L 288.121993 163.144068 
L 288.176186 163.481288 
L 288.231428 163.818508 
L 288.287721 164.155729 
L 288.345067 164.492949 
L 288.403467 164.830169 
L 288.462924 165.16739 
L 288.523439 165.50461 
L 288.585013 165.84183 
L 288.647648 166.179051 
L 288.711347 166.516271 
L 288.77611 166.853491 
L 288.77611 167.538444 
z
" clip-path="url(#pf8a8bc3a06)" style="fill: #cccccc; fill-opacity: 0.6; stroke: #808080; stroke-linejoin: miter"/>
   </g>
   <g id="patch_5">
    <path d="M 314.755611 185.796253 
L 314.755611 183.766338 
L 314.703533 183.162774 
L 314.652288 182.55921 
L 314.601876 181.955645 
L 314.552296 181.352081 
L 314.503547 180.748516 
L 314.45563 180.144952 
L 314.408544 179.541388 
L 314.362289 178.937823 
L 314.316865 178.334259 
L 314.272271 177.730694 
L 314.228507 177.12713 
L 314.185574 176.523566 
L 314.14347 175.920001 
L 314.102195 175.316437 
L 314.06175 174.712873 
L 314.022134 174.109308 
L 313.983346 173.505744 
L 313.945387 172.902179 
L 313.908257 172.298615 
L 313.871954 171.695051 
L 313.83648 171.091486 
L 313.801833 170.487922 
L 313.768014 169.884358 
L 313.735022 169.280793 
L 313.702858 168.677229 
L 313.67152 168.073664 
L 313.641009 167.4701 
L 313.611325 166.866536 
L 313.582467 166.262971 
L 313.554436 165.659407 
L 313.52723 165.055842 
L 313.500851 164.452278 
L 313.475298 163.848714 
L 313.45057 163.245149 
L 313.426668 162.641585 
L 313.403591 162.038021 
L 313.38134 161.434456 
L 313.359914 160.830892 
L 313.339312 160.227327 
L 313.319536 159.623763 
L 313.300585 159.020199 
L 313.282458 158.416634 
L 313.265156 157.81307 
L 313.248679 157.209505 
L 313.233026 156.605941 
L 313.218197 156.002377 
L 313.204193 155.398812 
L 313.191013 154.795248 
L 313.178657 154.191684 
L 313.167124 153.588119 
L 313.156416 152.984555 
L 313.146532 152.38099 
L 313.137472 151.777426 
L 313.129236 151.173862 
L 313.121823 150.570297 
L 313.115234 149.966733 
L 313.109469 149.363168 
L 313.104527 148.759604 
L 313.100409 148.15604 
L 313.097115 147.552475 
L 313.094644 146.948911 
L 313.092997 146.345347 
L 313.092174 145.741782 
L 313.092174 145.138218 
L 313.092997 144.534653 
L 313.094644 143.931089 
L 313.097115 143.327525 
L 313.100409 142.72396 
L 313.104527 142.120396 
L 313.109469 141.516832 
L 313.115234 140.913267 
L 313.121823 140.309703 
L 313.129236 139.706138 
L 313.137472 139.102574 
L 313.146532 138.49901 
L 313.156416 137.895445 
L 313.167124 137.291881 
L 313.178657 136.688316 
L 313.191013 136.084752 
L 313.204193 135.481188 
L 313.218197 134.877623 
L 313.233026 134.274059 
L 313.248679 133.670495 
L 313.265156 133.06693 
L 313.282458 132.463366 
L 313.300585 131.859801 
L 313.319536 131.256237 
L 313.339312 130.652673 
L 313.359914 130.049108 
L 313.38134 129.445544 
L 313.403591 128.841979 
L 313.426668 128.238415 
L 313.45057 127.634851 
L 313.475298 127.031286 
L 313.500851 126.427722 
L 313.52723 125.824158 
L 313.554436 125.220593 
L 313.582467 124.617029 
L 313.611325 124.013464 
L 313.641009 123.4099 
L 313.67152 122.806336 
L 313.702858 122.202771 
L 313.735022 121.599207 
L 313.768014 120.995642 
L 313.801833 120.392078 
L 313.83648 119.788514 
L 313.871954 119.184949 
L 313.908257 118.581385 
L 313.945387 117.977821 
L 313.983346 117.374256 
L 314.022134 116.770692 
L 314.06175 116.167127 
L 314.102195 115.563563 
L 314.14347 114.959999 
L 314.185574 114.356434 
L 314.228507 113.75287 
L 314.272271 113.149306 
L 314.316865 112.545741 
L 314.362289 111.942177 
L 314.408544 111.338612 
L 314.45563 110.735048 
L 314.503547 110.131484 
L 314.552296 109.527919 
L 314.601876 108.924355 
L 314.652288 108.32079 
L 314.703533 107.717226 
L 314.755611 107.113662 
L 314.755611 105.083747 
L 321.166515 105.083747 
L 321.437396 105.719278 
L 321.703217 106.35481 
L 321.964022 106.990341 
L 322.219852 107.625873 
L 322.470747 108.261404 
L 322.716746 108.896936 
L 322.957887 109.532467 
L 323.194207 110.167999 
L 323.425741 110.803531 
L 323.652523 111.439062 
L 323.874587 112.074594 
L 324.091966 112.710125 
L 324.304692 113.345657 
L 324.512794 113.981188 
L 324.716302 114.61672 
L 324.915245 115.252251 
L 325.109652 115.887783 
L 325.299548 116.523314 
L 325.484961 117.158846 
L 325.665915 117.794378 
L 325.842436 118.429909 
L 326.014546 119.065441 
L 326.182269 119.700972 
L 326.345628 120.336504 
L 326.504643 120.972035 
L 326.659336 121.607567 
L 326.809728 122.243098 
L 326.955836 122.87863 
L 327.097681 123.514162 
L 327.23528 124.149693 
L 327.368651 124.785225 
L 327.497811 125.420756 
L 327.622776 126.056288 
L 327.743561 126.691819 
L 327.860183 127.327351 
L 327.972655 127.962882 
L 328.080991 128.598414 
L 328.185204 129.233945 
L 328.285308 129.869477 
L 328.381314 130.505009 
L 328.473235 131.14054 
L 328.561081 131.776072 
L 328.644862 132.411603 
L 328.72459 133.047135 
L 328.800273 133.682666 
L 328.871921 134.318198 
L 328.939543 134.953729 
L 329.003145 135.589261 
L 329.062736 136.224793 
L 329.118323 136.860324 
L 329.169912 137.495856 
L 329.217509 138.131387 
L 329.261121 138.766919 
L 329.300752 139.40245 
L 329.336406 140.037982 
L 329.368089 140.673513 
L 329.395803 141.309045 
L 329.419551 141.944576 
L 329.439338 142.580108 
L 329.455164 143.21564 
L 329.467033 143.851171 
L 329.474944 144.486703 
L 329.478899 145.122234 
L 329.478899 145.757766 
L 329.474944 146.393297 
L 329.467033 147.028829 
L 329.455164 147.66436 
L 329.439338 148.299892 
L 329.419551 148.935424 
L 329.395803 149.570955 
L 329.368089 150.206487 
L 329.336406 150.842018 
L 329.300752 151.47755 
L 329.261121 152.113081 
L 329.217509 152.748613 
L 329.169912 153.384144 
L 329.118323 154.019676 
L 329.062736 154.655207 
L 329.003145 155.290739 
L 328.939543 155.926271 
L 328.871921 156.561802 
L 328.800273 157.197334 
L 328.72459 157.832865 
L 328.644862 158.468397 
L 328.561081 159.103928 
L 328.473235 159.73946 
L 328.381314 160.374991 
L 328.285308 161.010523 
L 328.185204 161.646055 
L 328.080991 162.281586 
L 327.972655 162.917118 
L 327.860183 163.552649 
L 327.743561 164.188181 
L 327.622776 164.823712 
L 327.497811 165.459244 
L 327.368651 166.094775 
L 327.23528 166.730307 
L 327.097681 167.365838 
L 326.955836 168.00137 
L 326.809728 168.636902 
L 326.659336 169.272433 
L 326.504643 169.907965 
L 326.345628 170.543496 
L 326.182269 171.179028 
L 326.014546 171.814559 
L 325.842436 172.450091 
L 325.665915 173.085622 
L 325.484961 173.721154 
L 325.299548 174.356686 
L 325.109652 174.992217 
L 324.915245 175.627749 
L 324.716302 176.26328 
L 324.512794 176.898812 
L 324.304692 177.534343 
L 324.091966 178.169875 
L 323.874587 178.805406 
L 323.652523 179.440938 
L 323.425741 180.076469 
L 323.194207 180.712001 
L 322.957887 181.347533 
L 322.716746 181.983064 
L 322.470747 182.618596 
L 322.219852 183.254127 
L 321.964022 183.889659 
L 321.703217 184.52519 
L 321.437396 185.160722 
L 321.166515 185.796253 
z
" clip-path="url(#pf8a8bc3a06)" style="fill: #cccccc; fill-opacity: 0.6; stroke: #808080; stroke-linejoin: miter"/>
   </g>
   <g id="matplotlib.axis_1">
    <g id="xtick_1">
     <g id="line2d_1">
      <path d="M 174.220542 256.32 
L 174.220542 34.56 
" clip-path="url(#pf8a8bc3a06)" style="fill: none; stroke: #b0b0b0; stroke-opacity: 0.25; stroke-width: 0.8; stroke-linecap: square"/>
     </g>
     <g id="line2d_2">
      <defs>
       <path id="m48d1d5f869" d="M 0 0 
L 0 3.5 
" style="stroke: #000000; stroke-width: 0.8"/>
      </defs>
      <g>
       <use xlink:href="#m48d1d5f869" x="174.220542" y="256.32" style="stroke: #000000; stroke-width: 0.8"/>
      </g>
     </g>
     <g id="text_1">
      <!-- −10 -->
      <g transform="translate(163.668198 270.918437) scale(0.1 -0.1)">
       <defs>
        <path id="DejaVuSans-2212" d="M 678 2272 
L 4684 2272 
L 4684 1741 
L 678 1741 
L 678 2272 
z
" transform="scale(0.015625)"/>
        <path id="DejaVuSans-31" d="M 794 531 
L 1825 531 
L 1825 4091 
L 703 3866 
L 703 4441 
L 1819 4666 
L 2450 4666 
L 2450 531 
L 3481 531 
L 3481 0 
L 794 0 
L 794 531 
z
" transform="scale(0.015625)"/>
        <path id="DejaVuSans-30" d="M 2034 4250 
Q 1547 4250 1301 3770 
Q 1056 3291 1056 2328 
Q 1056 1369 1301 889 
Q 1547 409 2034 409 
Q 2525 409 2770 889 
Q 3016 1369 3016 2328 
Q 3016 3291 2770 3770 
Q 2525 4250 2034 4250 
z
M 2034 4750 
Q 2819 4750 3233 4129 
Q 3647 3509 3647 2328 
Q 3647 1150 3233 529 
Q 2819 -91 2034 -91 
Q 1250 -91 836 529 
Q 422 1150 422 2328 
Q 422 3509 836 4129 
Q 1250 4750 2034 4750 
z
" transform="scale(0.015625)"/>
       </defs>
       <use xlink:href="#DejaVuSans-2212"/>
       <use xlink:href="#DejaVuSans-31" transform="translate(83.789062 0)"/>
       <use xlink:href="#DejaVuSans-30" transform="translate(147.412109 0)"/>
      </g>
     </g>
    </g>
    <g id="xtick_2">
     <g id="line2d_3">
      <path d="M 229.73165 256.32 
L 229.73165 34.56 
" clip-path="url(#pf8a8bc3a06)" style="fill: none; stroke: #b0b0b0; stroke-opacity: 0.25; stroke-width: 0.8; stroke-linecap: square"/>
     </g>
     <g id="line2d_4">
      <g>
       <use xlink:href="#m48d1d5f869" x="229.73165" y="256.32" style="stroke: #000000; stroke-width: 0.8"/>
      </g>
     </g>
     <g id="text_2">
      <!-- 0 -->
      <g transform="translate(226.5504 270.918437) scale(0.1 -0.1)">
       <use xlink:href="#DejaVuSans-30"/>
      </g>
     </g>
    </g>
    <g id="xtick_3">
     <g id="line2d_5">
      <path d="M 285.242758 256.32 
L 285.242758 34.56 
" clip-path="url(#pf8a8bc3a06)" style="fill: none; stroke: #b0b0b0; stroke-opacity: 0.25; stroke-width: 0.8; stroke-linecap: square"/>
     </g>
     <g id="line2d_6">
      <g>
       <use xlink:href="#m48d1d5f869" x="285.242758" y="256.32" style="stroke: #000000; stroke-width: 0.8"/>
      </g>
     </g>
     <g id="text_3">
      <!-- 10 -->
      <g transform="translate(278.880258 270.918437) scale(0.1 -0.1)">
       <use xlink:href="#DejaVuSans-31"/>
       <use xlink:href="#DejaVuSans-30" transform="translate(63.623047 0)"/>
      </g>
     </g>
    </g>
    <g id="xtick_4">
     <g id="line2d_7">
      <path d="M 340.753866 256.32 
L 340.753866 34.56 
" clip-path="url(#pf8a8bc3a06)" style="fill: none; stroke: #b0b0b0; stroke-opacity: 0.25; stroke-width: 0.8; stroke-linecap: square"/>
     </g>
     <g id="line2d_8">
      <g>
       <use xlink:href="#m48d1d5f869" x="340.753866" y="256.32" style="stroke: #000000; stroke-width: 0.8"/>
      </g>
     </g>
     <g id="text_4">
      <!-- 20 -->
      <g transform="translate(334.391366 270.918437) scale(0.1 -0.1)">
       <defs>
        <path id="DejaVuSans-32" d="M 1228 531 
L 3431 531 
L 3431 0 
L 469 0 
L 469 531 
Q 828 903 1448 1529 
Q 2069 2156 2228 2338 
Q 2531 2678 2651 2914 
Q 2772 3150 2772 3378 
Q 2772 3750 2511 3984 
Q 2250 4219 1831 4219 
Q 1534 4219 1204 4116 
Q 875 4013 500 3803 
L 500 4441 
Q 881 4594 1212 4672 
Q 1544 4750 1819 4750 
Q 2544 4750 2975 4387 
Q 3406 4025 3406 3419 
Q 3406 3131 3298 2873 
Q 3191 2616 2906 2266 
Q 2828 2175 2409 1742 
Q 1991 1309 1228 531 
z
" transform="scale(0.015625)"/>
       </defs>
       <use xlink:href="#DejaVuSans-32"/>
       <use xlink:href="#DejaVuSans-30" transform="translate(63.623047 0)"/>
      </g>
     </g>
    </g>
    <g id="xtick_5">
     <g id="line2d_9">
      <path d="M 396.264975 256.32 
L 396.264975 34.56 
" clip-path="url(#pf8a8bc3a06)" style="fill: none; stroke: #b0b0b0; stroke-opacity: 0.25; stroke-width: 0.8; stroke-linecap: square"/>
     </g>
     <g id="line2d_10">
      <g>
       <use xlink:href="#m48d1d5f869" x="396.264975" y="256.32" style="stroke: #000000; stroke-width: 0.8"/>
      </g>
     </g>
     <g id="text_5">
      <!-- 30 -->
      <g transform="translate(389.902475 270.918437) scale(0.1 -0.1)">
       <defs>
        <path id="DejaVuSans-33" d="M 2597 2516 
Q 3050 2419 3304 2112 
Q 3559 1806 3559 1356 
Q 3559 666 3084 287 
Q 2609 -91 1734 -91 
Q 1441 -91 1130 -33 
Q 819 25 488 141 
L 488 750 
Q 750 597 1062 519 
Q 1375 441 1716 441 
Q 2309 441 2620 675 
Q 2931 909 2931 1356 
Q 2931 1769 2642 2001 
Q 2353 2234 1838 2234 
L 1294 2234 
L 1294 2753 
L 1863 2753 
Q 2328 2753 2575 2939 
Q 2822 3125 2822 3475 
Q 2822 3834 2567 4026 
Q 2313 4219 1838 4219 
Q 1578 4219 1281 4162 
Q 984 4106 628 3988 
L 628 4550 
Q 988 4650 1302 4700 
Q 1616 4750 1894 4750 
Q 2613 4750 3031 4423 
Q 3450 4097 3450 3541 
Q 3450 3153 3228 2886 
Q 3006 2619 2597 2516 
z
" transform="scale(0.015625)"/>
       </defs>
       <use xlink:href="#DejaVuSans-33"/>
       <use xlink:href="#DejaVuSans-30" transform="translate(63.623047 0)"/>
      </g>
     </g>
    </g>
    <g id="xtick_6">
     <g id="line2d_11">
      <path d="M 451.776083 256.32 
L 451.776083 34.56 
" clip-path="url(#pf8a8bc3a06)" style="fill: none; stroke: #b0b0b0; stroke-opacity: 0.25; stroke-width: 0.8; stroke-linecap: square"/>
     </g>
     <g id="line2d_12">
      <g>
       <use xlink:href="#m48d1d5f869" x="451.776083" y="256.32" style="stroke: #000000; stroke-width: 0.8"/>
      </g>
     </g>
     <g id="text_6">
      <!-- 40 -->
      <g transform="translate(445.413583 270.918437) scale(0.1 -0.1)">
       <defs>
        <path id="DejaVuSans-34" d="M 2419 4116 
L 825 1625 
L 2419 1625 
L 2419 4116 
z
M 2253 4666 
L 3047 4666 
L 3047 1625 
L 3713 1625 
L 3713 1100 
L 3047 1100 
L 3047 0 
L 2419 0 
L 2419 1100 
L 313 1100 
L 313 1709 
L 2253 4666 
z
" transform="scale(0.015625)"/>
       </defs>
       <use xlink:href="#DejaVuSans-34"/>
       <use xlink:href="#DejaVuSans-30" transform="translate(63.623047 0)"/>
      </g>
     </g>
    </g>
    <g id="xtick_7">
     <g id="line2d_13">
      <path d="M 507.287191 256.32 
L 507.287191 34.56 
" clip-path="url(#pf8a8bc3a06)" style="fill: none; stroke: #b0b0b0; stroke-opacity: 0.25; stroke-width: 0.8; stroke-linecap: square"/>
     </g>
     <g id="line2d_14">
      <g>
       <use xlink:href="#m48d1d5f869" x="507.287191" y="256.32" style="stroke: #000000; stroke-width: 0.8"/>
      </g>
     </g>
     <g id="text_7">
      <!-- 50 -->
      <g transform="translate(500.924691 270.918437) scale(0.1 -0.1)">
       <defs>
        <path id="DejaVuSans-35" d="M 691 4666 
L 3169 4666 
L 3169 4134 
L 1269 4134 
L 1269 2991 
Q 1406 3038 1543 3061 
Q 1681 3084 1819 3084 
Q 2600 3084 3056 2656 
Q 3513 2228 3513 1497 
Q 3513 744 3044 326 
Q 2575 -91 1722 -91 
Q 1428 -91 1123 -41 
Q 819 9 494 109 
L 494 744 
Q 775 591 1075 516 
Q 1375 441 1709 441 
Q 2250 441 2565 725 
Q 2881 1009 2881 1497 
Q 2881 1984 2565 2268 
Q 2250 2553 1709 2553 
Q 1456 2553 1204 2497 
Q 953 2441 691 2322 
L 691 4666 
z
" transform="scale(0.015625)"/>
       </defs>
       <use xlink:href="#DejaVuSans-35"/>
       <use xlink:href="#DejaVuSans-30" transform="translate(63.623047 0)"/>
      </g>
     </g>
    </g>
    <g id="xtick_8">
     <g id="line2d_15">
      <path d="M 562.798299 256.32 
L 562.798299 34.56 
" clip-path="url(#pf8a8bc3a06)" style="fill: none; stroke: #b0b0b0; stroke-opacity: 0.25; stroke-width: 0.8; stroke-linecap: square"/>
     </g>
     <g id="line2d_16">
      <g>
       <use xlink:href="#m48d1d5f869" x="562.798299" y="256.32" style="stroke: #000000; stroke-width: 0.8"/>
      </g>
     </g>
     <g id="text_8">
      <!-- 60 -->
      <g transform="translate(556.435799 270.918437) scale(0.1 -0.1)">
       <defs>
        <path id="DejaVuSans-36" d="M 2113 2584 
Q 1688 2584 1439 2293 
Q 1191 2003 1191 1497 
Q 1191 994 1439 701 
Q 1688 409 2113 409 
Q 2538 409 2786 701 
Q 3034 994 3034 1497 
Q 3034 2003 2786 2293 
Q 2538 2584 2113 2584 
z
M 3366 4563 
L 3366 3988 
Q 3128 4100 2886 4159 
Q 2644 4219 2406 4219 
Q 1781 4219 1451 3797 
Q 1122 3375 1075 2522 
Q 1259 2794 1537 2939 
Q 1816 3084 2150 3084 
Q 2853 3084 3261 2657 
Q 3669 2231 3669 1497 
Q 3669 778 3244 343 
Q 2819 -91 2113 -91 
Q 1303 -91 875 529 
Q 447 1150 447 2328 
Q 447 3434 972 4092 
Q 1497 4750 2381 4750 
Q 2619 4750 2861 4703 
Q 3103 4656 3366 4563 
z
" transform="scale(0.015625)"/>
       </defs>
       <use xlink:href="#DejaVuSans-36"/>
       <use xlink:href="#DejaVuSans-30" transform="translate(63.623047 0)"/>
      </g>
     </g>
    </g>
    <g id="text_9">
     <!-- Z [mm] -->
     <g transform="translate(350.34375 284.596563) scale(0.1 -0.1)">
      <defs>
       <path id="DejaVuSans-5a" d="M 359 4666 
L 4025 4666 
L 4025 4184 
L 1075 531 
L 4097 531 
L 4097 0 
L 288 0 
L 288 481 
L 3238 4134 
L 359 4134 
L 359 4666 
z
" transform="scale(0.015625)"/>
       <path id="DejaVuSans-20" transform="scale(0.015625)"/>
       <path id="DejaVuSans-5b" d="M 550 4863 
L 1875 4863 
L 1875 4416 
L 1125 4416 
L 1125 -397 
L 1875 -397 
L 1875 -844 
L 550 -844 
L 550 4863 
z
" transform="scale(0.015625)"/>
       <path id="DejaVuSans-6d" d="M 3328 2828 
Q 3544 3216 3844 3400 
Q 4144 3584 4550 3584 
Q 5097 3584 5394 3201 
Q 5691 2819 5691 2113 
L 5691 0 
L 5113 0 
L 5113 2094 
Q 5113 2597 4934 2840 
Q 4756 3084 4391 3084 
Q 3944 3084 3684 2787 
Q 3425 2491 3425 1978 
L 3425 0 
L 2847 0 
L 2847 2094 
Q 2847 2600 2669 2842 
Q 2491 3084 2119 3084 
Q 1678 3084 1418 2786 
Q 1159 2488 1159 1978 
L 1159 0 
L 581 0 
L 581 3500 
L 1159 3500 
L 1159 2956 
Q 1356 3278 1631 3431 
Q 1906 3584 2284 3584 
Q 2666 3584 2933 3390 
Q 3200 3197 3328 2828 
z
" transform="scale(0.015625)"/>
       <path id="DejaVuSans-5d" d="M 1947 4863 
L 1947 -844 
L 622 -844 
L 622 -397 
L 1369 -397 
L 1369 4416 
L 622 4416 
L 622 4863 
L 1947 4863 
z
" transform="scale(0.015625)"/>
      </defs>
      <use xlink:href="#DejaVuSans-5a"/>
      <use xlink:href="#DejaVuSans-20" transform="translate(68.505859 0)"/>
      <use xlink:href="#DejaVuSans-5b" transform="translate(100.292969 0)"/>
      <use xlink:href="#DejaVuSans-6d" transform="translate(139.306641 0)"/>
      <use xlink:href="#DejaVuSans-6d" transform="translate(236.71875 0)"/>
      <use xlink:href="#DejaVuSans-5d" transform="translate(334.130859 0)"/>
     </g>
    </g>
   </g>
   <g id="matplotlib.axis_2">
    <g id="ytick_1">
     <g id="line2d_17">
      <path d="M 154.742596 228.706662 
L 583.257404 228.706662 
" clip-path="url(#pf8a8bc3a06)" style="fill: none; stroke: #b0b0b0; stroke-opacity: 0.25; stroke-width: 0.8; stroke-linecap: square"/>
     </g>
     <g id="line2d_18">
      <defs>
       <path id="m1f57817c99" d="M 0 0 
L -3.5 0 
" style="stroke: #000000; stroke-width: 0.8"/>
      </defs>
      <g>
       <use xlink:href="#m1f57817c99" x="154.742596" y="228.706662" style="stroke: #000000; stroke-width: 0.8"/>
      </g>
     </g>
     <g id="text_10">
      <!-- −15 -->
      <g transform="translate(126.637909 232.505881) scale(0.1 -0.1)">
       <use xlink:href="#DejaVuSans-2212"/>
       <use xlink:href="#DejaVuSans-31" transform="translate(83.789062 0)"/>
       <use xlink:href="#DejaVuSans-35" transform="translate(147.412109 0)"/>
      </g>
     </g>
    </g>
    <g id="ytick_2">
     <g id="line2d_19">
      <path d="M 154.742596 200.951108 
L 583.257404 200.951108 
" clip-path="url(#pf8a8bc3a06)" style="fill: none; stroke: #b0b0b0; stroke-opacity: 0.25; stroke-width: 0.8; stroke-linecap: square"/>
     </g>
     <g id="line2d_20">
      <g>
       <use xlink:href="#m1f57817c99" x="154.742596" y="200.951108" style="stroke: #000000; stroke-width: 0.8"/>
      </g>
     </g>
     <g id="text_11">
      <!-- −10 -->
      <g transform="translate(126.637909 204.750327) scale(0.1 -0.1)">
       <use xlink:href="#DejaVuSans-2212"/>
       <use xlink:href="#DejaVuSans-31" transform="translate(83.789062 0)"/>
       <use xlink:href="#DejaVuSans-30" transform="translate(147.412109 0)"/>
      </g>
     </g>
    </g>
    <g id="ytick_3">
     <g id="line2d_21">
      <path d="M 154.742596 173.195554 
L 583.257404 173.195554 
" clip-path="url(#pf8a8bc3a06)" style="fill: none; stroke: #b0b0b0; stroke-opacity: 0.25; stroke-width: 0.8; stroke-linecap: square"/>
     </g>
     <g id="line2d_22">
      <g>
       <use xlink:href="#m1f57817c99" x="154.742596" y="173.195554" style="stroke: #000000; stroke-width: 0.8"/>
      </g>
     </g>
     <g id="text_12">
      <!-- −5 -->
      <g transform="translate(133.000409 176.994773) scale(0.1 -0.1)">
       <use xlink:href="#DejaVuSans-2212"/>
       <use xlink:href="#DejaVuSans-35" transform="translate(83.789062 0)"/>
      </g>
     </g>
    </g>
    <g id="ytick_4">
     <g id="line2d_23">
      <path d="M 154.742596 145.44 
L 583.257404 145.44 
" clip-path="url(#pf8a8bc3a06)" style="fill: none; stroke: #b0b0b0; stroke-opacity: 0.25; stroke-width: 0.8; stroke-linecap: square"/>
     </g>
     <g id="line2d_24">
      <g>
       <use xlink:href="#m1f57817c99" x="154.742596" y="145.44" style="stroke: #000000; stroke-width: 0.8"/>
      </g>
     </g>
     <g id="text_13">
      <!-- 0 -->
      <g transform="translate(141.380096 149.239219) scale(0.1 -0.1)">
       <use xlink:href="#DejaVuSans-30"/>
      </g>
     </g>
    </g>
    <g id="ytick_5">
     <g id="line2d_25">
      <path d="M 154.742596 117.684446 
L 583.257404 117.684446 
" clip-path="url(#pf8a8bc3a06)" style="fill: none; stroke: #b0b0b0; stroke-opacity: 0.25; stroke-width: 0.8; stroke-linecap: square"/>
     </g>
     <g id="line2d_26">
      <g>
       <use xlink:href="#m1f57817c99" x="154.742596" y="117.684446" style="stroke: #000000; stroke-width: 0.8"/>
      </g>
     </g>
     <g id="text_14">
      <!-- 5 -->
      <g transform="translate(141.380096 121.483665) scale(0.1 -0.1)">
       <use xlink:href="#DejaVuSans-35"/>
      </g>
     </g>
    </g>
    <g id="ytick_6">
     <g id="line2d_27">
      <path d="M 154.742596 89.928892 
L 583.257404 89.928892 
" clip-path="url(#pf8a8bc3a06)" style="fill: none; stroke: #b0b0b0; stroke-opacity: 0.25; stroke-width: 0.8; stroke-linecap: square"/>
     </g>
     <g id="line2d_28">
      <g>
       <use xlink:href="#m1f57817c99" x="154.742596" y="89.928892" style="stroke: #000000; stroke-width: 0.8"/>
      </g>
     </g>
     <g id="text_15">
      <!-- 10 -->
      <g transform="translate(135.017596 93.728111) scale(0.1 -0.1)">
       <use xlink:href="#DejaVuSans-31"/>
       <use xlink:href="#DejaVuSans-30" transform="translate(63.623047 0)"/>
      </g>
     </g>
    </g>
    <g id="ytick_7">
     <g id="line2d_29">
      <path d="M 154.742596 62.173338 
L 583.257404 62.173338 
" clip-path="url(#pf8a8bc3a06)" style="fill: none; stroke: #b0b0b0; stroke-opacity: 0.25; stroke-width: 0.8; stroke-linecap: square"/>
     </g>
     <g id="line2d_30">
      <g>
       <use xlink:href="#m1f57817c99" x="154.742596" y="62.173338" style="stroke: #000000; stroke-width: 0.8"/>
      </g>
     </g>
     <g id="text_16">
      <!-- 15 -->
      <g transform="translate(135.017596 65.972556) scale(0.1 -0.1)">
       <use xlink:href="#DejaVuSans-31"/>
       <use xlink:href="#DejaVuSans-35" transform="translate(63.623047 0)"/>
      </g>
     </g>
    </g>
    <g id="text_17">
     <!-- Y [mm] -->
     <g transform="translate(120.558221 163.725156) rotate(-90) scale(0.1 -0.1)">
      <defs>
       <path id="DejaVuSans-59" d="M -13 4666 
L 666 4666 
L 1959 2747 
L 3244 4666 
L 3922 4666 
L 2272 2222 
L 2272 0 
L 1638 0 
L 1638 2222 
L -13 4666 
z
" transform="scale(0.015625)"/>
      </defs>
      <use xlink:href="#DejaVuSans-59"/>
      <use xlink:href="#DejaVuSans-20" transform="translate(61.083984 0)"/>
      <use xlink:href="#DejaVuSans-5b" transform="translate(92.871094 0)"/>
      <use xlink:href="#DejaVuSans-6d" transform="translate(131.884766 0)"/>
      <use xlink:href="#DejaVuSans-6d" transform="translate(229.296875 0)"/>
      <use xlink:href="#DejaVuSans-5d" transform="translate(326.708984 0)"/>
     </g>
    </g>
   </g>
   <g id="line2d_31">
    <path d="M 174.220542 173.195554 
L 232.92548 173.195554 
L 247.677954 171.883699 
L 279.25856 167.073314 
L 288.77611 166.853491 
L 313.717432 168.952643 
L 326.63933 169.355635 
L 563.779458 145.416709 
" clip-path="url(#pf8a8bc3a06)" style="fill: none; stroke: #1f77b4; stroke-linecap: square"/>
   </g>
   <g id="line2d_32">
    <path d="M 174.220542 145.44 
L 229.73165 145.44 
L 247.822498 145.44 
L 281.171074 145.44 
L 286.722018 145.44 
L 313.092071 145.44 
L 329.479394 145.44 
L 563.779458 145.44 
" clip-path="url(#pf8a8bc3a06)" style="fill: none; stroke: #1f77b4; stroke-linecap: square"/>
   </g>
   <g id="line2d_33">
    <path d="M 174.220542 117.684446 
L 232.92548 117.684446 
L 247.677954 118.996301 
L 279.25856 123.806686 
L 288.77611 124.026509 
L 313.717432 121.927357 
L 326.63933 121.524365 
L 563.779458 145.463291 
" clip-path="url(#pf8a8bc3a06)" style="fill: none; stroke: #1f77b4; stroke-linecap: square"/>
   </g>
   <g id="line2d_34">
    <path d="M 174.220542 202.969401 
L 237.120127 187.286773 
L 247.511223 184.244965 
L 279.174752 167.538444 
L 288.530601 165.544136 
L 313.324006 159.762398 
L 328.779286 157.37701 
L 563.779458 76.63408 
" clip-path="url(#pf8a8bc3a06)" style="fill: none; stroke: #ff7f0e; stroke-linecap: square"/>
   </g>
   <g id="line2d_35">
    <path d="M 174.220542 175.213847 
L 230.741999 161.121465 
L 247.791593 157.667724 
L 281.168846 146.181328 
L 286.722662 145.059312 
L 313.192746 136.003188 
L 328.71668 132.982605 
L 563.779458 76.496343 
" clip-path="url(#pf8a8bc3a06)" style="fill: none; stroke: #ff7f0e; stroke-linecap: square"/>
   </g>
   <g id="line2d_36">
    <path d="M 174.220542 147.458293 
L 230.319189 133.471329 
L 247.78254 131.536353 
L 279.609271 125.876575 
L 288.720365 124.316436 
L 314.283775 112.992517 
L 323.470427 110.927715 
L 563.779458 76.270119 
" clip-path="url(#pf8a8bc3a06)" style="fill: none; stroke: #ff7f0e; stroke-linecap: square"/>
   </g>
   <g id="line2d_37">
    <path d="M 174.220542 216.659561 
L 239.347714 192.955209 
L 247.414958 189.841307 
L 279.448236 165.98051 
L 288.154278 163.345745 
L 313.163606 153.394841 
L 329.399882 149.468942 
L 563.779458 44.859565 
" clip-path="url(#pf8a8bc3a06)" style="fill: none; stroke: #2ca02c; stroke-linecap: square"/>
   </g>
   <g id="line2d_38">
    <path d="M 174.220542 188.904007 
L 231.820769 167.939238 
L 247.756897 163.254796 
L 281.17048 145.822755 
L 286.729078 144.17887 
L 313.358965 130.076375 
L 327.614968 126.01595 
L 563.779458 44.76491 
" clip-path="url(#pf8a8bc3a06)" style="fill: none; stroke: #2ca02c; stroke-linecap: square"/>
   </g>
   <g id="line2d_39">
    <path d="M 174.220542 161.148453 
L 229.815512 140.913538 
L 247.808866 137.318957 
L 279.737975 126.69507 
L 288.715107 124.343996 
L 314.755611 107.113662 
L 321.166515 105.083747 
L 563.779458 44.64 
" clip-path="url(#pf8a8bc3a06)" style="fill: none; stroke: #2ca02c; stroke-linecap: square"/>
   </g>
   <g id="line2d_40">
    <path d="M 563.779458 246.24 
L 563.779458 44.64 
L 563.779458 44.64 
" clip-path="url(#pf8a8bc3a06)" style="fill: none; stroke: #808080; stroke-width: 1.5; stroke-linecap: square"/>
   </g>
   <g id="patch_6">
    <path d="M 154.742596 256.32 
L 154.742596 34.56 
" style="fill: none; stroke: #000000; stroke-width: 0.8; stroke-linejoin: miter; stroke-linecap: square"/>
   </g>
   <g id="patch_7">
    <path d="M 583.257404 256.32 
L 583.257404 34.56 
" style="fill: none; stroke: #000000; stroke-width: 0.8; stroke-linejoin: miter; stroke-linecap: square"/>
   </g>
   <g id="patch_8">
    <path d="M 154.742596 256.32 
L 583.257404 256.32 
" style="fill: none; stroke: #000000; stroke-width: 0.8; stroke-linejoin: miter; stroke-linecap: square"/>
   </g>
   <g id="patch_9">
    <path d="M 154.742596 34.56 
L 583.257404 34.56 
" style="fill: none; stroke: #000000; stroke-width: 0.8; stroke-linejoin: miter; stroke-linecap: square"/>
   </g>
  </g>
 </g>
 <defs>
  <clipPath id="pf8a8bc3a06">
   <rect x="154.742596" y="34.56" width="428.514808" height="221.76"/>
  </clipPath>
 </defs>
</svg>
