<?xml version="1.0" encoding="utf-8" standalone="no"?>
<!DOCTYPE svg PUBLIC "-//W3C//DTD SVG 1.1//EN"
  "http://www.w3.org/Graphics/SVG/1.1/DTD/svg11.dtd">
<svg xmlns:xlink="http://www.w3.org/1999/xlink" width="498.994062pt" height="273.696563pt" viewBox="0 0 498.994062 273.696563" xmlns="http://www.w3.org/2000/svg" version="1.1">
 <metadata>
  <rdf:RDF xmlns:dc="http://purl.org/dc/elements/1.1/" xmlns:cc="http://creativecommons.org/ns#" xmlns:rdf="http://www.w3.org/1999/02/22-rdf-syntax-ns#">
   <cc:Work>
    <dc:type rdf:resource="http://purl.org/dc/dcmitype/StillImage"/>
    <dc:date>2025-09-09T20:06:19.967959</dc:date>
    <dc:format>image/svg+xml</dc:format>
    <dc:creator>
     <cc:Agent>
      <dc:title>Matplotlib v3.10.1, https://matplotlib.org/</dc:title>
     </cc:Agent>
    </dc:creator>
   </cc:Work>
  </rdf:RDF>
 </metadata>
 <defs>
  <style type="text/css">*{stroke-linejoin: round; stroke-linecap: butt}</style>
 </defs>
 <g id="figure_1">
  <g id="patch_1">
   <path d="M 0 273.696563 
L 498.994062 273.696563 
L 498.994062 0 
L 0 0 
z
" style="fill: #ffffff"/>
  </g>
  <g id="axes_1">
   <g id="patch_2">
    <path d="M 43.794063 239.04375 
L 491.794063 239.04375 
L 491.794063 7.2 
L 43.794063 7.2 
z
" style="fill: #f8f9fa"/>
   </g>
   <g id="patch_3">
    <path d="M 132.246299 172.797669 
L 131.91919 172.015373 
L 131.598157 171.233077 
L 131.283149 170.450781 
L 130.974119 169.668485 
L 130.67102 168.886189 
L 130.373807 168.103893 
L 130.082437 167.321597 
L 129.796866 166.539302 
L 129.517054 165.757006 
L 129.242961 164.97471 
L 128.974547 164.192414 
L 128.711775 163.410118 
L 128.454609 162.627822 
L 128.203012 161.845526 
L 127.956951 161.06323 
L 127.716391 160.280934 
L 127.481301 159.498638 
L 127.25165 158.716342 
L 127.027405 157.934046 
L 126.808539 157.15175 
L 126.595023 156.369454 
L 126.386828 155.587158 
L 126.183927 154.804862 
L 125.986296 154.022566 
L 125.793908 153.24027 
L 125.60674 152.457974 
L 125.424767 151.675678 
L 125.247968 150.893382 
L 125.07632 150.111086 
L 124.909801 149.32879 
L 124.748392 148.546494 
L 124.592072 147.764198 
L 124.440824 146.981902 
L 124.294627 146.199606 
L 124.153465 145.41731 
L 124.017321 144.635014 
L 123.886179 143.852718 
L 123.760022 143.070422 
L 123.638837 142.288126 
L 123.522608 141.50583 
L 123.411322 140.723534 
L 123.304967 139.941238 
L 123.203528 139.158942 
L 123.106996 138.376647 
L 123.015358 137.594351 
L 122.928605 136.812055 
L 122.846725 136.029759 
L 122.76971 135.247463 
L 122.697551 134.465167 
L 122.630239 133.682871 
L 122.567767 132.900575 
L 122.510128 132.118279 
L 122.457315 131.335983 
L 122.409322 130.553687 
L 122.366144 129.771391 
L 122.327775 128.989095 
L 122.294212 128.206799 
L 122.265451 127.424503 
L 122.241489 126.642207 
L 122.222322 125.859911 
L 122.207948 125.077615 
L 122.198367 124.295319 
L 122.193577 123.513023 
L 122.193577 122.730727 
L 122.198367 121.948431 
L 122.207948 121.166135 
L 122.222322 120.383839 
L 122.241489 119.601543 
L 122.265451 118.819247 
L 122.294212 118.036951 
L 122.327775 117.254655 
L 122.366144 116.472359 
L 122.409322 115.690063 
L 122.457315 114.907767 
L 122.510128 114.125471 
L 122.567767 113.343175 
L 122.630239 112.560879 
L 122.697551 111.778583 
L 122.76971 110.996287 
L 122.846725 110.213992 
L 122.928605 109.431696 
L 123.015358 108.6494 
L 123.106996 107.867104 
L 123.203528 107.084808 
L 123.304967 106.302512 
L 123.411322 105.520216 
L 123.522608 104.73792 
L 123.638837 103.955624 
L 123.760022 103.173328 
L 123.886179 102.391032 
L 124.017321 101.608736 
L 124.153465 100.82644 
L 124.294627 100.044144 
L 124.440824 99.261848 
L 124.592072 98.479552 
L 124.748392 97.697256 
L 124.909801 96.91496 
L 125.07632 96.132664 
L 125.247968 95.350368 
L 125.424767 94.568072 
L 125.60674 93.785776 
L 125.793908 93.00348 
L 125.986296 92.221184 
L 126.183927 91.438888 
L 126.386828 90.656592 
L 126.595023 89.874296 
L 126.808539 89.092 
L 127.027405 88.309704 
L 127.25165 87.527408 
L 127.481301 86.745112 
L 127.716391 85.962816 
L 127.956951 85.18052 
L 128.203012 84.398224 
L 128.454609 83.615928 
L 128.711775 82.833632 
L 128.974547 82.051337 
L 129.242961 81.269041 
L 129.517054 80.486745 
L 129.796866 79.704449 
L 130.082437 78.922153 
L 130.373807 78.139857 
L 130.67102 77.357561 
L 130.974119 76.575265 
L 131.283149 75.792969 
L 131.598157 75.010673 
L 131.91919 74.228377 
L 132.246299 73.446081 
L 140.680372 73.446081 
L 140.680372 76.701576 
L 140.693687 77.432604 
L 140.70679 78.163632 
L 140.719682 78.894661 
L 140.732363 79.625689 
L 140.744833 80.356717 
L 140.75709 81.087746 
L 140.769137 81.818774 
L 140.780972 82.549802 
L 140.792596 83.280831 
L 140.804008 84.011859 
L 140.815209 84.742887 
L 140.826199 85.473916 
L 140.836977 86.204944 
L 140.847544 86.935972 
L 140.857899 87.667001 
L 140.868043 88.398029 
L 140.877976 89.129057 
L 140.887697 89.860086 
L 140.897207 90.591114 
L 140.906506 91.322142 
L 140.915593 92.053171 
L 140.924469 92.784199 
L 140.933133 93.515227 
L 140.941586 94.246256 
L 140.949828 94.977284 
L 140.957859 95.708312 
L 140.965678 96.439341 
L 140.973285 97.170369 
L 140.980682 97.901397 
L 140.987867 98.632426 
L 140.994841 99.363454 
L 141.001603 100.094482 
L 141.008154 100.825511 
L 141.014494 101.556539 
L 141.020622 102.287567 
L 141.026539 103.018596 
L 141.032245 103.749624 
L 141.037739 104.480652 
L 141.043022 105.211681 
L 141.048093 105.942709 
L 141.052954 106.673737 
L 141.057603 107.404766 
L 141.062041 108.135794 
L 141.066267 108.866822 
L 141.070282 109.597851 
L 141.074086 110.328879 
L 141.077678 111.059907 
L 141.081059 111.790936 
L 141.084229 112.521964 
L 141.087187 113.252993 
L 141.089934 113.984021 
L 141.09247 114.715049 
L 141.094795 115.446078 
L 141.096908 116.177106 
L 141.09881 116.908134 
L 141.1005 117.639163 
L 141.101979 118.370191 
L 141.103247 119.101219 
L 141.104304 119.832248 
L 141.105149 120.563276 
L 141.105783 121.294304 
L 141.106206 122.025333 
L 141.106417 122.756361 
L 141.106417 123.487389 
L 141.106206 124.218418 
L 141.105783 124.949446 
L 141.105149 125.680474 
L 141.104304 126.411503 
L 141.103247 127.142531 
L 141.101979 127.873559 
L 141.1005 128.604588 
L 141.09881 129.335616 
L 141.096908 130.066644 
L 141.094795 130.797673 
L 141.09247 131.528701 
L 141.089934 132.259729 
L 141.087187 132.990758 
L 141.084229 133.721786 
L 141.081059 134.452814 
L 141.077678 135.183843 
L 141.074086 135.914871 
L 141.070282 136.645899 
L 141.066267 137.376928 
L 141.062041 138.107956 
L 141.057603 138.838984 
L 141.052954 139.570013 
L 141.048093 140.301041 
L 141.043022 141.032069 
L 141.037739 141.763098 
L 141.032245 142.494126 
L 141.026539 143.225154 
L 141.020622 143.956183 
L 141.014494 144.687211 
L 141.008154 145.418239 
L 141.001603 146.149268 
L 140.994841 146.880296 
L 140.987867 147.611324 
L 140.980682 148.342353 
L 140.973285 149.073381 
L 140.965678 149.804409 
L 140.957859 150.535438 
L 140.949828 151.266466 
L 140.941586 151.997494 
L 140.933133 152.728523 
L 140.924469 153.459551 
L 140.915593 154.190579 
L 140.906506 154.921608 
L 140.897207 155.652636 
L 140.887697 156.383664 
L 140.877976 157.114693 
L 140.868043 157.845721 
L 140.857899 158.576749 
L 140.847544 159.307778 
L 140.836977 160.038806 
L 140.826199 160.769834 
L 140.815209 161.500863 
L 140.804008 162.231891 
L 140.792596 162.962919 
L 140.780972 163.693948 
L 140.769137 164.424976 
L 140.75709 165.156004 
L 140.744833 165.887033 
L 140.732363 166.618061 
L 140.719682 167.349089 
L 140.70679 168.080118 
L 140.693687 168.811146 
L 140.680372 169.542174 
L 140.680372 172.797669 
z
" clip-path="url(#p55bed58f67)" style="fill: #cccccc; fill-opacity: 0.6; stroke: #808080; stroke-linejoin: miter"/>
   </g>
   <g id="patch_4">
    <path d="M 173.884329 146.225167 
L 173.950067 145.861336 
L 174.014728 145.497504 
L 174.078313 145.133673 
L 174.140825 144.769842 
L 174.202266 144.40601 
L 174.262636 144.042179 
L 174.321937 143.678347 
L 174.380171 143.314516 
L 174.437339 142.950685 
L 174.493443 142.586853 
L 174.548484 142.223022 
L 174.602463 141.859191 
L 174.655382 141.495359 
L 174.707243 141.131528 
L 174.758045 140.767696 
L 174.807791 140.403865 
L 174.856482 140.040034 
L 174.904119 139.676202 
L 174.950703 139.312371 
L 174.996236 138.94854 
L 175.040718 138.584708 
L 175.084151 138.220877 
L 175.126536 137.857046 
L 175.167873 137.493214 
L 175.208164 137.129383 
L 175.247409 136.765551 
L 175.285611 136.40172 
L 175.322769 136.037889 
L 175.358884 135.674057 
L 175.393958 135.310226 
L 175.427991 134.946395 
L 175.460984 134.582563 
L 175.492938 134.218732 
L 175.523854 133.8549 
L 175.553732 133.491069 
L 175.582574 133.127238 
L 175.610379 132.763406 
L 175.637148 132.399575 
L 175.662883 132.035744 
L 175.687583 131.671912 
L 175.71125 131.308081 
L 175.733884 130.944249 
L 175.755485 130.580418 
L 175.776055 130.216587 
L 175.795592 129.852755 
L 175.814099 129.488924 
L 175.831575 129.125093 
L 175.848021 128.761261 
L 175.863437 128.39743 
L 175.877824 128.033599 
L 175.891182 127.669767 
L 175.903511 127.305936 
L 175.914811 126.942104 
L 175.925084 126.578273 
L 175.934328 126.214442 
L 175.942545 125.85061 
L 175.949734 125.486779 
L 175.955896 125.122948 
L 175.96103 124.759116 
L 175.965138 124.395285 
L 175.968219 124.031453 
L 175.970272 123.667622 
L 175.971299 123.303791 
L 175.971299 122.939959 
L 175.970272 122.576128 
L 175.968219 122.212297 
L 175.965138 121.848465 
L 175.96103 121.484634 
L 175.955896 121.120803 
L 175.949734 120.756971 
L 175.942545 120.39314 
L 175.934328 120.029308 
L 175.925084 119.665477 
L 175.914811 119.301646 
L 175.903511 118.937814 
L 175.891182 118.573983 
L 175.877824 118.210152 
L 175.863437 117.84632 
L 175.848021 117.482489 
L 175.831575 117.118657 
L 175.814099 116.754826 
L 175.795592 116.390995 
L 175.776055 116.027163 
L 175.755485 115.663332 
L 175.733884 115.299501 
L 175.71125 114.935669 
L 175.687583 114.571838 
L 175.662883 114.208007 
L 175.637148 113.844175 
L 175.610379 113.480344 
L 175.582574 113.116512 
L 175.553732 112.752681 
L 175.523854 112.38885 
L 175.492938 112.025018 
L 175.460984 111.661187 
L 175.427991 111.297356 
L 175.393958 110.933524 
L 175.358884 110.569693 
L 175.322769 110.205861 
L 175.285611 109.84203 
L 175.247409 109.478199 
L 175.208164 109.114367 
L 175.167873 108.750536 
L 175.126536 108.386705 
L 175.084151 108.022873 
L 175.040718 107.659042 
L 174.996236 107.29521 
L 174.950703 106.931379 
L 174.904119 106.567548 
L 174.856482 106.203716 
L 174.807791 105.839885 
L 174.758045 105.476054 
L 174.707243 105.112222 
L 174.655382 104.748391 
L 174.602463 104.38456 
L 174.548484 104.020728 
L 174.493443 103.656897 
L 174.437339 103.293065 
L 174.380171 102.929234 
L 174.321937 102.565403 
L 174.262636 102.201571 
L 174.202266 101.83774 
L 174.140825 101.473909 
L 174.078313 101.110077 
L 174.014728 100.746246 
L 173.950067 100.382414 
L 173.884329 100.018583 
L 183.922276 100.018583 
L 183.922276 100.734681 
L 183.854567 101.087235 
L 183.787972 101.43979 
L 183.722489 101.792344 
L 183.658115 102.144898 
L 183.594849 102.497452 
L 183.532688 102.850007 
L 183.471632 103.202561 
L 183.411679 103.555115 
L 183.352826 103.907669 
L 183.295072 104.260224 
L 183.238415 104.612778 
L 183.182854 104.965332 
L 183.128388 105.317886 
L 183.075014 105.67044 
L 183.022732 106.022995 
L 182.971539 106.375549 
L 182.921434 106.728103 
L 182.872417 107.080657 
L 182.824484 107.433212 
L 182.777637 107.785766 
L 182.731871 108.13832 
L 182.687188 108.490874 
L 182.643585 108.843429 
L 182.601061 109.195983 
L 182.559615 109.548537 
L 182.519246 109.901091 
L 182.479952 110.253646 
L 182.441734 110.6062 
L 182.404589 110.958754 
L 182.368516 111.311308 
L 182.333515 111.663862 
L 182.299584 112.016417 
L 182.266724 112.368971 
L 182.234932 112.721525 
L 182.204208 113.074079 
L 182.174551 113.426634 
L 182.14596 113.779188 
L 182.118435 114.131742 
L 182.091975 114.484296 
L 182.066578 114.836851 
L 182.042245 115.189405 
L 182.018975 115.541959 
L 181.996766 115.894513 
L 181.975619 116.247067 
L 181.955533 116.599622 
L 181.936508 116.952176 
L 181.918542 117.30473 
L 181.901635 117.657284 
L 181.885787 118.009839 
L 181.870998 118.362393 
L 181.857267 118.714947 
L 181.844593 119.067501 
L 181.832977 119.420056 
L 181.822418 119.77261 
L 181.812915 120.125164 
L 181.804469 120.477718 
L 181.79708 120.830273 
L 181.790746 121.182827 
L 181.785468 121.535381 
L 181.781246 121.887935 
L 181.77808 122.240489 
L 181.775969 122.593044 
L 181.774913 122.945598 
L 181.774913 123.298152 
L 181.775969 123.650706 
L 181.77808 124.003261 
L 181.781246 124.355815 
L 181.785468 124.708369 
L 181.790746 125.060923 
L 181.79708 125.413478 
L 181.804469 125.766032 
L 181.812915 126.118586 
L 181.822418 126.47114 
L 181.832977 126.823695 
L 181.844593 127.176249 
L 181.857267 127.528803 
L 181.870998 127.881357 
L 181.885787 128.233911 
L 181.901635 128.586466 
L 181.918542 128.93902 
L 181.936508 129.291574 
L 181.955533 129.644128 
L 181.975619 129.996683 
L 181.996766 130.349237 
L 182.018975 130.701791 
L 182.042245 131.054345 
L 182.066578 131.4069 
L 182.091975 131.759454 
L 182.118435 132.112008 
L 182.14596 132.464562 
L 182.174551 132.817117 
L 182.204208 133.169671 
L 182.234932 133.522225 
L 182.266724 133.874779 
L 182.299584 134.227333 
L 182.333515 134.579888 
L 182.368516 134.932442 
L 182.404589 135.284996 
L 182.441734 135.63755 
L 182.479952 135.990105 
L 182.519246 136.342659 
L 182.559615 136.695213 
L 182.601061 137.047767 
L 182.643585 137.400322 
L 182.687188 137.752876 
L 182.731871 138.10543 
L 182.777637 138.457984 
L 182.824484 138.810538 
L 182.872417 139.163093 
L 182.921434 139.515647 
L 182.971539 139.868201 
L 183.022732 140.220755 
L 183.075014 140.57331 
L 183.128388 140.925864 
L 183.182854 141.278418 
L 183.238415 141.630972 
L 183.295072 141.983527 
L 183.352826 142.336081 
L 183.411679 142.688635 
L 183.471632 143.041189 
L 183.532688 143.393744 
L 183.594849 143.746298 
L 183.658115 144.098852 
L 183.722489 144.451406 
L 183.787972 144.80396 
L 183.854567 145.156515 
L 183.922276 145.509069 
L 183.922276 146.225167 
z
" clip-path="url(#p55bed58f67)" style="fill: #cccccc; fill-opacity: 0.6; stroke: #808080; stroke-linejoin: miter"/>
   </g>
   <g id="patch_5">
    <path d="M 211.083102 165.313186 
L 211.083102 163.190968 
L 211.028656 162.559958 
L 210.975081 161.928949 
L 210.922377 161.29794 
L 210.870542 160.66693 
L 210.819576 160.035921 
L 210.76948 159.404912 
L 210.720253 158.773902 
L 210.671895 158.142893 
L 210.624405 157.511884 
L 210.577784 156.880874 
L 210.53203 156.249865 
L 210.487144 155.618856 
L 210.443126 154.987846 
L 210.399975 154.356837 
L 210.35769 153.725828 
L 210.316273 153.094818 
L 210.275721 152.463809 
L 210.236037 151.8328 
L 210.197218 151.20179 
L 210.159264 150.570781 
L 210.122177 149.939772 
L 210.085955 149.308762 
L 210.050598 148.677753 
L 210.016106 148.046744 
L 209.982479 147.415734 
L 209.949716 146.784725 
L 209.917818 146.153716 
L 209.886784 145.522706 
L 209.856614 144.891697 
L 209.827308 144.260688 
L 209.798865 143.629678 
L 209.771287 142.998669 
L 209.744571 142.36766 
L 209.718719 141.73665 
L 209.69373 141.105641 
L 209.669604 140.474632 
L 209.646341 139.843622 
L 209.62394 139.212613 
L 209.602402 138.581604 
L 209.581727 137.950594 
L 209.561914 137.319585 
L 209.542963 136.688576 
L 209.524874 136.057566 
L 209.507648 135.426557 
L 209.491283 134.795548 
L 209.47578 134.164538 
L 209.461139 133.533529 
L 209.447359 132.90252 
L 209.434441 132.27151 
L 209.422385 131.640501 
L 209.41119 131.009492 
L 209.400856 130.378482 
L 209.391384 129.747473 
L 209.382773 129.116464 
L 209.375023 128.485454 
L 209.368135 127.854445 
L 209.362107 127.223436 
L 209.356941 126.592426 
L 209.352636 125.961417 
L 209.349192 125.330408 
L 209.346609 124.699398 
L 209.344887 124.068389 
L 209.344026 123.43738 
L 209.344026 122.80637 
L 209.344887 122.175361 
L 209.346609 121.544352 
L 209.349192 120.913342 
L 209.352636 120.282333 
L 209.356941 119.651324 
L 209.362107 119.020314 
L 209.368135 118.389305 
L 209.375023 117.758296 
L 209.382773 117.127286 
L 209.391384 116.496277 
L 209.400856 115.865268 
L 209.41119 115.234258 
L 209.422385 114.603249 
L 209.434441 113.97224 
L 209.447359 113.34123 
L 209.461139 112.710221 
L 209.47578 112.079212 
L 209.491283 111.448202 
L 209.507648 110.817193 
L 209.524874 110.186184 
L 209.542963 109.555174 
L 209.561914 108.924165 
L 209.581727 108.293156 
L 209.602402 107.662146 
L 209.62394 107.031137 
L 209.646341 106.400128 
L 209.669604 105.769118 
L 209.69373 105.138109 
L 209.718719 104.5071 
L 209.744571 103.87609 
L 209.771287 103.245081 
L 209.798865 102.614072 
L 209.827308 101.983062 
L 209.856614 101.352053 
L 209.886784 100.721044 
L 209.917818 100.090034 
L 209.949716 99.459025 
L 209.982479 98.828016 
L 210.016106 98.197006 
L 210.050598 97.565997 
L 210.085955 96.934988 
L 210.122177 96.303978 
L 210.159264 95.672969 
L 210.197218 95.04196 
L 210.236037 94.41095 
L 210.275721 93.779941 
L 210.316273 93.148932 
L 210.35769 92.517922 
L 210.399975 91.886913 
L 210.443126 91.255904 
L 210.487144 90.624894 
L 210.53203 89.993885 
L 210.577784 89.362876 
L 210.624405 88.731866 
L 210.671895 88.100857 
L 210.720253 87.469848 
L 210.76948 86.838838 
L 210.819576 86.207829 
L 210.870542 85.57682 
L 210.922377 84.94581 
L 210.975081 84.314801 
L 211.028656 83.683792 
L 211.083102 83.052782 
L 211.083102 80.930564 
L 217.78552 80.930564 
L 218.068717 81.594994 
L 218.346626 82.259424 
L 218.61929 82.923854 
L 218.886753 83.588284 
L 219.149057 84.252714 
L 219.406242 84.917145 
L 219.658348 85.581575 
L 219.905413 86.246005 
L 220.147475 86.910435 
L 220.38457 87.574865 
L 220.616732 88.239295 
L 220.843995 88.903725 
L 221.066393 89.568155 
L 221.283958 90.232585 
L 221.49672 90.897015 
L 221.70471 91.561446 
L 221.907956 92.225876 
L 222.106488 92.890306 
L 222.300331 93.554736 
L 222.489514 94.219166 
L 222.674061 94.883596 
L 222.853997 95.548026 
L 223.029347 96.212456 
L 223.200134 96.876886 
L 223.36638 97.541316 
L 223.528107 98.205746 
L 223.685337 98.870177 
L 223.838089 99.534607 
L 223.986384 100.199037 
L 224.13024 100.863467 
L 224.269675 101.527897 
L 224.404708 102.192327 
L 224.535356 102.856757 
L 224.661634 103.521187 
L 224.783558 104.185617 
L 224.901144 104.850047 
L 225.014406 105.514478 
L 225.123358 106.178908 
L 225.228014 106.843338 
L 225.328386 107.507768 
L 225.424486 108.172198 
L 225.516327 108.836628 
L 225.603918 109.501058 
L 225.687271 110.165488 
L 225.766396 110.829918 
L 225.841302 111.494348 
L 225.911998 112.158778 
L 225.978492 112.823209 
L 226.040793 113.487639 
L 226.098907 114.152069 
L 226.152842 114.816499 
L 226.202604 115.480929 
L 226.248199 116.145359 
L 226.289632 116.809789 
L 226.326907 117.474219 
L 226.36003 118.138649 
L 226.389005 118.803079 
L 226.413833 119.46751 
L 226.43452 120.13194 
L 226.451066 120.79637 
L 226.463474 121.4608 
L 226.471745 122.12523 
L 226.47588 122.78966 
L 226.47588 123.45409 
L 226.471745 124.11852 
L 226.463474 124.78295 
L 226.451066 125.44738 
L 226.43452 126.11181 
L 226.413833 126.776241 
L 226.389005 127.440671 
L 226.36003 128.105101 
L 226.326907 128.769531 
L 226.289632 129.433961 
L 226.248199 130.098391 
L 226.202604 130.762821 
L 226.152842 131.427251 
L 226.098907 132.091681 
L 226.040793 132.756111 
L 225.978492 133.420542 
L 225.911998 134.084972 
L 225.841302 134.749402 
L 225.766396 135.413832 
L 225.687271 136.078262 
L 225.603918 136.742692 
L 225.516327 137.407122 
L 225.424486 138.071552 
L 225.328386 138.735982 
L 225.228014 139.400412 
L 225.123358 140.064842 
L 225.014406 140.729273 
L 224.901144 141.393703 
L 224.783558 142.058133 
L 224.661634 142.722563 
L 224.535356 143.386993 
L 224.404708 144.051423 
L 224.269675 144.715853 
L 224.13024 145.380283 
L 223.986384 146.044713 
L 223.838089 146.709143 
L 223.685337 147.373574 
L 223.528107 148.038004 
L 223.36638 148.702434 
L 223.200134 149.366864 
L 223.029347 150.031294 
L 222.853997 150.695724 
L 222.674061 151.360154 
L 222.489514 152.024584 
L 222.300331 152.689014 
L 222.106488 153.353444 
L 221.907956 154.017874 
L 221.70471 154.682305 
L 221.49672 155.346735 
L 221.283958 156.011165 
L 221.066393 156.675595 
L 220.843995 157.340025 
L 220.616732 158.004455 
L 220.38457 158.668885 
L 220.147475 159.333315 
L 219.905413 159.997745 
L 219.658348 160.662175 
L 219.406242 161.326606 
L 219.149057 161.991036 
L 218.886753 162.655466 
L 218.61929 163.319896 
L 218.346626 163.984326 
L 218.068717 164.648756 
L 217.78552 165.313186 
z
" clip-path="url(#p55bed58f67)" style="fill: #cccccc; fill-opacity: 0.6; stroke: #808080; stroke-linejoin: miter"/>
   </g>
   <g id="matplotlib.axis_1">
    <g id="xtick_1">
     <g id="line2d_1">
      <path d="M 64.157699 239.04375 
L 64.157699 7.2 
" clip-path="url(#p55bed58f67)" style="fill: none; stroke: #b0b0b0; stroke-opacity: 0.25; stroke-width: 0.8; stroke-linecap: square"/>
     </g>
     <g id="line2d_2">
      <defs>
       <path id="m44ed204e65" d="M 0 0 
L 0 3.5 
" style="stroke: #000000; stroke-width: 0.8"/>
      </defs>
      <g>
       <use xlink:href="#m44ed204e65" x="64.157699" y="239.04375" style="stroke: #000000; stroke-width: 0.8"/>
      </g>
     </g>
     <g id="text_1">
      <!-- −10 -->
      <g transform="translate(55.715824 252.1225) scale(0.08 -0.08)">
       <defs>
        <path id="DejaVuSans-2212" d="M 678 2272 
L 4684 2272 
L 4684 1741 
L 678 1741 
L 678 2272 
z
" transform="scale(0.015625)"/>
        <path id="DejaVuSans-31" d="M 794 531 
L 1825 531 
L 1825 4091 
L 703 3866 
L 703 4441 
L 1819 4666 
L 2450 4666 
L 2450 531 
L 3481 531 
L 3481 0 
L 794 0 
L 794 531 
z
" transform="scale(0.015625)"/>
        <path id="DejaVuSans-30" d="M 2034 4250 
Q 1547 4250 1301 3770 
Q 1056 3291 1056 2328 
Q 1056 1369 1301 889 
Q 1547 409 2034 409 
Q 2525 409 2770 889 
Q 3016 1369 3016 2328 
Q 3016 3291 2770 3770 
Q 2525 4250 2034 4250 
z
M 2034 4750 
Q 2819 4750 3233 4129 
Q 3647 3509 3647 2328 
Q 3647 1150 3233 529 
Q 2819 -91 2034 -91 
Q 1250 -91 836 529 
Q 422 1150 422 2328 
Q 422 3509 836 4129 
Q 1250 4750 2034 4750 
z
" transform="scale(0.015625)"/>
       </defs>
       <use xlink:href="#DejaVuSans-2212"/>
       <use xlink:href="#DejaVuSans-31" transform="translate(83.789062 0)"/>
       <use xlink:href="#DejaVuSans-30" transform="translate(147.412109 0)"/>
      </g>
     </g>
    </g>
    <g id="xtick_2">
     <g id="line2d_3">
      <path d="M 122.192978 239.04375 
L 122.192978 7.2 
" clip-path="url(#p55bed58f67)" style="fill: none; stroke: #b0b0b0; stroke-opacity: 0.25; stroke-width: 0.8; stroke-linecap: square"/>
     </g>
     <g id="line2d_4">
      <g>
       <use xlink:href="#m44ed204e65" x="122.192978" y="239.04375" style="stroke: #000000; stroke-width: 0.8"/>
      </g>
     </g>
     <g id="text_2">
      <!-- 0 -->
      <g transform="translate(119.647978 252.1225) scale(0.08 -0.08)">
       <use xlink:href="#DejaVuSans-30"/>
      </g>
     </g>
    </g>
    <g id="xtick_3">
     <g id="line2d_5">
      <path d="M 180.228257 239.04375 
L 180.228257 7.2 
" clip-path="url(#p55bed58f67)" style="fill: none; stroke: #b0b0b0; stroke-opacity: 0.25; stroke-width: 0.8; stroke-linecap: square"/>
     </g>
     <g id="line2d_6">
      <g>
       <use xlink:href="#m44ed204e65" x="180.228257" y="239.04375" style="stroke: #000000; stroke-width: 0.8"/>
      </g>
     </g>
     <g id="text_3">
      <!-- 10 -->
      <g transform="translate(175.138257 252.1225) scale(0.08 -0.08)">
       <use xlink:href="#DejaVuSans-31"/>
       <use xlink:href="#DejaVuSans-30" transform="translate(63.623047 0)"/>
      </g>
     </g>
    </g>
    <g id="xtick_4">
     <g id="line2d_7">
      <path d="M 238.263536 239.04375 
L 238.263536 7.2 
" clip-path="url(#p55bed58f67)" style="fill: none; stroke: #b0b0b0; stroke-opacity: 0.25; stroke-width: 0.8; stroke-linecap: square"/>
     </g>
     <g id="line2d_8">
      <g>
       <use xlink:href="#m44ed204e65" x="238.263536" y="239.04375" style="stroke: #000000; stroke-width: 0.8"/>
      </g>
     </g>
     <g id="text_4">
      <!-- 20 -->
      <g transform="translate(233.173536 252.1225) scale(0.08 -0.08)">
       <defs>
        <path id="DejaVuSans-32" d="M 1228 531 
L 3431 531 
L 3431 0 
L 469 0 
L 469 531 
Q 828 903 1448 1529 
Q 2069 2156 2228 2338 
Q 2531 2678 2651 2914 
Q 2772 3150 2772 3378 
Q 2772 3750 2511 3984 
Q 2250 4219 1831 4219 
Q 1534 4219 1204 4116 
Q 875 4013 500 3803 
L 500 4441 
Q 881 4594 1212 4672 
Q 1544 4750 1819 4750 
Q 2544 4750 2975 4387 
Q 3406 4025 3406 3419 
Q 3406 3131 3298 2873 
Q 3191 2616 2906 2266 
Q 2828 2175 2409 1742 
Q 1991 1309 1228 531 
z
" transform="scale(0.015625)"/>
       </defs>
       <use xlink:href="#DejaVuSans-32"/>
       <use xlink:href="#DejaVuSans-30" transform="translate(63.623047 0)"/>
      </g>
     </g>
    </g>
    <g id="xtick_5">
     <g id="line2d_9">
      <path d="M 296.298815 239.04375 
L 296.298815 7.2 
" clip-path="url(#p55bed58f67)" style="fill: none; stroke: #b0b0b0; stroke-opacity: 0.25; stroke-width: 0.8; stroke-linecap: square"/>
     </g>
     <g id="line2d_10">
      <g>
       <use xlink:href="#m44ed204e65" x="296.298815" y="239.04375" style="stroke: #000000; stroke-width: 0.8"/>
      </g>
     </g>
     <g id="text_5">
      <!-- 30 -->
      <g transform="translate(291.208815 252.1225) scale(0.08 -0.08)">
       <defs>
        <path id="DejaVuSans-33" d="M 2597 2516 
Q 3050 2419 3304 2112 
Q 3559 1806 3559 1356 
Q 3559 666 3084 287 
Q 2609 -91 1734 -91 
Q 1441 -91 1130 -33 
Q 819 25 488 141 
L 488 750 
Q 750 597 1062 519 
Q 1375 441 1716 441 
Q 2309 441 2620 675 
Q 2931 909 2931 1356 
Q 2931 1769 2642 2001 
Q 2353 2234 1838 2234 
L 1294 2234 
L 1294 2753 
L 1863 2753 
Q 2328 2753 2575 2939 
Q 2822 3125 2822 3475 
Q 2822 3834 2567 4026 
Q 2313 4219 1838 4219 
Q 1578 4219 1281 4162 
Q 984 4106 628 3988 
L 628 4550 
Q 988 4650 1302 4700 
Q 1616 4750 1894 4750 
Q 2613 4750 3031 4423 
Q 3450 4097 3450 3541 
Q 3450 3153 3228 2886 
Q 3006 2619 2597 2516 
z
" transform="scale(0.015625)"/>
       </defs>
       <use xlink:href="#DejaVuSans-33"/>
       <use xlink:href="#DejaVuSans-30" transform="translate(63.623047 0)"/>
      </g>
     </g>
    </g>
    <g id="xtick_6">
     <g id="line2d_11">
      <path d="M 354.334094 239.04375 
L 354.334094 7.2 
" clip-path="url(#p55bed58f67)" style="fill: none; stroke: #b0b0b0; stroke-opacity: 0.25; stroke-width: 0.8; stroke-linecap: square"/>
     </g>
     <g id="line2d_12">
      <g>
       <use xlink:href="#m44ed204e65" x="354.334094" y="239.04375" style="stroke: #000000; stroke-width: 0.8"/>
      </g>
     </g>
     <g id="text_6">
      <!-- 40 -->
      <g transform="translate(349.244094 252.1225) scale(0.08 -0.08)">
       <defs>
        <path id="DejaVuSans-34" d="M 2419 4116 
L 825 1625 
L 2419 1625 
L 2419 4116 
z
M 2253 4666 
L 3047 4666 
L 3047 1625 
L 3713 1625 
L 3713 1100 
L 3047 1100 
L 3047 0 
L 2419 0 
L 2419 1100 
L 313 1100 
L 313 1709 
L 2253 4666 
z
" transform="scale(0.015625)"/>
       </defs>
       <use xlink:href="#DejaVuSans-34"/>
       <use xlink:href="#DejaVuSans-30" transform="translate(63.623047 0)"/>
      </g>
     </g>
    </g>
    <g id="xtick_7">
     <g id="line2d_13">
      <path d="M 412.369373 239.04375 
L 412.369373 7.2 
" clip-path="url(#p55bed58f67)" style="fill: none; stroke: #b0b0b0; stroke-opacity: 0.25; stroke-width: 0.8; stroke-linecap: square"/>
     </g>
     <g id="line2d_14">
      <g>
       <use xlink:href="#m44ed204e65" x="412.369373" y="239.04375" style="stroke: #000000; stroke-width: 0.8"/>
      </g>
     </g>
     <g id="text_7">
      <!-- 50 -->
      <g transform="translate(407.279373 252.1225) scale(0.08 -0.08)">
       <defs>
        <path id="DejaVuSans-35" d="M 691 4666 
L 3169 4666 
L 3169 4134 
L 1269 4134 
L 1269 2991 
Q 1406 3038 1543 3061 
Q 1681 3084 1819 3084 
Q 2600 3084 3056 2656 
Q 3513 2228 3513 1497 
Q 3513 744 3044 326 
Q 2575 -91 1722 -91 
Q 1428 -91 1123 -41 
Q 819 9 494 109 
L 494 744 
Q 775 591 1075 516 
Q 1375 441 1709 441 
Q 2250 441 2565 725 
Q 2881 1009 2881 1497 
Q 2881 1984 2565 2268 
Q 2250 2553 1709 2553 
Q 1456 2553 1204 2497 
Q 953 2441 691 2322 
L 691 4666 
z
" transform="scale(0.015625)"/>
       </defs>
       <use xlink:href="#DejaVuSans-35"/>
       <use xlink:href="#DejaVuSans-30" transform="translate(63.623047 0)"/>
      </g>
     </g>
    </g>
    <g id="xtick_8">
     <g id="line2d_15">
      <path d="M 470.404653 239.04375 
L 470.404653 7.2 
" clip-path="url(#p55bed58f67)" style="fill: none; stroke: #b0b0b0; stroke-opacity: 0.25; stroke-width: 0.8; stroke-linecap: square"/>
     </g>
     <g id="line2d_16">
      <g>
       <use xlink:href="#m44ed204e65" x="470.404653" y="239.04375" style="stroke: #000000; stroke-width: 0.8"/>
      </g>
     </g>
     <g id="text_8">
      <!-- 60 -->
      <g transform="translate(465.314653 252.1225) scale(0.08 -0.08)">
       <defs>
        <path id="DejaVuSans-36" d="M 2113 2584 
Q 1688 2584 1439 2293 
Q 1191 2003 1191 1497 
Q 1191 994 1439 701 
Q 1688 409 2113 409 
Q 2538 409 2786 701 
Q 3034 994 3034 1497 
Q 3034 2003 2786 2293 
Q 2538 2584 2113 2584 
z
M 3366 4563 
L 3366 3988 
Q 3128 4100 2886 4159 
Q 2644 4219 2406 4219 
Q 1781 4219 1451 3797 
Q 1122 3375 1075 2522 
Q 1259 2794 1537 2939 
Q 1816 3084 2150 3084 
Q 2853 3084 3261 2657 
Q 3669 2231 3669 1497 
Q 3669 778 3244 343 
Q 2819 -91 2113 -91 
Q 1303 -91 875 529 
Q 447 1150 447 2328 
Q 447 3434 972 4092 
Q 1497 4750 2381 4750 
Q 2619 4750 2861 4703 
Q 3103 4656 3366 4563 
z
" transform="scale(0.015625)"/>
       </defs>
       <use xlink:href="#DejaVuSans-36"/>
       <use xlink:href="#DejaVuSans-30" transform="translate(63.623047 0)"/>
      </g>
     </g>
    </g>
    <g id="text_9">
     <!-- Z [mm] -->
     <g transform="translate(251.003438 264.624844) scale(0.09 -0.09)">
      <defs>
       <path id="DejaVuSans-5a" d="M 359 4666 
L 4025 4666 
L 4025 4184 
L 1075 531 
L 4097 531 
L 4097 0 
L 288 0 
L 288 481 
L 3238 4134 
L 359 4134 
L 359 4666 
z
" transform="scale(0.015625)"/>
       <path id="DejaVuSans-20" transform="scale(0.015625)"/>
       <path id="DejaVuSans-5b" d="M 550 4863 
L 1875 4863 
L 1875 4416 
L 1125 4416 
L 1125 -397 
L 1875 -397 
L 1875 -844 
L 550 -844 
L 550 4863 
z
" transform="scale(0.015625)"/>
       <path id="DejaVuSans-6d" d="M 3328 2828 
Q 3544 3216 3844 3400 
Q 4144 3584 4550 3584 
Q 5097 3584 5394 3201 
Q 5691 2819 5691 2113 
L 5691 0 
L 5113 0 
L 5113 2094 
Q 5113 2597 4934 2840 
Q 4756 3084 4391 3084 
Q 3944 3084 3684 2787 
Q 3425 2491 3425 1978 
L 3425 0 
L 2847 0 
L 2847 2094 
Q 2847 2600 2669 2842 
Q 2491 3084 2119 3084 
Q 1678 3084 1418 2786 
Q 1159 2488 1159 1978 
L 1159 0 
L 581 0 
L 581 3500 
L 1159 3500 
L 1159 2956 
Q 1356 3278 1631 3431 
Q 1906 3584 2284 3584 
Q 2666 3584 2933 3390 
Q 3200 3197 3328 2828 
z
" transform="scale(0.015625)"/>
       <path id="DejaVuSans-5d" d="M 1947 4863 
L 1947 -844 
L 622 -844 
L 622 -397 
L 1369 -397 
L 1369 4416 
L 622 4416 
L 622 4863 
L 1947 4863 
z
" transform="scale(0.015625)"/>
      </defs>
      <use xlink:href="#DejaVuSans-5a"/>
      <use xlink:href="#DejaVuSans-20" transform="translate(68.505859 0)"/>
      <use xlink:href="#DejaVuSans-5b" transform="translate(100.292969 0)"/>
      <use xlink:href="#DejaVuSans-6d" transform="translate(139.306641 0)"/>
      <use xlink:href="#DejaVuSans-6d" transform="translate(236.71875 0)"/>
      <use xlink:href="#DejaVuSans-5d" transform="translate(334.130859 0)"/>
     </g>
    </g>
   </g>
   <g id="matplotlib.axis_2">
    <g id="ytick_1">
     <g id="line2d_17">
      <path d="M 43.794063 210.174794 
L 491.794063 210.174794 
" clip-path="url(#p55bed58f67)" style="fill: none; stroke: #b0b0b0; stroke-opacity: 0.25; stroke-width: 0.8; stroke-linecap: square"/>
     </g>
     <g id="line2d_18">
      <defs>
       <path id="mf7970b5398" d="M 0 0 
L -3.5 0 
" style="stroke: #000000; stroke-width: 0.8"/>
      </defs>
      <g>
       <use xlink:href="#mf7970b5398" x="43.794063" y="210.174794" style="stroke: #000000; stroke-width: 0.8"/>
      </g>
     </g>
     <g id="text_10">
      <!-- −15 -->
      <g transform="translate(19.910313 213.214169) scale(0.08 -0.08)">
       <use xlink:href="#DejaVuSans-2212"/>
       <use xlink:href="#DejaVuSans-31" transform="translate(83.789062 0)"/>
       <use xlink:href="#DejaVuSans-35" transform="translate(147.412109 0)"/>
      </g>
     </g>
    </g>
    <g id="ytick_2">
     <g id="line2d_19">
      <path d="M 43.794063 181.157154 
L 491.794063 181.157154 
" clip-path="url(#p55bed58f67)" style="fill: none; stroke: #b0b0b0; stroke-opacity: 0.25; stroke-width: 0.8; stroke-linecap: square"/>
     </g>
     <g id="line2d_20">
      <g>
       <use xlink:href="#mf7970b5398" x="43.794063" y="181.157154" style="stroke: #000000; stroke-width: 0.8"/>
      </g>
     </g>
     <g id="text_11">
      <!-- −10 -->
      <g transform="translate(19.910313 184.196529) scale(0.08 -0.08)">
       <use xlink:href="#DejaVuSans-2212"/>
       <use xlink:href="#DejaVuSans-31" transform="translate(83.789062 0)"/>
       <use xlink:href="#DejaVuSans-30" transform="translate(147.412109 0)"/>
      </g>
     </g>
    </g>
    <g id="ytick_3">
     <g id="line2d_21">
      <path d="M 43.794063 152.139515 
L 491.794063 152.139515 
" clip-path="url(#p55bed58f67)" style="fill: none; stroke: #b0b0b0; stroke-opacity: 0.25; stroke-width: 0.8; stroke-linecap: square"/>
     </g>
     <g id="line2d_22">
      <g>
       <use xlink:href="#mf7970b5398" x="43.794063" y="152.139515" style="stroke: #000000; stroke-width: 0.8"/>
      </g>
     </g>
     <g id="text_12">
      <!-- −5 -->
      <g transform="translate(25.000312 155.17889) scale(0.08 -0.08)">
       <use xlink:href="#DejaVuSans-2212"/>
       <use xlink:href="#DejaVuSans-35" transform="translate(83.789062 0)"/>
      </g>
     </g>
    </g>
    <g id="ytick_4">
     <g id="line2d_23">
      <path d="M 43.794063 123.121875 
L 491.794063 123.121875 
" clip-path="url(#p55bed58f67)" style="fill: none; stroke: #b0b0b0; stroke-opacity: 0.25; stroke-width: 0.8; stroke-linecap: square"/>
     </g>
     <g id="line2d_24">
      <g>
       <use xlink:href="#mf7970b5398" x="43.794063" y="123.121875" style="stroke: #000000; stroke-width: 0.8"/>
      </g>
     </g>
     <g id="text_13">
      <!-- 0 -->
      <g transform="translate(31.704063 126.16125) scale(0.08 -0.08)">
       <use xlink:href="#DejaVuSans-30"/>
      </g>
     </g>
    </g>
    <g id="ytick_5">
     <g id="line2d_25">
      <path d="M 43.794063 94.104236 
L 491.794063 94.104236 
" clip-path="url(#p55bed58f67)" style="fill: none; stroke: #b0b0b0; stroke-opacity: 0.25; stroke-width: 0.8; stroke-linecap: square"/>
     </g>
     <g id="line2d_26">
      <g>
       <use xlink:href="#mf7970b5398" x="43.794063" y="94.104236" style="stroke: #000000; stroke-width: 0.8"/>
      </g>
     </g>
     <g id="text_14">
      <!-- 5 -->
      <g transform="translate(31.704063 97.143611) scale(0.08 -0.08)">
       <use xlink:href="#DejaVuSans-35"/>
      </g>
     </g>
    </g>
    <g id="ytick_6">
     <g id="line2d_27">
      <path d="M 43.794063 65.086596 
L 491.794063 65.086596 
" clip-path="url(#p55bed58f67)" style="fill: none; stroke: #b0b0b0; stroke-opacity: 0.25; stroke-width: 0.8; stroke-linecap: square"/>
     </g>
     <g id="line2d_28">
      <g>
       <use xlink:href="#mf7970b5398" x="43.794063" y="65.086596" style="stroke: #000000; stroke-width: 0.8"/>
      </g>
     </g>
     <g id="text_15">
      <!-- 10 -->
      <g transform="translate(26.614063 68.125971) scale(0.08 -0.08)">
       <use xlink:href="#DejaVuSans-31"/>
       <use xlink:href="#DejaVuSans-30" transform="translate(63.623047 0)"/>
      </g>
     </g>
    </g>
    <g id="ytick_7">
     <g id="line2d_29">
      <path d="M 43.794063 36.068956 
L 491.794063 36.068956 
" clip-path="url(#p55bed58f67)" style="fill: none; stroke: #b0b0b0; stroke-opacity: 0.25; stroke-width: 0.8; stroke-linecap: square"/>
     </g>
     <g id="line2d_30">
      <g>
       <use xlink:href="#mf7970b5398" x="43.794063" y="36.068956" style="stroke: #000000; stroke-width: 0.8"/>
      </g>
     </g>
     <g id="text_16">
      <!-- 15 -->
      <g transform="translate(26.614063 39.108331) scale(0.08 -0.08)">
       <use xlink:href="#DejaVuSans-31"/>
       <use xlink:href="#DejaVuSans-35" transform="translate(63.623047 0)"/>
      </g>
     </g>
    </g>
    <g id="text_17">
     <!-- Y [mm] -->
     <g transform="translate(14.038594 139.578516) rotate(-90) scale(0.09 -0.09)">
      <defs>
       <path id="DejaVuSans-59" d="M -13 4666 
L 666 4666 
L 1959 2747 
L 3244 4666 
L 3922 4666 
L 2272 2222 
L 2272 0 
L 1638 0 
L 1638 2222 
L -13 4666 
z
" transform="scale(0.015625)"/>
      </defs>
      <use xlink:href="#DejaVuSans-59"/>
      <use xlink:href="#DejaVuSans-20" transform="translate(61.083984 0)"/>
      <use xlink:href="#DejaVuSans-5b" transform="translate(92.871094 0)"/>
      <use xlink:href="#DejaVuSans-6d" transform="translate(131.884766 0)"/>
      <use xlink:href="#DejaVuSans-6d" transform="translate(229.296875 0)"/>
      <use xlink:href="#DejaVuSans-5d" transform="translate(326.708984 0)"/>
     </g>
    </g>
   </g>
   <g id="line2d_31">
    <path d="M 64.157699 152.139515 
L 125.532036 152.139515 
L 140.955327 150.768008 
L 173.971949 145.738887 
L 183.922276 145.509069 
L 209.997716 147.703672 
L 223.507191 148.124989 
L 471.430426 123.097525 
" clip-path="url(#p55bed58f67)" style="fill: none; stroke: #1f77b4; stroke-linecap: square"/>
   </g>
   <g id="line2d_32">
    <path d="M 64.157699 123.121875 
L 122.192978 123.121875 
L 141.106443 123.121875 
L 175.971427 123.121875 
L 181.774781 123.121875 
L 209.343918 123.121875 
L 226.476397 123.121875 
L 471.430426 123.121875 
" clip-path="url(#p55bed58f67)" style="fill: none; stroke: #1f77b4; stroke-linecap: square"/>
   </g>
   <g id="line2d_33">
    <path d="M 64.157699 94.104236 
L 125.532036 94.104236 
L 140.955327 95.475742 
L 173.971949 100.504863 
L 183.922276 100.734681 
L 209.997716 98.540078 
L 223.507191 98.118761 
L 471.430426 123.146225 
" clip-path="url(#p55bed58f67)" style="fill: none; stroke: #1f77b4; stroke-linecap: square"/>
   </g>
   <g id="line2d_34">
    <path d="M 64.157699 183.267221 
L 129.91742 166.871482 
L 140.781014 163.691358 
L 173.884329 146.225167 
L 183.665603 144.140175 
L 209.5864 138.095533 
L 225.744454 135.601678 
L 471.430426 51.187249 
" clip-path="url(#p55bed58f67)" style="fill: none; stroke: #ff7f0e; stroke-linecap: square"/>
   </g>
   <g id="line2d_35">
    <path d="M 64.157699 154.249582 
L 123.249269 139.516399 
L 141.074132 135.905611 
L 175.969098 123.896912 
L 181.775454 122.723877 
L 209.449171 113.255958 
L 225.679001 110.098024 
L 471.430426 51.04325 
" clip-path="url(#p55bed58f67)" style="fill: none; stroke: #ff7f0e; stroke-linecap: square"/>
   </g>
   <g id="line2d_36">
    <path d="M 64.157699 125.231942 
L 122.807233 110.608971 
L 141.064668 108.586009 
L 174.338607 102.668873 
L 183.863996 101.037791 
L 210.589811 89.198958 
L 220.194194 87.040266 
L 471.430426 50.806739 
" clip-path="url(#p55bed58f67)" style="fill: none; stroke: #ff7f0e; stroke-linecap: square"/>
   </g>
   <g id="line2d_37">
    <path d="M 64.157699 197.579893 
L 132.246299 172.797669 
L 140.680372 169.542174 
L 174.170249 144.596392 
L 183.272167 141.841821 
L 209.418706 131.438434 
L 226.393269 127.334019 
L 471.430426 17.967901 
" clip-path="url(#p55bed58f67)" style="fill: none; stroke: #2ca02c; stroke-linecap: square"/>
   </g>
   <g id="line2d_38">
    <path d="M 64.157699 168.562253 
L 124.377092 146.644187 
L 141.037859 141.746736 
L 175.970806 123.522035 
L 181.782162 121.8034 
L 209.622949 107.059644 
L 224.527193 102.814585 
L 471.430426 17.868942 
" clip-path="url(#p55bed58f67)" style="fill: none; stroke: #2ca02c; stroke-linecap: square"/>
   </g>
   <g id="line2d_39">
    <path d="M 64.157699 139.544614 
L 122.280653 118.389588 
L 141.092191 114.631556 
L 174.473164 103.524586 
L 183.858499 101.066605 
L 211.083102 83.052782 
L 217.78552 80.930564 
L 471.430426 17.738352 
" clip-path="url(#p55bed58f67)" style="fill: none; stroke: #2ca02c; stroke-linecap: square"/>
   </g>
   <g id="line2d_40">
    <path d="M 471.430426 228.505398 
L 471.430426 17.738352 
L 471.430426 17.738352 
" clip-path="url(#p55bed58f67)" style="fill: none; stroke: #808080; stroke-width: 1.5; stroke-linecap: square"/>
   </g>
   <g id="patch_6">
    <path d="M 43.794063 239.04375 
L 43.794063 7.2 
" style="fill: none; stroke: #000000; stroke-width: 0.8; stroke-linejoin: miter; stroke-linecap: square"/>
   </g>
   <g id="patch_7">
    <path d="M 491.794063 239.04375 
L 491.794063 7.2 
" style="fill: none; stroke: #000000; stroke-width: 0.8; stroke-linejoin: miter; stroke-linecap: square"/>
   </g>
   <g id="patch_8">
    <path d="M 43.794062 239.04375 
L 491.794062 239.04375 
" style="fill: none; stroke: #000000; stroke-width: 0.8; stroke-linejoin: miter; stroke-linecap: square"/>
   </g>
   <g id="patch_9">
    <path d="M 43.794062 7.2 
L 491.794062 7.2 
" style="fill: none; stroke: #000000; stroke-width: 0.8; stroke-linejoin: miter; stroke-linecap: square"/>
   </g>
  </g>
 </g>
 <defs>
  <clipPath id="p55bed58f67">
   <rect x="43.794063" y="7.2" width="448" height="231.84375"/>
  </clipPath>
 </defs>
</svg>
