<?xml version="1.0" encoding="utf-8" standalone="no"?>
<!DOCTYPE svg PUBLIC "-//W3C//DTD SVG 1.1//EN"
  "http://www.w3.org/Graphics/SVG/1.1/DTD/svg11.dtd">
<svg xmlns:xlink="http://www.w3.org/1999/xlink" width="496.442812pt" height="272.594485pt" viewBox="0 0 496.442812 272.594485" xmlns="http://www.w3.org/2000/svg" version="1.1">
 <metadata>
  <rdf:RDF xmlns:dc="http://purl.org/dc/elements/1.1/" xmlns:cc="http://creativecommons.org/ns#" xmlns:rdf="http://www.w3.org/1999/02/22-rdf-syntax-ns#">
   <cc:Work>
    <dc:type rdf:resource="http://purl.org/dc/dcmitype/StillImage"/>
    <dc:date>2025-09-09T19:51:25.756885</dc:date>
    <dc:format>image/svg+xml</dc:format>
    <dc:creator>
     <cc:Agent>
      <dc:title>Matplotlib v3.10.1, https://matplotlib.org/</dc:title>
     </cc:Agent>
    </dc:creator>
   </cc:Work>
  </rdf:RDF>
 </metadata>
 <defs>
  <style type="text/css">*{stroke-linejoin: round; stroke-linecap: butt}</style>
 </defs>
 <g id="figure_1">
  <g id="patch_1">
   <path d="M -0 272.594485 
L 496.442812 272.594485 
L 496.442812 0 
L -0 0 
z
" style="fill: #ffffff"/>
  </g>
  <g id="axes_1">
   <g id="patch_2">
    <path d="M 48.982813 235.038235 
L 489.242812 235.038235 
L 489.242812 7.2 
L 48.982813 7.2 
z
" style="fill: #f8f9fa"/>
   </g>
   <g id="patch_3">
    <path d="M 135.906878 169.936674 
L 135.585421 169.167893 
L 135.269934 168.399113 
L 134.960369 167.630333 
L 134.656678 166.861552 
L 134.358815 166.092772 
L 134.066737 165.323991 
L 133.780401 164.555211 
L 133.499764 163.786431 
L 133.224786 163.01765 
L 132.955428 162.24887 
L 132.691652 161.480089 
L 132.43342 160.711309 
L 132.180697 159.942528 
L 131.933447 159.173748 
L 131.691636 158.404968 
L 131.455233 157.636187 
L 131.224205 156.867407 
L 130.998521 156.098626 
L 130.778151 155.329846 
L 130.563066 154.561066 
L 130.353238 153.792285 
L 130.14864 153.023505 
L 129.949245 152.254724 
L 129.755028 151.485944 
L 129.565965 150.717164 
L 129.38203 149.948383 
L 129.203201 149.179603 
L 129.029456 148.410822 
L 128.860773 147.642042 
L 128.697132 146.873261 
L 128.538511 146.104481 
L 128.384893 145.335701 
L 128.236257 144.56692 
L 128.092586 143.79814 
L 127.953863 143.029359 
L 127.820071 142.260579 
L 127.691195 141.491799 
L 127.567218 140.723018 
L 127.448126 139.954238 
L 127.333905 139.185457 
L 127.224542 138.416677 
L 127.120024 137.647897 
L 127.020338 136.879116 
L 126.925474 136.110336 
L 126.835419 135.341555 
L 126.750164 134.572775 
L 126.669699 133.803994 
L 126.594015 133.035214 
L 126.523102 132.266434 
L 126.456953 131.497653 
L 126.39556 130.728873 
L 126.338917 129.960092 
L 126.287016 129.191312 
L 126.239853 128.422532 
L 126.197421 127.653751 
L 126.159715 126.884971 
L 126.126732 126.11619 
L 126.098468 125.34741 
L 126.074919 124.57863 
L 126.056083 123.809849 
L 126.041959 123.041069 
L 126.032543 122.272288 
L 126.027835 121.503508 
L 126.027835 120.734727 
L 126.032543 119.965947 
L 126.041959 119.197167 
L 126.056083 118.428386 
L 126.074919 117.659606 
L 126.098468 116.890825 
L 126.126732 116.122045 
L 126.159715 115.353265 
L 126.197421 114.584484 
L 126.239853 113.815704 
L 126.287016 113.046923 
L 126.338917 112.278143 
L 126.39556 111.509363 
L 126.456953 110.740582 
L 126.523102 109.971802 
L 126.594015 109.203021 
L 126.669699 108.434241 
L 126.750164 107.66546 
L 126.835419 106.89668 
L 126.925474 106.1279 
L 127.020338 105.359119 
L 127.120024 104.590339 
L 127.224542 103.821558 
L 127.333905 103.052778 
L 127.448126 102.283998 
L 127.567218 101.515217 
L 127.691195 100.746437 
L 127.820071 99.977656 
L 127.953863 99.208876 
L 128.092586 98.440095 
L 128.236257 97.671315 
L 128.384893 96.902535 
L 128.538511 96.133754 
L 128.697132 95.364974 
L 128.860773 94.596193 
L 129.029456 93.827413 
L 129.203201 93.058633 
L 129.38203 92.289852 
L 129.565965 91.521072 
L 129.755028 90.752291 
L 129.949245 89.983511 
L 130.14864 89.214731 
L 130.353238 88.44595 
L 130.563066 87.67717 
L 130.778151 86.908389 
L 130.998521 86.139609 
L 131.224205 85.370828 
L 131.455233 84.602048 
L 131.691636 83.833268 
L 131.933447 83.064487 
L 132.180697 82.295707 
L 132.43342 81.526926 
L 132.691652 80.758146 
L 132.955428 79.989366 
L 133.224786 79.220585 
L 133.499764 78.451805 
L 133.780401 77.683024 
L 134.066737 76.914244 
L 134.358815 76.145464 
L 134.656678 75.376683 
L 134.960369 74.607903 
L 135.269934 73.839122 
L 135.585421 73.070342 
L 135.906878 72.301561 
L 144.195238 72.301561 
L 144.195238 75.500812 
L 144.208323 76.21921 
L 144.2212 76.937609 
L 144.233869 77.656007 
L 144.246331 78.374406 
L 144.258585 79.092804 
L 144.270631 79.811203 
L 144.282469 80.529601 
L 144.2941 81.248 
L 144.305523 81.966398 
L 144.316738 82.684797 
L 144.327746 83.403196 
L 144.338545 84.121594 
L 144.349137 84.839993 
L 144.359522 85.558391 
L 144.369698 86.27679 
L 144.379667 86.995188 
L 144.389428 87.713587 
L 144.398981 88.431985 
L 144.408327 89.150384 
L 144.417465 89.868782 
L 144.426395 90.587181 
L 144.435118 91.305579 
L 144.443632 92.023978 
L 144.45194 92.742376 
L 144.460039 93.460775 
L 144.467931 94.179173 
L 144.475615 94.897572 
L 144.483091 95.61597 
L 144.490359 96.334369 
L 144.49742 97.052767 
L 144.504274 97.771166 
L 144.510919 98.489564 
L 144.517357 99.207963 
L 144.523587 99.926361 
L 144.529609 100.64476 
L 144.535424 101.363158 
L 144.541031 102.081557 
L 144.546431 102.799955 
L 144.551622 103.518354 
L 144.556606 104.236753 
L 144.561383 104.955151 
L 144.565951 105.67355 
L 144.570312 106.391948 
L 144.574466 107.110347 
L 144.578411 107.828745 
L 144.582149 108.547144 
L 144.58568 109.265542 
L 144.589002 109.983941 
L 144.592117 110.702339 
L 144.595025 111.420738 
L 144.597724 112.139136 
L 144.600216 112.857535 
L 144.602501 113.575933 
L 144.604577 114.294332 
L 144.606446 115.01273 
L 144.608108 115.731129 
L 144.609561 116.449527 
L 144.610807 117.167926 
L 144.611846 117.886324 
L 144.612676 118.604723 
L 144.613299 119.323121 
L 144.613715 120.04152 
L 144.613922 120.759918 
L 144.613922 121.478317 
L 144.613715 122.196715 
L 144.613299 122.915114 
L 144.612676 123.633512 
L 144.611846 124.351911 
L 144.610807 125.07031 
L 144.609561 125.788708 
L 144.608108 126.507107 
L 144.606446 127.225505 
L 144.604577 127.943904 
L 144.602501 128.662302 
L 144.600216 129.380701 
L 144.597724 130.099099 
L 144.595025 130.817498 
L 144.592117 131.535896 
L 144.589002 132.254295 
L 144.58568 132.972693 
L 144.582149 133.691092 
L 144.578411 134.40949 
L 144.574466 135.127889 
L 144.570312 135.846287 
L 144.565951 136.564686 
L 144.561383 137.283084 
L 144.556606 138.001483 
L 144.551622 138.719881 
L 144.546431 139.43828 
L 144.541031 140.156678 
L 144.535424 140.875077 
L 144.529609 141.593475 
L 144.523587 142.311874 
L 144.517357 143.030272 
L 144.510919 143.748671 
L 144.504274 144.467069 
L 144.49742 145.185468 
L 144.490359 145.903867 
L 144.483091 146.622265 
L 144.475615 147.340664 
L 144.467931 148.059062 
L 144.460039 148.777461 
L 144.45194 149.495859 
L 144.443632 150.214258 
L 144.435118 150.932656 
L 144.426395 151.651055 
L 144.417465 152.369453 
L 144.408327 153.087852 
L 144.398981 153.80625 
L 144.389428 154.524649 
L 144.379667 155.243047 
L 144.369698 155.961446 
L 144.359522 156.679844 
L 144.349137 157.398243 
L 144.338545 158.116641 
L 144.327746 158.83504 
L 144.316738 159.553438 
L 144.305523 160.271837 
L 144.2941 160.990235 
L 144.282469 161.708634 
L 144.270631 162.427032 
L 144.258585 163.145431 
L 144.246331 163.863829 
L 144.233869 164.582228 
L 144.2212 165.300626 
L 144.208323 166.019025 
L 144.195238 166.737424 
L 144.195238 169.936674 
z
" clip-path="url(#p5e7f9a23b6)" style="fill: #cccccc; fill-opacity: 0.6; stroke: #808080; stroke-linejoin: miter"/>
   </g>
   <g id="patch_4">
    <path d="M 176.825538 143.823259 
L 176.890139 143.465713 
L 176.953683 143.108168 
L 177.01617 142.750622 
L 177.077602 142.393077 
L 177.137981 142.035531 
L 177.197308 141.677986 
L 177.255585 141.32044 
L 177.312813 140.962895 
L 177.368993 140.605349 
L 177.424128 140.247804 
L 177.478218 139.890258 
L 177.531265 139.532713 
L 177.583269 139.175167 
L 177.634234 138.817622 
L 177.684158 138.460076 
L 177.733045 138.10253 
L 177.780895 137.744985 
L 177.827709 137.387439 
L 177.873488 137.029894 
L 177.918234 136.672348 
L 177.961948 136.314803 
L 178.00463 135.957257 
L 178.046283 135.599712 
L 178.086906 135.242166 
L 178.126501 134.884621 
L 178.165068 134.527075 
L 178.202609 134.16953 
L 178.239125 133.811984 
L 178.274617 133.454439 
L 178.309085 133.096893 
L 178.34253 132.739347 
L 178.374953 132.381802 
L 178.406355 132.024256 
L 178.436737 131.666711 
L 178.466099 131.309165 
L 178.494442 130.95162 
L 178.521766 130.594074 
L 178.548073 130.236529 
L 178.573364 129.878983 
L 178.597637 129.521438 
L 178.620895 129.163892 
L 178.643138 128.806347 
L 178.664366 128.448801 
L 178.68458 128.091256 
L 178.70378 127.73371 
L 178.721967 127.376164 
L 178.739141 127.018619 
L 178.755303 126.661073 
L 178.770453 126.303528 
L 178.784591 125.945982 
L 178.797718 125.588437 
L 178.809834 125.230891 
L 178.820939 124.873346 
L 178.831034 124.5158 
L 178.840119 124.158255 
L 178.848194 123.800709 
L 178.855259 123.443164 
L 178.861314 123.085618 
L 178.86636 122.728073 
L 178.870397 122.370527 
L 178.873424 122.012981 
L 178.875442 121.655436 
L 178.876451 121.29789 
L 178.876451 120.940345 
L 178.875442 120.582799 
L 178.873424 120.225254 
L 178.870397 119.867708 
L 178.86636 119.510163 
L 178.861314 119.152617 
L 178.855259 118.795072 
L 178.848194 118.437526 
L 178.840119 118.079981 
L 178.831034 117.722435 
L 178.820939 117.36489 
L 178.809834 117.007344 
L 178.797718 116.649799 
L 178.784591 116.292253 
L 178.770453 115.934707 
L 178.755303 115.577162 
L 178.739141 115.219616 
L 178.721967 114.862071 
L 178.70378 114.504525 
L 178.68458 114.14698 
L 178.664366 113.789434 
L 178.643138 113.431889 
L 178.620895 113.074343 
L 178.597637 112.716798 
L 178.573364 112.359252 
L 178.548073 112.001707 
L 178.521766 111.644161 
L 178.494442 111.286616 
L 178.466099 110.92907 
L 178.436737 110.571524 
L 178.406355 110.213979 
L 178.374953 109.856433 
L 178.34253 109.498888 
L 178.309085 109.141342 
L 178.274617 108.783797 
L 178.239125 108.426251 
L 178.202609 108.068706 
L 178.165068 107.71116 
L 178.126501 107.353615 
L 178.086906 106.996069 
L 178.046283 106.638524 
L 178.00463 106.280978 
L 177.961948 105.923433 
L 177.918234 105.565887 
L 177.873488 105.208341 
L 177.827709 104.850796 
L 177.780895 104.49325 
L 177.733045 104.135705 
L 177.684158 103.778159 
L 177.634234 103.420614 
L 177.583269 103.063068 
L 177.531265 102.705523 
L 177.478218 102.347977 
L 177.424128 101.990432 
L 177.368993 101.632886 
L 177.312813 101.275341 
L 177.255585 100.917795 
L 177.197308 100.56025 
L 177.137981 100.202704 
L 177.077602 99.845158 
L 177.01617 99.487613 
L 176.953683 99.130067 
L 176.890139 98.772522 
L 176.825538 98.414976 
L 186.690061 98.414976 
L 186.690061 99.118703 
L 186.623522 99.465166 
L 186.558077 99.811629 
L 186.493725 100.158092 
L 186.430463 100.504555 
L 186.36829 100.851019 
L 186.307204 101.197482 
L 186.247203 101.543945 
L 186.188285 101.890408 
L 186.130449 102.236872 
L 186.073693 102.583335 
L 186.018015 102.929798 
L 185.963414 103.276261 
L 185.909889 103.622725 
L 185.857437 103.969188 
L 185.806058 104.315651 
L 185.755749 104.662114 
L 185.70651 105.008577 
L 185.65834 105.355041 
L 185.611236 105.701504 
L 185.565197 106.047967 
L 185.520223 106.39443 
L 185.476311 106.740894 
L 185.433461 107.087357 
L 185.391672 107.43382 
L 185.350942 107.780283 
L 185.311271 108.126747 
L 185.272656 108.47321 
L 185.235098 108.819673 
L 185.198594 109.166136 
L 185.163145 109.512599 
L 185.128748 109.859063 
L 185.095404 110.205526 
L 185.063111 110.551989 
L 185.031869 110.898452 
L 185.001675 111.244916 
L 184.972531 111.591379 
L 184.944434 111.937842 
L 184.917384 112.284305 
L 184.891381 112.630769 
L 184.866424 112.977232 
L 184.842511 113.323695 
L 184.819642 113.670158 
L 184.797818 114.016621 
L 184.777036 114.363085 
L 184.757297 114.709548 
L 184.7386 115.056011 
L 184.720945 115.402474 
L 184.70433 115.748938 
L 184.688756 116.095401 
L 184.674223 116.441864 
L 184.660729 116.788327 
L 184.648274 117.134791 
L 184.636858 117.481254 
L 184.626482 117.827717 
L 184.617143 118.17418 
L 184.608843 118.520643 
L 184.601581 118.867107 
L 184.595357 119.21357 
L 184.59017 119.560033 
L 184.586021 119.906496 
L 184.582909 120.25296 
L 184.580835 120.599423 
L 184.579798 120.945886 
L 184.579798 121.292349 
L 184.580835 121.638813 
L 184.582909 121.985276 
L 184.586021 122.331739 
L 184.59017 122.678202 
L 184.595357 123.024665 
L 184.601581 123.371129 
L 184.608843 123.717592 
L 184.617143 124.064055 
L 184.626482 124.410518 
L 184.636858 124.756982 
L 184.648274 125.103445 
L 184.660729 125.449908 
L 184.674223 125.796371 
L 184.688756 126.142835 
L 184.70433 126.489298 
L 184.720945 126.835761 
L 184.7386 127.182224 
L 184.757297 127.528687 
L 184.777036 127.875151 
L 184.797818 128.221614 
L 184.819642 128.568077 
L 184.842511 128.91454 
L 184.866424 129.261004 
L 184.891381 129.607467 
L 184.917384 129.95393 
L 184.944434 130.300393 
L 184.972531 130.646856 
L 185.001675 130.99332 
L 185.031869 131.339783 
L 185.063111 131.686246 
L 185.095404 132.032709 
L 185.128748 132.379173 
L 185.163145 132.725636 
L 185.198594 133.072099 
L 185.235098 133.418562 
L 185.272656 133.765026 
L 185.311271 134.111489 
L 185.350942 134.457952 
L 185.391672 134.804415 
L 185.433461 135.150878 
L 185.476311 135.497342 
L 185.520223 135.843805 
L 185.565197 136.190268 
L 185.611236 136.536731 
L 185.65834 136.883195 
L 185.70651 137.229658 
L 185.755749 137.576121 
L 185.806058 137.922584 
L 185.857437 138.269048 
L 185.909889 138.615511 
L 185.963414 138.961974 
L 186.018015 139.308437 
L 186.073693 139.6549 
L 186.130449 140.001364 
L 186.188285 140.347827 
L 186.247203 140.69429 
L 186.307204 141.040753 
L 186.36829 141.387217 
L 186.430463 141.73368 
L 186.493725 142.080143 
L 186.558077 142.426606 
L 186.623522 142.77307 
L 186.690061 143.119533 
L 186.690061 143.823259 
z
" clip-path="url(#p5e7f9a23b6)" style="fill: #cccccc; fill-opacity: 0.6; stroke: #808080; stroke-linejoin: miter"/>
   </g>
   <g id="patch_5">
    <path d="M 213.381635 162.581498 
L 213.381635 160.495945 
L 213.32813 159.875838 
L 213.275481 159.25573 
L 213.223686 158.635623 
L 213.172747 158.015515 
L 213.122662 157.395408 
L 213.073432 156.7753 
L 213.025055 156.155193 
L 212.977533 155.535085 
L 212.930863 154.914978 
L 212.885047 154.29487 
L 212.840084 153.674763 
L 212.795974 153.054655 
L 212.752716 152.434547 
L 212.71031 151.81444 
L 212.668756 151.194332 
L 212.628054 150.574225 
L 212.588203 149.954117 
L 212.549204 149.33401 
L 212.511056 148.713902 
L 212.473759 148.093795 
L 212.437312 147.473687 
L 212.401715 146.85358 
L 212.366969 146.233472 
L 212.333073 145.613365 
L 212.300027 144.993257 
L 212.26783 144.37315 
L 212.236483 143.753042 
L 212.205985 143.132935 
L 212.176337 142.512827 
L 212.147537 141.89272 
L 212.119586 141.272612 
L 212.092484 140.652505 
L 212.06623 140.032397 
L 212.040824 139.41229 
L 212.016267 138.792182 
L 211.992558 138.172075 
L 211.969697 137.551967 
L 211.947683 136.931859 
L 211.926517 136.311752 
L 211.906199 135.691644 
L 211.886728 135.071537 
L 211.868105 134.451429 
L 211.850329 133.831322 
L 211.8334 133.211214 
L 211.817317 132.591107 
L 211.802082 131.970999 
L 211.787694 131.350892 
L 211.774153 130.730784 
L 211.761458 130.110677 
L 211.74961 129.490569 
L 211.738608 128.870462 
L 211.728453 128.250354 
L 211.719145 127.630247 
L 211.710682 127.010139 
L 211.703067 126.390032 
L 211.696297 125.769924 
L 211.690374 125.149817 
L 211.685297 124.529709 
L 211.681066 123.909602 
L 211.677681 123.289494 
L 211.675143 122.669386 
L 211.673451 122.049279 
L 211.672605 121.429171 
L 211.672605 120.809064 
L 211.673451 120.188956 
L 211.675143 119.568849 
L 211.677681 118.948741 
L 211.681066 118.328634 
L 211.685297 117.708526 
L 211.690374 117.088419 
L 211.696297 116.468311 
L 211.703067 115.848204 
L 211.710682 115.228096 
L 211.719145 114.607989 
L 211.728453 113.987881 
L 211.738608 113.367774 
L 211.74961 112.747666 
L 211.761458 112.127559 
L 211.774153 111.507451 
L 211.787694 110.887344 
L 211.802082 110.267236 
L 211.817317 109.647129 
L 211.8334 109.027021 
L 211.850329 108.406913 
L 211.868105 107.786806 
L 211.886728 107.166698 
L 211.906199 106.546591 
L 211.926517 105.926483 
L 211.947683 105.306376 
L 211.969697 104.686268 
L 211.992558 104.066161 
L 212.016267 103.446053 
L 212.040824 102.825946 
L 212.06623 102.205838 
L 212.092484 101.585731 
L 212.119586 100.965623 
L 212.147537 100.345516 
L 212.176337 99.725408 
L 212.205985 99.105301 
L 212.236483 98.485193 
L 212.26783 97.865086 
L 212.300027 97.244978 
L 212.333073 96.624871 
L 212.366969 96.004763 
L 212.401715 95.384656 
L 212.437312 94.764548 
L 212.473759 94.14444 
L 212.511056 93.524333 
L 212.549204 92.904225 
L 212.588203 92.284118 
L 212.628054 91.66401 
L 212.668756 91.043903 
L 212.71031 90.423795 
L 212.752716 89.803688 
L 212.795974 89.18358 
L 212.840084 88.563473 
L 212.885047 87.943365 
L 212.930863 87.323258 
L 212.977533 86.70315 
L 213.025055 86.083043 
L 213.073432 85.462935 
L 213.122662 84.842828 
L 213.172747 84.22272 
L 213.223686 83.602613 
L 213.275481 82.982505 
L 213.32813 82.362398 
L 213.381635 81.74229 
L 213.381635 79.656737 
L 219.968256 79.656737 
L 220.246562 80.309688 
L 220.519669 80.962639 
L 220.787622 81.615589 
L 221.050464 82.26854 
L 221.308236 82.921491 
L 221.560978 83.574442 
L 221.808728 84.227393 
L 222.051525 84.880344 
L 222.289405 85.533295 
L 222.522403 86.186246 
L 222.750554 86.839197 
L 222.973892 87.492147 
L 223.192447 88.145098 
L 223.406253 88.798049 
L 223.615339 89.451 
L 223.819736 90.103951 
L 224.019471 90.756902 
L 224.214572 91.409853 
L 224.405067 92.062804 
L 224.590981 92.715754 
L 224.772339 93.368705 
L 224.949167 94.021656 
L 225.121488 94.674607 
L 225.289324 95.327558 
L 225.452698 95.980509 
L 225.611631 96.63346 
L 225.766144 97.286411 
L 225.916257 97.939361 
L 226.06199 98.592312 
L 226.20336 99.245263 
L 226.340387 99.898214 
L 226.473087 100.551165 
L 226.601477 101.204116 
L 226.725573 101.857067 
L 226.845391 102.510018 
L 226.960946 103.162968 
L 227.072251 103.815919 
L 227.179321 104.46887 
L 227.282169 105.121821 
L 227.380806 105.774772 
L 227.475246 106.427723 
L 227.5655 107.080674 
L 227.651578 107.733625 
L 227.733491 108.386576 
L 227.811249 109.039526 
L 227.884861 109.692477 
L 227.954335 110.345428 
L 228.019681 110.998379 
L 228.080905 111.65133 
L 228.138016 112.304281 
L 228.191019 112.957232 
L 228.239921 113.610183 
L 228.284728 114.263133 
L 228.325445 114.916084 
L 228.362076 115.569035 
L 228.394627 116.221986 
L 228.423101 116.874937 
L 228.447501 117.527888 
L 228.467829 118.180839 
L 228.48409 118.83379 
L 228.496283 119.48674 
L 228.504411 120.139691 
L 228.508475 120.792642 
L 228.508475 121.445593 
L 228.504411 122.098544 
L 228.496283 122.751495 
L 228.48409 123.404446 
L 228.467829 124.057397 
L 228.447501 124.710347 
L 228.423101 125.363298 
L 228.394627 126.016249 
L 228.362076 126.6692 
L 228.325445 127.322151 
L 228.284728 127.975102 
L 228.239921 128.628053 
L 228.191019 129.281004 
L 228.138016 129.933955 
L 228.080905 130.586905 
L 228.019681 131.239856 
L 227.954335 131.892807 
L 227.884861 132.545758 
L 227.811249 133.198709 
L 227.733491 133.85166 
L 227.651578 134.504611 
L 227.5655 135.157562 
L 227.475246 135.810512 
L 227.380806 136.463463 
L 227.282169 137.116414 
L 227.179321 137.769365 
L 227.072251 138.422316 
L 226.960946 139.075267 
L 226.845391 139.728218 
L 226.725573 140.381169 
L 226.601477 141.034119 
L 226.473087 141.68707 
L 226.340387 142.340021 
L 226.20336 142.992972 
L 226.06199 143.645923 
L 225.916257 144.298874 
L 225.766144 144.951825 
L 225.611631 145.604776 
L 225.452698 146.257726 
L 225.289324 146.910677 
L 225.121488 147.563628 
L 224.949167 148.216579 
L 224.772339 148.86953 
L 224.590981 149.522481 
L 224.405067 150.175432 
L 224.214572 150.828383 
L 224.019471 151.481334 
L 223.819736 152.134284 
L 223.615339 152.787235 
L 223.406253 153.440186 
L 223.192447 154.093137 
L 222.973892 154.746088 
L 222.750554 155.399039 
L 222.522403 156.05199 
L 222.289405 156.704941 
L 222.051525 157.357891 
L 221.808728 158.010842 
L 221.560978 158.663793 
L 221.308236 159.316744 
L 221.050464 159.969695 
L 220.787622 160.622646 
L 220.519669 161.275597 
L 220.246562 161.928548 
L 219.968256 162.581498 
z
" clip-path="url(#p5e7f9a23b6)" style="fill: #cccccc; fill-opacity: 0.6; stroke: #808080; stroke-linejoin: miter"/>
   </g>
   <g id="matplotlib.axis_1">
    <g id="xtick_1">
     <g id="line2d_1">
      <path d="M 68.994631 235.038235 
L 68.994631 7.2 
" clip-path="url(#p5e7f9a23b6)" style="fill: none; stroke: #b0b0b0; stroke-opacity: 0.25; stroke-width: 0.8; stroke-linecap: square"/>
     </g>
     <g id="line2d_2">
      <defs>
       <path id="mfbbeeafb77" d="M 0 0 
L 0 3.5 
" style="stroke: #000000; stroke-width: 0.8"/>
      </defs>
      <g>
       <use xlink:href="#mfbbeeafb77" x="68.994631" y="235.038235" style="stroke: #000000; stroke-width: 0.8"/>
      </g>
     </g>
     <g id="text_1">
      <!-- −10 -->
      <g transform="translate(58.442287 249.636673) scale(0.1 -0.1)">
       <defs>
        <path id="DejaVuSans-2212" d="M 678 2272 
L 4684 2272 
L 4684 1741 
L 678 1741 
L 678 2272 
z
" transform="scale(0.015625)"/>
        <path id="DejaVuSans-31" d="M 794 531 
L 1825 531 
L 1825 4091 
L 703 3866 
L 703 4441 
L 1819 4666 
L 2450 4666 
L 2450 531 
L 3481 531 
L 3481 0 
L 794 0 
L 794 531 
z
" transform="scale(0.015625)"/>
        <path id="DejaVuSans-30" d="M 2034 4250 
Q 1547 4250 1301 3770 
Q 1056 3291 1056 2328 
Q 1056 1369 1301 889 
Q 1547 409 2034 409 
Q 2525 409 2770 889 
Q 3016 1369 3016 2328 
Q 3016 3291 2770 3770 
Q 2525 4250 2034 4250 
z
M 2034 4750 
Q 2819 4750 3233 4129 
Q 3647 3509 3647 2328 
Q 3647 1150 3233 529 
Q 2819 -91 2034 -91 
Q 1250 -91 836 529 
Q 422 1150 422 2328 
Q 422 3509 836 4129 
Q 1250 4750 2034 4750 
z
" transform="scale(0.015625)"/>
       </defs>
       <use xlink:href="#DejaVuSans-2212"/>
       <use xlink:href="#DejaVuSans-31" transform="translate(83.789062 0)"/>
       <use xlink:href="#DejaVuSans-30" transform="translate(147.412109 0)"/>
      </g>
     </g>
    </g>
    <g id="xtick_2">
     <g id="line2d_3">
      <path d="M 126.027247 235.038235 
L 126.027247 7.2 
" clip-path="url(#p5e7f9a23b6)" style="fill: none; stroke: #b0b0b0; stroke-opacity: 0.25; stroke-width: 0.8; stroke-linecap: square"/>
     </g>
     <g id="line2d_4">
      <g>
       <use xlink:href="#mfbbeeafb77" x="126.027247" y="235.038235" style="stroke: #000000; stroke-width: 0.8"/>
      </g>
     </g>
     <g id="text_2">
      <!-- 0 -->
      <g transform="translate(122.845997 249.636673) scale(0.1 -0.1)">
       <use xlink:href="#DejaVuSans-30"/>
      </g>
     </g>
    </g>
    <g id="xtick_3">
     <g id="line2d_5">
      <path d="M 183.059863 235.038235 
L 183.059863 7.2 
" clip-path="url(#p5e7f9a23b6)" style="fill: none; stroke: #b0b0b0; stroke-opacity: 0.25; stroke-width: 0.8; stroke-linecap: square"/>
     </g>
     <g id="line2d_6">
      <g>
       <use xlink:href="#mfbbeeafb77" x="183.059863" y="235.038235" style="stroke: #000000; stroke-width: 0.8"/>
      </g>
     </g>
     <g id="text_3">
      <!-- 10 -->
      <g transform="translate(176.697363 249.636673) scale(0.1 -0.1)">
       <use xlink:href="#DejaVuSans-31"/>
       <use xlink:href="#DejaVuSans-30" transform="translate(63.623047 0)"/>
      </g>
     </g>
    </g>
    <g id="xtick_4">
     <g id="line2d_7">
      <path d="M 240.092479 235.038235 
L 240.092479 7.2 
" clip-path="url(#p5e7f9a23b6)" style="fill: none; stroke: #b0b0b0; stroke-opacity: 0.25; stroke-width: 0.8; stroke-linecap: square"/>
     </g>
     <g id="line2d_8">
      <g>
       <use xlink:href="#mfbbeeafb77" x="240.092479" y="235.038235" style="stroke: #000000; stroke-width: 0.8"/>
      </g>
     </g>
     <g id="text_4">
      <!-- 20 -->
      <g transform="translate(233.729979 249.636673) scale(0.1 -0.1)">
       <defs>
        <path id="DejaVuSans-32" d="M 1228 531 
L 3431 531 
L 3431 0 
L 469 0 
L 469 531 
Q 828 903 1448 1529 
Q 2069 2156 2228 2338 
Q 2531 2678 2651 2914 
Q 2772 3150 2772 3378 
Q 2772 3750 2511 3984 
Q 2250 4219 1831 4219 
Q 1534 4219 1204 4116 
Q 875 4013 500 3803 
L 500 4441 
Q 881 4594 1212 4672 
Q 1544 4750 1819 4750 
Q 2544 4750 2975 4387 
Q 3406 4025 3406 3419 
Q 3406 3131 3298 2873 
Q 3191 2616 2906 2266 
Q 2828 2175 2409 1742 
Q 1991 1309 1228 531 
z
" transform="scale(0.015625)"/>
       </defs>
       <use xlink:href="#DejaVuSans-32"/>
       <use xlink:href="#DejaVuSans-30" transform="translate(63.623047 0)"/>
      </g>
     </g>
    </g>
    <g id="xtick_5">
     <g id="line2d_9">
      <path d="M 297.125095 235.038235 
L 297.125095 7.2 
" clip-path="url(#p5e7f9a23b6)" style="fill: none; stroke: #b0b0b0; stroke-opacity: 0.25; stroke-width: 0.8; stroke-linecap: square"/>
     </g>
     <g id="line2d_10">
      <g>
       <use xlink:href="#mfbbeeafb77" x="297.125095" y="235.038235" style="stroke: #000000; stroke-width: 0.8"/>
      </g>
     </g>
     <g id="text_5">
      <!-- 30 -->
      <g transform="translate(290.762595 249.636673) scale(0.1 -0.1)">
       <defs>
        <path id="DejaVuSans-33" d="M 2597 2516 
Q 3050 2419 3304 2112 
Q 3559 1806 3559 1356 
Q 3559 666 3084 287 
Q 2609 -91 1734 -91 
Q 1441 -91 1130 -33 
Q 819 25 488 141 
L 488 750 
Q 750 597 1062 519 
Q 1375 441 1716 441 
Q 2309 441 2620 675 
Q 2931 909 2931 1356 
Q 2931 1769 2642 2001 
Q 2353 2234 1838 2234 
L 1294 2234 
L 1294 2753 
L 1863 2753 
Q 2328 2753 2575 2939 
Q 2822 3125 2822 3475 
Q 2822 3834 2567 4026 
Q 2313 4219 1838 4219 
Q 1578 4219 1281 4162 
Q 984 4106 628 3988 
L 628 4550 
Q 988 4650 1302 4700 
Q 1616 4750 1894 4750 
Q 2613 4750 3031 4423 
Q 3450 4097 3450 3541 
Q 3450 3153 3228 2886 
Q 3006 2619 2597 2516 
z
" transform="scale(0.015625)"/>
       </defs>
       <use xlink:href="#DejaVuSans-33"/>
       <use xlink:href="#DejaVuSans-30" transform="translate(63.623047 0)"/>
      </g>
     </g>
    </g>
    <g id="xtick_6">
     <g id="line2d_11">
      <path d="M 354.157711 235.038235 
L 354.157711 7.2 
" clip-path="url(#p5e7f9a23b6)" style="fill: none; stroke: #b0b0b0; stroke-opacity: 0.25; stroke-width: 0.8; stroke-linecap: square"/>
     </g>
     <g id="line2d_12">
      <g>
       <use xlink:href="#mfbbeeafb77" x="354.157711" y="235.038235" style="stroke: #000000; stroke-width: 0.8"/>
      </g>
     </g>
     <g id="text_6">
      <!-- 40 -->
      <g transform="translate(347.795211 249.636673) scale(0.1 -0.1)">
       <defs>
        <path id="DejaVuSans-34" d="M 2419 4116 
L 825 1625 
L 2419 1625 
L 2419 4116 
z
M 2253 4666 
L 3047 4666 
L 3047 1625 
L 3713 1625 
L 3713 1100 
L 3047 1100 
L 3047 0 
L 2419 0 
L 2419 1100 
L 313 1100 
L 313 1709 
L 2253 4666 
z
" transform="scale(0.015625)"/>
       </defs>
       <use xlink:href="#DejaVuSans-34"/>
       <use xlink:href="#DejaVuSans-30" transform="translate(63.623047 0)"/>
      </g>
     </g>
    </g>
    <g id="xtick_7">
     <g id="line2d_13">
      <path d="M 411.190327 235.038235 
L 411.190327 7.2 
" clip-path="url(#p5e7f9a23b6)" style="fill: none; stroke: #b0b0b0; stroke-opacity: 0.25; stroke-width: 0.8; stroke-linecap: square"/>
     </g>
     <g id="line2d_14">
      <g>
       <use xlink:href="#mfbbeeafb77" x="411.190327" y="235.038235" style="stroke: #000000; stroke-width: 0.8"/>
      </g>
     </g>
     <g id="text_7">
      <!-- 50 -->
      <g transform="translate(404.827827 249.636673) scale(0.1 -0.1)">
       <defs>
        <path id="DejaVuSans-35" d="M 691 4666 
L 3169 4666 
L 3169 4134 
L 1269 4134 
L 1269 2991 
Q 1406 3038 1543 3061 
Q 1681 3084 1819 3084 
Q 2600 3084 3056 2656 
Q 3513 2228 3513 1497 
Q 3513 744 3044 326 
Q 2575 -91 1722 -91 
Q 1428 -91 1123 -41 
Q 819 9 494 109 
L 494 744 
Q 775 591 1075 516 
Q 1375 441 1709 441 
Q 2250 441 2565 725 
Q 2881 1009 2881 1497 
Q 2881 1984 2565 2268 
Q 2250 2553 1709 2553 
Q 1456 2553 1204 2497 
Q 953 2441 691 2322 
L 691 4666 
z
" transform="scale(0.015625)"/>
       </defs>
       <use xlink:href="#DejaVuSans-35"/>
       <use xlink:href="#DejaVuSans-30" transform="translate(63.623047 0)"/>
      </g>
     </g>
    </g>
    <g id="xtick_8">
     <g id="line2d_15">
      <path d="M 468.222943 235.038235 
L 468.222943 7.2 
" clip-path="url(#p5e7f9a23b6)" style="fill: none; stroke: #b0b0b0; stroke-opacity: 0.25; stroke-width: 0.8; stroke-linecap: square"/>
     </g>
     <g id="line2d_16">
      <g>
       <use xlink:href="#mfbbeeafb77" x="468.222943" y="235.038235" style="stroke: #000000; stroke-width: 0.8"/>
      </g>
     </g>
     <g id="text_8">
      <!-- 60 -->
      <g transform="translate(461.860443 249.636673) scale(0.1 -0.1)">
       <defs>
        <path id="DejaVuSans-36" d="M 2113 2584 
Q 1688 2584 1439 2293 
Q 1191 2003 1191 1497 
Q 1191 994 1439 701 
Q 1688 409 2113 409 
Q 2538 409 2786 701 
Q 3034 994 3034 1497 
Q 3034 2003 2786 2293 
Q 2538 2584 2113 2584 
z
M 3366 4563 
L 3366 3988 
Q 3128 4100 2886 4159 
Q 2644 4219 2406 4219 
Q 1781 4219 1451 3797 
Q 1122 3375 1075 2522 
Q 1259 2794 1537 2939 
Q 1816 3084 2150 3084 
Q 2853 3084 3261 2657 
Q 3669 2231 3669 1497 
Q 3669 778 3244 343 
Q 2819 -91 2113 -91 
Q 1303 -91 875 529 
Q 447 1150 447 2328 
Q 447 3434 972 4092 
Q 1497 4750 2381 4750 
Q 2619 4750 2861 4703 
Q 3103 4656 3366 4563 
z
" transform="scale(0.015625)"/>
       </defs>
       <use xlink:href="#DejaVuSans-36"/>
       <use xlink:href="#DejaVuSans-30" transform="translate(63.623047 0)"/>
      </g>
     </g>
    </g>
    <g id="text_9">
     <!-- Z [mm] -->
     <g transform="translate(250.456562 263.314798) scale(0.1 -0.1)">
      <defs>
       <path id="DejaVuSans-5a" d="M 359 4666 
L 4025 4666 
L 4025 4184 
L 1075 531 
L 4097 531 
L 4097 0 
L 288 0 
L 288 481 
L 3238 4134 
L 359 4134 
L 359 4666 
z
" transform="scale(0.015625)"/>
       <path id="DejaVuSans-20" transform="scale(0.015625)"/>
       <path id="DejaVuSans-5b" d="M 550 4863 
L 1875 4863 
L 1875 4416 
L 1125 4416 
L 1125 -397 
L 1875 -397 
L 1875 -844 
L 550 -844 
L 550 4863 
z
" transform="scale(0.015625)"/>
       <path id="DejaVuSans-6d" d="M 3328 2828 
Q 3544 3216 3844 3400 
Q 4144 3584 4550 3584 
Q 5097 3584 5394 3201 
Q 5691 2819 5691 2113 
L 5691 0 
L 5113 0 
L 5113 2094 
Q 5113 2597 4934 2840 
Q 4756 3084 4391 3084 
Q 3944 3084 3684 2787 
Q 3425 2491 3425 1978 
L 3425 0 
L 2847 0 
L 2847 2094 
Q 2847 2600 2669 2842 
Q 2491 3084 2119 3084 
Q 1678 3084 1418 2786 
Q 1159 2488 1159 1978 
L 1159 0 
L 581 0 
L 581 3500 
L 1159 3500 
L 1159 2956 
Q 1356 3278 1631 3431 
Q 1906 3584 2284 3584 
Q 2666 3584 2933 3390 
Q 3200 3197 3328 2828 
z
" transform="scale(0.015625)"/>
       <path id="DejaVuSans-5d" d="M 1947 4863 
L 1947 -844 
L 622 -844 
L 622 -397 
L 1369 -397 
L 1369 4416 
L 622 4416 
L 622 4863 
L 1947 4863 
z
" transform="scale(0.015625)"/>
      </defs>
      <use xlink:href="#DejaVuSans-5a"/>
      <use xlink:href="#DejaVuSans-20" transform="translate(68.505859 0)"/>
      <use xlink:href="#DejaVuSans-5b" transform="translate(100.292969 0)"/>
      <use xlink:href="#DejaVuSans-6d" transform="translate(139.306641 0)"/>
      <use xlink:href="#DejaVuSans-6d" transform="translate(236.71875 0)"/>
      <use xlink:href="#DejaVuSans-5d" transform="translate(334.130859 0)"/>
     </g>
    </g>
   </g>
   <g id="matplotlib.axis_2">
    <g id="ytick_1">
     <g id="line2d_17">
      <path d="M 48.982813 206.668042 
L 489.242812 206.668042 
" clip-path="url(#p5e7f9a23b6)" style="fill: none; stroke: #b0b0b0; stroke-opacity: 0.25; stroke-width: 0.8; stroke-linecap: square"/>
     </g>
     <g id="line2d_18">
      <defs>
       <path id="m2d50753b72" d="M 0 0 
L -3.5 0 
" style="stroke: #000000; stroke-width: 0.8"/>
      </defs>
      <g>
       <use xlink:href="#m2d50753b72" x="48.982813" y="206.668042" style="stroke: #000000; stroke-width: 0.8"/>
      </g>
     </g>
     <g id="text_10">
      <!-- −15 -->
      <g transform="translate(20.878125 210.46726) scale(0.1 -0.1)">
       <use xlink:href="#DejaVuSans-2212"/>
       <use xlink:href="#DejaVuSans-31" transform="translate(83.789062 0)"/>
       <use xlink:href="#DejaVuSans-35" transform="translate(147.412109 0)"/>
      </g>
     </g>
    </g>
    <g id="ytick_2">
     <g id="line2d_19">
      <path d="M 48.982813 178.151734 
L 489.242812 178.151734 
" clip-path="url(#p5e7f9a23b6)" style="fill: none; stroke: #b0b0b0; stroke-opacity: 0.25; stroke-width: 0.8; stroke-linecap: square"/>
     </g>
     <g id="line2d_20">
      <g>
       <use xlink:href="#m2d50753b72" x="48.982813" y="178.151734" style="stroke: #000000; stroke-width: 0.8"/>
      </g>
     </g>
     <g id="text_11">
      <!-- −10 -->
      <g transform="translate(20.878125 181.950952) scale(0.1 -0.1)">
       <use xlink:href="#DejaVuSans-2212"/>
       <use xlink:href="#DejaVuSans-31" transform="translate(83.789062 0)"/>
       <use xlink:href="#DejaVuSans-30" transform="translate(147.412109 0)"/>
      </g>
     </g>
    </g>
    <g id="ytick_3">
     <g id="line2d_21">
      <path d="M 48.982813 149.635426 
L 489.242812 149.635426 
" clip-path="url(#p5e7f9a23b6)" style="fill: none; stroke: #b0b0b0; stroke-opacity: 0.25; stroke-width: 0.8; stroke-linecap: square"/>
     </g>
     <g id="line2d_22">
      <g>
       <use xlink:href="#m2d50753b72" x="48.982813" y="149.635426" style="stroke: #000000; stroke-width: 0.8"/>
      </g>
     </g>
     <g id="text_12">
      <!-- −5 -->
      <g transform="translate(27.240625 153.434644) scale(0.1 -0.1)">
       <use xlink:href="#DejaVuSans-2212"/>
       <use xlink:href="#DejaVuSans-35" transform="translate(83.789062 0)"/>
      </g>
     </g>
    </g>
    <g id="ytick_4">
     <g id="line2d_23">
      <path d="M 48.982813 121.119118 
L 489.242812 121.119118 
" clip-path="url(#p5e7f9a23b6)" style="fill: none; stroke: #b0b0b0; stroke-opacity: 0.25; stroke-width: 0.8; stroke-linecap: square"/>
     </g>
     <g id="line2d_24">
      <g>
       <use xlink:href="#m2d50753b72" x="48.982813" y="121.119118" style="stroke: #000000; stroke-width: 0.8"/>
      </g>
     </g>
     <g id="text_13">
      <!-- 0 -->
      <g transform="translate(35.620313 124.918336) scale(0.1 -0.1)">
       <use xlink:href="#DejaVuSans-30"/>
      </g>
     </g>
    </g>
    <g id="ytick_5">
     <g id="line2d_25">
      <path d="M 48.982813 92.60281 
L 489.242812 92.60281 
" clip-path="url(#p5e7f9a23b6)" style="fill: none; stroke: #b0b0b0; stroke-opacity: 0.25; stroke-width: 0.8; stroke-linecap: square"/>
     </g>
     <g id="line2d_26">
      <g>
       <use xlink:href="#m2d50753b72" x="48.982813" y="92.60281" style="stroke: #000000; stroke-width: 0.8"/>
      </g>
     </g>
     <g id="text_14">
      <!-- 5 -->
      <g transform="translate(35.620313 96.402028) scale(0.1 -0.1)">
       <use xlink:href="#DejaVuSans-35"/>
      </g>
     </g>
    </g>
    <g id="ytick_6">
     <g id="line2d_27">
      <path d="M 48.982813 64.086502 
L 489.242812 64.086502 
" clip-path="url(#p5e7f9a23b6)" style="fill: none; stroke: #b0b0b0; stroke-opacity: 0.25; stroke-width: 0.8; stroke-linecap: square"/>
     </g>
     <g id="line2d_28">
      <g>
       <use xlink:href="#m2d50753b72" x="48.982813" y="64.086502" style="stroke: #000000; stroke-width: 0.8"/>
      </g>
     </g>
     <g id="text_15">
      <!-- 10 -->
      <g transform="translate(29.257813 67.88572) scale(0.1 -0.1)">
       <use xlink:href="#DejaVuSans-31"/>
       <use xlink:href="#DejaVuSans-30" transform="translate(63.623047 0)"/>
      </g>
     </g>
    </g>
    <g id="ytick_7">
     <g id="line2d_29">
      <path d="M 48.982813 35.570194 
L 489.242812 35.570194 
" clip-path="url(#p5e7f9a23b6)" style="fill: none; stroke: #b0b0b0; stroke-opacity: 0.25; stroke-width: 0.8; stroke-linecap: square"/>
     </g>
     <g id="line2d_30">
      <g>
       <use xlink:href="#m2d50753b72" x="48.982813" y="35.570194" style="stroke: #000000; stroke-width: 0.8"/>
      </g>
     </g>
     <g id="text_16">
      <!-- 15 -->
      <g transform="translate(29.257813 39.369412) scale(0.1 -0.1)">
       <use xlink:href="#DejaVuSans-31"/>
       <use xlink:href="#DejaVuSans-35" transform="translate(63.623047 0)"/>
      </g>
     </g>
    </g>
    <g id="text_17">
     <!-- Y [mm] -->
     <g transform="translate(14.798438 139.404274) rotate(-90) scale(0.1 -0.1)">
      <defs>
       <path id="DejaVuSans-59" d="M -13 4666 
L 666 4666 
L 1959 2747 
L 3244 4666 
L 3922 4666 
L 2272 2222 
L 2272 0 
L 1638 0 
L 1638 2222 
L -13 4666 
z
" transform="scale(0.015625)"/>
      </defs>
      <use xlink:href="#DejaVuSans-59"/>
      <use xlink:href="#DejaVuSans-20" transform="translate(61.083984 0)"/>
      <use xlink:href="#DejaVuSans-5b" transform="translate(92.871094 0)"/>
      <use xlink:href="#DejaVuSans-6d" transform="translate(131.884766 0)"/>
      <use xlink:href="#DejaVuSans-6d" transform="translate(229.296875 0)"/>
      <use xlink:href="#DejaVuSans-5d" transform="translate(326.708984 0)"/>
     </g>
    </g>
   </g>
   <g id="line2d_31">
    <path d="M 68.994631 149.635426 
L 129.308617 149.635426 
L 144.465442 148.287614 
L 176.911643 143.34538 
L 186.690061 143.119533 
L 212.315001 145.27622 
L 225.591076 145.690258 
L 469.230994 121.095189 
" clip-path="url(#p5e7f9a23b6)" style="fill: none; stroke: #1f77b4; stroke-linecap: square"/>
   </g>
   <g id="line2d_32">
    <path d="M 68.994631 121.119118 
L 126.027247 121.119118 
L 144.613948 121.119118 
L 178.876577 121.119118 
L 184.579668 121.119118 
L 211.672499 121.119118 
L 228.508983 121.119118 
L 469.230994 121.119118 
" clip-path="url(#p5e7f9a23b6)" style="fill: none; stroke: #1f77b4; stroke-linecap: square"/>
   </g>
   <g id="line2d_33">
    <path d="M 68.994631 92.60281 
L 129.308617 92.60281 
L 144.465442 93.950621 
L 176.911643 98.892855 
L 186.690061 99.118703 
L 212.315001 96.962015 
L 225.591076 96.547977 
L 469.230994 121.143047 
" clip-path="url(#p5e7f9a23b6)" style="fill: none; stroke: #1f77b4; stroke-linecap: square"/>
   </g>
   <g id="line2d_34">
    <path d="M 68.994631 180.225346 
L 133.618235 164.112872 
L 144.294141 160.987691 
L 176.825538 143.823259 
L 186.437822 141.774289 
L 211.910791 135.834079 
L 227.789686 133.38331 
L 469.230994 50.427291 
" clip-path="url(#p5e7f9a23b6)" style="fill: none; stroke: #ff7f0e; stroke-linecap: square"/>
   </g>
   <g id="line2d_35">
    <path d="M 68.994631 151.709038 
L 127.065289 137.230397 
L 144.582196 133.681992 
L 178.874288 121.880764 
L 184.580329 120.727995 
L 211.775933 111.423652 
L 227.725364 108.320277 
L 469.230994 50.28578 
" clip-path="url(#p5e7f9a23b6)" style="fill: none; stroke: #ff7f0e; stroke-linecap: square"/>
   </g>
   <g id="line2d_36">
    <path d="M 68.994631 123.19273 
L 126.630889 108.822397 
L 144.572895 106.834385 
L 177.271967 101.019477 
L 186.632788 99.416576 
L 212.896867 87.782279 
L 222.335316 85.660883 
L 469.230994 50.053355 
" clip-path="url(#p5e7f9a23b6)" style="fill: none; stroke: #ff7f0e; stroke-linecap: square"/>
   </g>
   <g id="line2d_37">
    <path d="M 68.994631 194.29074 
L 135.906878 169.936674 
L 144.195238 166.737424 
L 177.106518 142.222624 
L 186.051184 139.515643 
L 211.745995 129.291994 
L 228.427292 125.25849 
L 469.230994 17.781866 
" clip-path="url(#p5e7f9a23b6)" style="fill: none; stroke: #2ca02c; stroke-linecap: square"/>
   </g>
   <g id="line2d_38">
    <path d="M 68.994631 165.774432 
L 128.173626 144.235039 
L 144.546549 139.422201 
L 178.875967 121.512364 
L 184.586921 119.823421 
L 211.946709 105.33439 
L 226.593456 101.162673 
L 469.230994 17.684617 
" clip-path="url(#p5e7f9a23b6)" style="fill: none; stroke: #2ca02c; stroke-linecap: square"/>
   </g>
   <g id="line2d_39">
    <path d="M 68.994631 137.258124 
L 126.113407 116.46859 
L 144.599942 112.775485 
L 177.404199 101.860407 
L 186.627385 99.444892 
L 213.381635 81.74229 
L 219.968256 79.656737 
L 469.230994 17.556283 
" clip-path="url(#p5e7f9a23b6)" style="fill: none; stroke: #2ca02c; stroke-linecap: square"/>
   </g>
   <g id="line2d_40">
    <path d="M 469.230994 224.681952 
L 469.230994 17.556283 
L 469.230994 17.556283 
" clip-path="url(#p5e7f9a23b6)" style="fill: none; stroke: #808080; stroke-width: 1.5; stroke-linecap: square"/>
   </g>
   <g id="patch_6">
    <path d="M 48.982813 235.038235 
L 48.982813 7.2 
" style="fill: none; stroke: #000000; stroke-width: 0.8; stroke-linejoin: miter; stroke-linecap: square"/>
   </g>
   <g id="patch_7">
    <path d="M 489.242812 235.038235 
L 489.242812 7.2 
" style="fill: none; stroke: #000000; stroke-width: 0.8; stroke-linejoin: miter; stroke-linecap: square"/>
   </g>
   <g id="patch_8">
    <path d="M 48.982813 235.038235 
L 489.242812 235.038235 
" style="fill: none; stroke: #000000; stroke-width: 0.8; stroke-linejoin: miter; stroke-linecap: square"/>
   </g>
   <g id="patch_9">
    <path d="M 48.982813 7.2 
L 489.242812 7.2 
" style="fill: none; stroke: #000000; stroke-width: 0.8; stroke-linejoin: miter; stroke-linecap: square"/>
   </g>
  </g>
 </g>
 <defs>
  <clipPath id="p5e7f9a23b6">
   <rect x="48.982813" y="7.2" width="440.26" height="227.838235"/>
  </clipPath>
 </defs>
</svg>
